<svg xmlns="http://www.w3.org/2000/svg" data-name="Layer 1" viewBox="0 0 600 600">
<style>
	path { fill: #0d0d0d; }
	@media (prefers-color-scheme: dark) { path { fill: #fff; } }
</style>
<path d="M567.75 296.93h-51.86C565.43 282.91 600 241.68 600 186.32 600 117.5 546.59 70.5 477.38 70.5c-48.55 0-89.33 23.13-109.35 60.71-14.29-29.64-43.77-60.71-99.77-60.71S163 103.01 149.16 153.98V70.5H81.3v146.71c0 15.75-10.08 25.18-24.86 25.18-11.42 0-21.5-5.03-28.89-10.07L0 284.02c17.47 13.42 40.65 18.13 62.49 18.13 51.97 0 86.54-26.42 86.67-83.6 11.76 43.24 47.25 73.39 93.65 81.45-57.2 9.88-97.85 53.17-97.85 113.68 0 68.82 53.08 115.82 123.29 115.82 52.89 0 82.39-28.8 97.33-56.33v56.33h67.86v-70.75l12.43-16.79 55.93 87.54h83.5L490.57 401l77.19-104.07Zm-90.37-166.67c32.59 0 53.75 24.84 53.75 56.06s-21.13 56.06-53.75 56.06-53.75-24.84-53.75-56.06 21.16-56.06 53.75-56.06M421.5 290.64h-55.91v63.13c-12.63-23.51-35.17-46.81-73.24-53.8 40.56-7.68 63.67-34.35 75.58-58.7 11.64 21.95 30.32 38.98 53.57 49.38ZM213.84 186.32c0-31.22 21.84-56.06 54.43-56.06 20.16 0 37.63 15.1 43.33 32.56l53.05-24.68a117.9 117.9 0 0 0-9.9 48.17c-.12 16.44 3.21 32.71 9.75 47.79l-52.88-24.29c-5.71 17.46-23.18 32.56-43.33 32.56-32.62 0-54.45-24.84-54.45-56.06Zm97.76 250.85c-5.71 17.46-23.18 32.57-43.33 32.57-32.59 0-54.43-24.84-54.43-56.06s21.84-56.06 54.43-56.06c20.16 0 37.63 15.11 43.33 32.56l54-25.11V462zm121.86-56.31v-85.58c14.18 4.62 29.01 6.94 43.93 6.87 3.9 0 7.74-.16 11.53-.45z"/>
</svg>
