<svg xmlns="http://www.w3.org/2000/svg" viewBox="0 0 195 170" fill="currentColor"><g clip-path="url(#a)"><path d="M99.01 83.24c-3.74 0-6.78 3.04-6.78 6.79a6.78 6.78 0 1 0 13.56 0c0-3.74-3.04-6.79-6.78-6.79"/><path d="M192.54 106.05c-.03-.07-.07-.15-.12-.26-2.63-5.9-10.84-20.15-30.21-25.17l-1.98-.51.55-1.97c1.16-4.11 1.75-8.19 1.75-12.13 0-20.86-14.79-38.36-35.17-41.63-2.1-.34-3.9-1.73-4.77-3.67-2.36-5.29-8.26-14.79-21.31-18.96C97.8.59 94.37.01 91.07.01c-9.41 0-15.82 4.71-18.88 7.62-1.13 1.08-2.58 1.81-4.13 1.91-1.08.07-2.13-.12-3.11-.57-3.04-1.41-6.41-2.12-10.04-2.12-1.25 0-2.49.09-3.68.26l-.14.02h-.55C41.49 8.8 33.92 15.8 31.2 25.02c-2.74 9.86.09 19.6 7.58 26.02 3.65 3.13 7.08 6.07 10.91 8.26 2 1.15 3.25 3.27 3.25 5.54 0 1.95-.73 3.32-2.16 4.09-29.82 19.46-42.5 38.6-50.22 53.11a4.81 4.81 0 0 0-.22 4.03 4.89 4.89 0 0 0 2.99 2.84c.9.3 1.85.34 2.79.11 1.39-.35 2.52-1.37 3.19-2.63C19.8 106.66 34.3 91.3 56.29 76.64l.02-.02.02-.02c3.81-2.38 6.08-6.78 6.08-11.77 0-4.6-2.6-9.21-6.64-11.75-3.77-2.16-7.44-5.02-10.92-8.5-5.33-5.34-5.89-12.03-4.62-16.54 1.36-6.01 6.05-10.17 12.25-10.87h.76l.14-.02c.32-.03.91-.08 1.64-.08 4.52 0 8.23 2.01 10.46 5.66l2.39 3.19c.62.83 1.45.95 1.9.95.77 0 1.75-.38 2.21-1.46l1.67-3.96.17-.37c3.71-7.39 9.82-11.46 17.22-11.46 2.32 0 4.79.4 7.34 1.18 14.46 4.4 17.08 17.96 17.19 18.53l.46 2.3c.22 1.11 1.2 1.92 2.34 1.92h2.26c8.74 0 17.02 3.46 23.29 9.74 6.28 6.28 9.73 14.55 9.73 23.3 0 4.27-.9 8.71-2.54 12.52-.03.07-.07.14-.12.2l-.56.71c-1.1.82-1.88 2.06-2.09 3.31-.38 2.29 1.63 4.85 4.16 5.3 13.69 1.39 21.32 7.98 24.65 11.79l2.55 2.92-3.86.39c-11.89 1.19-29.71 4.1-44.08 8.7-2.52.84-3.63 3.31-2.8 6.28.86 2.54 2.37 3.84 4.49 3.86h.05c.45 0 12.4-3.55 18.89-4.89l1.76-.36.54 1.72c2.5 7.93 3.03 19.84-8.67 31.53l-.02.02-.02.02c-6.53 6.13-15.45 9.78-23.86 9.78-3.96 0-7.64-.85-10.65-2.45l-.06-.03-.06-.04c-3.1-1.94-10.31-7.24-10.31-14.58 0-2.53-2.16-4.44-5.02-4.44-2.53 0-4.44 2.16-4.44 5.03 0 12.34 11.66 20.55 15.37 22.84 4.36 2.17 9.35 3.27 14.83 3.27 10.11 0 21.43-4.63 30.29-12.39 11.71-10.77 16.05-25.27 11.89-39.74l-.63-2.18 2.25-.35c12.55-1.93 22.68-2.71 22.78-2.72l6.64-.41-2.46-6.16z"/><path d="M21.62 150.82c6.14-13.42 13.85-25.49 24.99-35.94h.01c1.8-1.69 1.87-4.54.3-6.45-1.81-2.2-5.11-2.34-7.13-.33-14.7 14.65-22.14 28.08-27.1 38.91-.58 1.28-.58 2.74.02 4.02a4.87 4.87 0 0 0 3.13 2.65c.9.25 1.86.23 2.77-.06 1.36-.43 2.42-1.5 3.01-2.8M39.54 166.89c2.88-6.55 6.19-12.68 10.06-18.53l-.02.01c1.57-2.38.84-5.57-1.64-6.97-2.2-1.24-5.01-.6-6.41 1.51-4.95 7.44-8.34 14.29-10.99 20.33a4.77 4.77 0 0 0 .09 4.01 4.85 4.85 0 0 0 3.17 2.59c.91.24 1.86.2 2.77-.1 1.36-.45 2.4-1.54 2.97-2.85"/></g><defs><clipPath id="a"><path d="M0 0h195v170H0z"/></clipPath></defs></svg>
