<svg xmlns="http://www.w3.org/2000/svg" viewBox="0 0 380 535" fill="currentColor"><path d="M364.36 284.4c-2.47-8.7-1-18.68-.3-22.33a6.9 6.9 0 0 0 .3-1.78c9-9.68 15.89-26.38 15.89-36.56A26.41 26.41 0 0 0 354 197.15h-1.4c-2.76-30.53-5.43-50-5.43-50-4.25-82-74-147-157.43-147-83.9 0-155 64.43-158.91 147.14 0 0-2.76 19.37-5.23 50A26.41 26.41 0 0 0 .25 223.92c0 10 6.91 26.88 15.89 36.56a3.8 3.8 0 0 1 .3 1.78c.79 3.76 2 13.64-.3 22.33a13.1 13.1 0 0 0-1.78 6.23c0 4.94 3 9 6.71 10.18 0 42.79 1 89.23 8.69 133a71 71 0 0 0 6.42 6.42v22.33l12.93 5.73 10.46 24.41h14.9l11.65 19.86h20.33l20.33 13.93 27.34-6.92 34.05 15.42h2.47L224.2 519l26.85 8.7 20.33-14.92h20.33l11.65-19.86h14.9L326 468.5l10.17-5.73v-22.34s6.42-3.26 9-6.42c7.7-43.48 11-90 11-132.51a10.56 10.56 0 0 0 9.18-10.67 8.74 8.74 0 0 0-.89-6.42zm-342-38.74c-4-2.47-6.91-7.41-7.7-13.64-1-9 3.26-16.9 9.48-18.18-.49 9.88-1.28 20.55-1.78 31.82m168.38 120.56c-24.87 13.44-35.24-3.26-35-9.19 29.81-2.47 34.74-15.91 34.74-15.91s4.94 13.44 34.74 15.91c.56 5.73-10.89 22.33-34.48 9.19m74.52-30.63c-40-22.83-51.62-34.09-73.73-21.84l-2 .3-1.78-.3C165.48 301.3 155 312.46 115 335.39s-87.11-32.81-73.49-130.74 50.14-123.32 61.29-122c11 1.28 82.91 4.94 87.94 4.94s76.49-3.76 87.45-4.94c11.15-1.28 47.48 24.9 61.1 122.83s-34 153.07-74 130.14zm90.9-88.94c-.49-11.66-1.28-22.63-2-32.81h1.48c6.71.79 11.15 9 10.17 18.18-1 7.12-5 12.85-9.64 14.63z"/><path d="M135 205.79a6 6 0 0 1 8.48-.18l.18.18a6.06 6.06 0 0 1 .14 8.57l-.14.14-23.53 23.66a6 6 0 0 1-8.48.18l-.18-.18a6.06 6.06 0 0 1-.14-8.57l.14-.14z"/><path d="M111.49 214.51a6.06 6.06 0 0 1-.14-8.57l.14-.14a6 6 0 0 1 8.48-.18l.18.18 23.53 23.66a6.06 6.06 0 0 1 .14 8.57l-.14.14a6 6 0 0 1-8.48.18l-.18-.18zM158.91 258.13c-39.48 18.51-70.32 2.22-74.77-.25a9.26 9.26 0 0 1-3.95-4.69 8 8 0 0 1 5.43-9.38 10.6 10.6 0 0 1 3.95 0s1.23.49 1.73.74c29.86 14.81 51.57 5.92 59.47 1.23 1-.49 2.22-1.73 3.45-2.22l.25-.25h.25a7.76 7.76 0 0 1 9.38 5.43c1.47 4.21-1.24 7.42-5.19 9.39M261.89 205.79a6 6 0 0 1 8.48-.18l.18.18a6.06 6.06 0 0 1 .14 8.57l-.14.14L247 238.16a6 6 0 0 1-8.48.18l-.18-.18a6.06 6.06 0 0 1-.14-8.57l.14-.14z"/><path d="M238.38 214.51a6.06 6.06 0 0 1-.14-8.57l.14-.14a6 6 0 0 1 8.48-.18l.18.18 23.53 23.66a6.06 6.06 0 0 1 .14 8.57l-.14.14a6 6 0 0 1-8.48.18l-.18-.18z"/><path fill="#e22020" d="M159.83 397.67c-1.73 4-4 5-4 8a4 4 0 0 0 8 0c.17-2.99-2.27-4.05-4-8m-1.2 5.93a3.7 3.7 0 0 0-.8 2 1.5 1.5 0 0 0 .4 1.07c.13.13 0 .4-.13.53h-.1c-.13 0-.26 0-.26-.13a2.65 2.65 0 0 1-.4-1.45 3.5 3.5 0 0 1 .93-2.37c.13-.13.26-.13.54-.13 0 .26 0 .4-.13.53zM155.83 358.32v31.34a4 4 0 0 0 8 0v-10.1a4 4 0 0 0 2.33.77 4 4 0 0 0 4-4v-5.26c-9.16-1.41-13.64-8.5-14.33-12.75"/><rect width="2" height="48" x="295.81" y="243.66" rx="1" ry="1" transform="rotate(45 296.81 267.663)"/><rect width="2" height="32" x="305.81" y="251.66" rx="1" ry="1" transform="rotate(45 306.81 267.665)"/></svg>
