<svg xmlns="http://www.w3.org/2000/svg" data-name="Layer 1" viewBox="0 0 640 898"><path d="M241.78 346.28c-4.12-4.12-10.65-4.12-14.77 0l-12.63 12.64-12.63-12.64c-4.12-4.12-10.65-4.12-14.77 0-4.12 4.11-4.12 10.65 0 14.77l12.63 12.64-12.63 12.64c-4.12 4.11-4.12 10.65 0 14.77s10.65 4.12 14.77 0l12.63-12.64 12.63 12.64c4.12 4.12 10.65 4.11 14.77 0s4.12-10.65 0-14.77l-12.63-12.64 12.63-12.64c4.12-4.11 4.12-10.65 0-14.77"/><path d="M262.78 298.33c-72.46-13.85-115.54 26.5-121.63 32.59-2.59 2.28-4.12 5.79-4.12 9.44 0 7.16 5.79 12.79 12.79 12.79 2.43 0 4.72-.77 6.55-1.83 0 0 1.83-1.07 2.59-1.83 42.32-37.31 81.44-31.68 96.52-27.41 1.82.61 3.65 1.98 5.94 1.98h1.06c7.3.01 13.24-5.78 13.24-13.09-.15-6.71-5.47-10.81-12.94-12.64M455.65 346.28c-4.12-4.12-10.65-4.12-14.77 0l-12.63 12.64-12.63-12.64c-4.12-4.12-10.65-4.12-14.77 0-4.12 4.11-4.12 10.65 0 14.77l12.63 12.64-12.63 12.64c-4.12 4.11-4.12 10.65 0 14.77s10.65 4.12 14.77 0l12.63-12.64 12.63 12.64c4.12 4.12 10.65 4.11 14.77 0s4.12-10.65 0-14.77l-12.63-12.64 12.63-12.64c4.12-4.11 4.12-10.65 0-14.77"/><path d="M613.36 478.46c-4.12-14.62-1.67-31.21-.61-37.61.46-1.82.61-2.74.61-2.74 15.07-16.3 26.64-44.47 26.64-61.37 0-24.82-19.79-44.92-44.14-44.92h-1.98c-4.57-51.63-9.28-84.06-9.28-84.06C577.44 109.03 459.77 0 318.8 0S58.03 108.58 51.61 247.77c0 0-4.72 32.43-8.98 84.06C19.03 332.75 0 352.39 0 376.6c0 16.76 11.57 45.08 26.64 61.37 0 0 .31.91.61 2.74 1.06 6.24 3.35 22.69-.61 37.61-1.98 3.04-3.04 6.55-3.04 10.51 0 8.22 5.02 15.07 11.57 17.36 0 71.72 2.89 150.15 15.68 223.85 4.1 5.03 11.87 10.66 11.87 10.66v37.47L83.28 787l16.44 40.05h25.11l19.79 33.35h34.41l34.71 24.67 45.97-12.34 57.39 25.28h4.12l56.63-26.04 45.06 14.01 34.41-25.58h34.41l19.79-33.35h24.97L550.5 787l18.27-8.83V740.7s10.04-5.48 14.16-10.66c12.95-73.25 17.97-151.37 17.97-223.09 8.22-.76 15.07-8.53 15.07-17.97 0-3.96-.91-7.46-2.74-10.51h.15ZM40.22 360c-1.22 16.37-2.27 34.1-3.19 53.03 0 .09 0 .18-.01.26-6.55-4.12-11.73-12.64-12.79-22.84-.7-5.26-.26-10.34 1.08-14.82 2.41-8.32 7.85-14.49 14.91-15.79 0 .05 0 .1-.01.15h.01Zm308.87 264.81c-7.91 0-17.2-2.28-28.01-8.38-11.42 5.95-21.16 8.38-28.92 8.38-17.48 0-26.76-11.37-29.03-19.41-.6-1.81-.87-3.47-.8-4.79 50.08-4.12 58.46-26.64 58.46-26.64s.06.15.18.42c.08-.19.12-.29.12-.29s3.94 10.58 22.54 18.57c8.51 3.61 20.04 6.66 35.61 7.94v.11c.1 0 .2.02.3.03.31 7.32-9.75 24.07-30.45 24.07Zm128.03-51.64c-10.36 0-20.86-2.59-31.06-8.53-48.26-27.56-72.16-45.08-95.6-45.08-9.28 0-18.42 2.59-28.92 8.38l-1.98.61-1.67-.31c-10.8-5.79-19.93-8.53-29.07-8.53-23.13 0-46.43 17.52-94.69 45.08-10.05 5.79-20.7 8.53-30.9 8.53-58.3 0-113.1-88.78-93.46-229.03 22.22-161.27 81.59-206.8 101.68-206.8h1.37c18.26 2.13 139.59 7.31 147.96 7.31s129.09-5.33 147.21-7.31h1.37c20.09-.29 79 45.85 101.54 207.26 19.33 140.09-35.47 228.41-93.77 228.41ZM610.33 405.6c-2.85 4.5-6.59 7.81-10.82 9.38-.15-3.23-.31-6.4-.46-9.56-.58-11.14-1.23-21.9-1.88-32.19-.32-4.65-.65-9.22-1.01-13.69h2.59c9.11 1.22 15.79 10.09 17.04 21.52.36 2.94.39 6.05.01 9.25-.74 5.85-2.72 11.09-5.47 15.3Z"/><path d="M501.62 330.9c-6.08-6.1-49.16-46.45-121.63-32.59-7.46 1.83-13.7 5.95-13.4 12.64 0 7.31 5.18 13.1 12.48 13.1h.92c2.28 0 5.47-1.37 7.3-1.98 15.07-4.26 54.19-9.9 96.52 27.41.76.77 2.59 1.83 2.59 1.83 1.83 1.07 4.12 1.83 6.55 1.83 7-.01 12.79-5.64 12.79-12.8 0-3.65-1.53-7.16-4.12-9.44"/></svg>