<svg xmlns="http://www.w3.org/2000/svg" xml:space="preserve" viewBox="493.8 0 442.8 611.8"><g fill="#fff"><path d="M529.3 282.4c-4.3-2.7-7.7-8.3-8.4-15.1-1.2-9.9 3.4-18.7 10.5-20-.9 10.9-1.5 22.8-2.1 35.1M715.9 415.6c-27.4 14.7-38.9-3.7-38.6-10.2 32.9-2.7 38.4-17.5 38.4-17.5s5.5 14.8 38.4 17.5c.3 6.6-12.2 25-38.2 10.2"/><path d="M798 381.8c-44.2-25.3-57.2-37.6-81.8-24.1l-.7.4-.4-.2c-24.5-13.7-37.7-1.3-82 24s-97.2-36.4-82.1-144.6c15.2-108.2 55.3-138.1 67.6-136.7 12 1.3 91.6 3.8 97.1 3.8s84.8-2.4 96.7-3.8c12.4-1.3 52.4 28.3 67.6 136.5 15.2 108.3-37.7 170.1-82 144.7M898.8 283.5c-.6-12.9-1.3-25.1-2.2-36.4h1.7c7.5 1 12.5 9.9 11.1 20.1-1 8-5.2 14.3-10.6 16.3"/></g><path fill="currentColor" d="M908 325.4c-2.6-9.8-1.1-20.6-.4-24.7.2-1.2.4-1.8.4-1.8 9.9-10.7 17.5-29.3 17.5-40.3 0-16.3-13-29.5-29-29.5h-1.2c-2.9-33.9-6.1-55.2-6.1-55.2C884.3 82.6 807 11 714.5 11c-92.7 0-171.4 71.3-175.8 162.7 0 0-3.1 21.3-5.9 55.2-15.5.6-28 13.5-28 29.4 0 11.1 7.6 29.6 17.5 40.3 0 0 .1.6.4 1.8.7 4.2 2.3 15.1-.4 24.7-1.2 2-2 4.3-2 6.9 0 5.4 3.2 9.9 7.6 11.4 0 47.3 1.3 98.8 9.9 147 2.7 3.4 7.3 7 7.3 7V522l14 5.9 11.1 26.4h16.3l13 22.2h22.6l22.6 15.9 30.2-8 37.7 16.6h2.7l37.2-17.3 29.6 9.4 22.6-16.6h22.6l13-22.2h16.5l8.7-26.4L877 522v-24.6s7.1-3.7 9.8-7c8.4-48.1 12.1-99.5 12-146.5 5.4-.5 10-5.5 10-11.8 0-2.6-.5-4.9-1.7-6.9.7.2.9.2.9.2m-378.7-43c-4.3-2.7-7.7-8.3-8.4-15.1-1.2-9.9 3.4-18.7 10.5-20-.9 10.9-1.5 22.8-2.1 35.1m186.6 133.2c-27.4 14.7-38.9-3.7-38.6-10.2 32.9-2.7 38.4-17.5 38.4-17.5s5.5 14.8 38.4 17.5c.3 6.6-12.2 25-38.2 10.2m82.1-33.8c-44.2-25.3-57.2-37.6-81.8-24.1l-1.8.4-1.6-.2c-25.1-13.7-36.5-1.3-80.8 24s-96.6-36.4-81.5-144.6c15.2-108.2 55.6-137 67.9-135.5 12 1.3 91.8 4.9 97.3 4.9s84.8-3.7 96.7-4.9c12.4-1.3 52.4 27.7 67.6 136 15.2 108.2-37.7 169.4-82 144m100.8-98.3c-.6-12.9-1.3-25.1-2.2-36.4h1.7c7.5 1 12.5 9.9 11.1 20.1-1 8-5.2 14.3-10.6 16.3"/><path fill="#fff" d="M714.4 11C807 11 884.3 82.6 889 173.7c0 0 3.1 21.3 6.1 55.2h1.3c16 0 29 13.2 29 29.5 0 11.1-7.6 29.6-17.5 40.3 0 0-.1.6-.4 1.8-.7 4.2-2.3 15.1.4 24.7h-.1q1.8 3 1.8 6.9c0 6.2-4.5 11.3-9.9 11.8 0 47.1-3.3 98.4-11.8 146.5-2.7 3.4-9.3 7-9.3 7V522l-12 5.8-9.2 26.3H841L828 576h-22.6l-22.6 16.8-29.6-9.2-37.2 17.1h-2.7l-37.7-16.6-30.2 8.1-22.8-16.2H600l-13-21.9h-16.5l-10.8-26.3-13.5-5.8v-24.6s-5.1-3.7-7.8-7c-8.4-48.4-10.3-99.9-10.3-147-4.3-1.5-7.6-6-7.6-11.4 0-2.6.7-4.9 2-6.9 2.6-9.8 1.1-20.6.4-24.7-.2-1.2-.4-1.8-.4-1.8-9.9-10.7-17.5-29.3-17.5-40.3 0-15.9 12.5-28.8 28-29.4 2.8-33.9 5.9-55.2 5.9-55.2C543.1 82.3 621.7 11 714.4 11M612.2 387.5c6.7 0 13.7-1.8 20.3-5.6 31.7-18.1 47-29.6 62.2-29.6 6 0 12 1.8 19.1 5.6l1.1.2 1.3-.4c6.9-3.8 12.9-5.5 19-5.5 15.4 0 31.1 11.5 62.8 29.6 6.7 3.9 13.6 5.6 20.4 5.6 38.3 0 74.3-58 61.6-150-14.8-106-53.5-136.3-66.7-136.1h-.9c-11.9 1.3-91.2 4.8-96.7 4.8s-85.2-3.4-97.2-4.8h-.9c-13.2 0-52.2 29.9-66.8 135.8-12.9 92.1 23.1 150.4 61.4 150.4m286.6-104c5.3-2.1 9.7-8.3 10.7-16.2 1.2-10.3-3.8-19.2-11.1-20.1h-1.7c.7 11.2 1.5 23.4 2.1 36.3m-369.5-1.1c.6-12.5 1.3-24.2 2.1-35-7.1 1.3-11.8 10.2-10.5 20 .7 6.7 4.1 12.3 8.4 15m167.6 138.9c5.1 0 11.5-1.6 19-5.5 7.1 4 13.2 5.5 18.4 5.5 13.6 0 20.2-11 20-15.8-32.9-2.7-38.4-17.5-38.4-17.5s-5.5 14.8-38.4 17.5c-.6 4.7 5.4 15.8 19.4 15.8M714.4 0C666.7 0 621 17.8 586 50.1c-35.2 32.3-56 75.9-58.3 122.6-.5 3.2-2.7 20.3-5.1 46.9-16.8 5-28.8 20.4-28.8 38.8 0 13.5 7.8 32.7 18.2 45.3.5 3.6 1.3 10.9 0 17.5-1.7 3.4-2.6 7.1-2.6 11 0 6.9 2.8 13.1 7.6 17.4.1 41.1 1.7 93.2 10.5 142.9l.5 2.7 1.7 2.2c1.6 2 3.6 3.9 5.4 5.4v26.5l6.6 2.8 9.3 3.9 9.1 22.2 2.8 6.9h17.6l9.9 16.6 3.2 5.4H619l19.8 14.1 4.2 2.9 5-1.3 26.4-7.1 34.3 15.1 2.1 1h7.4l2.2-1 33.4-15.4 25.6 8 5.3 1.6 4.5-3.3 19.7-14.7h25.3l3.2-5.4 9.9-16.6h18l2.6-7.3 7.7-22 7.8-3.8 6.2-2.9v-25.4c2.4-1.7 5-3.9 6.9-6.2l1.7-2.2.5-2.7c7.5-42.4 11.6-91 11.9-141.3 6-4.2 9.9-11.3 9.9-19.1 0-3.8-.9-7.3-2.3-10.4-1.6-6.7-.7-14.4-.1-18 10.4-12.6 18.2-31.8 18.2-45.3 0-19.2-13.3-35.4-31.2-39.5-2.4-26.2-4.8-43.1-5.3-46.3-2.6-46.4-23-89.9-57.8-122.2C807.4 17.9 762 0 714.4 0m1.4 117.2c5.9 0 84.5-3.4 97.7-4.8 6.5.9 41.6 25.7 55.7 126.6 7.2 51.9-1.3 97.7-22.9 122.5-8.4 9.8-18 14.9-27.7 14.9-5 0-10-1.3-14.9-4.3-6.2-3.6-11.9-7-16.9-9.9-22.4-13.2-36-21.2-51.3-21.2-6.7 0-13.2 1.6-20.3 4.9-7.1-3.3-13.6-4.9-20.2-4.9-15.1 0-28 7.7-49.7 20.6-5.3 3.2-11.4 6.7-18 10.5-4.9 2.8-9.9 4.2-14.9 4.2-9.5 0-19.1-5.1-27.5-14.8-21.7-24.9-30.2-70.8-23-122.9C575.8 138 611 113.2 617.7 112.4c13.3 1.5 92.2 4.8 98.1 4.8"/><path fill="currentColor" d="M677.6 206.9c-47.6-9.1-75.9 17.4-79.9 21.4-1.7 1.5-2.7 3.8-2.7 6.2 0 4.7 3.8 8.4 8.4 8.4 1.6 0 3.1-.5 4.3-1.2 0 0 1.2-.7 1.7-1.2 27.8-24.5 53.5-20.8 63.4-18 1.2.4 2.4 1.3 3.9 1.3.1 0 0 0 0 0h.7c4.8 0 8.7-3.8 8.7-8.6-.1-4.4-3.6-7.1-8.5-8.3"/><path fill="currentColor" d="m655.5 256.4 8.3-8.3c2.7-2.7 2.7-7 0-9.7s-7-2.7-9.7 0l-8.3 8.3-8.3-8.3c-2.7-2.7-7-2.7-9.7 0s-2.7 7 0 9.7l8.3 8.3-8.3 8.3c-2.7 2.7-2.7 7 0 9.7s7 2.7 9.7 0l8.3-8.3 8.3 8.3c2.7 2.7 7 2.7 9.7 0s2.7-7 0-9.7zM754.6 206.9c47.6-9.1 75.9 17.4 79.9 21.4 1.7 1.5 2.7 3.8 2.7 6.2 0 4.7-3.8 8.4-8.4 8.4-1.6 0-3.1-.5-4.3-1.2 0 0-1.2-.7-1.7-1.2-27.8-24.5-53.5-20.8-63.4-18-1.2.4-3.3 1.3-4.8 1.3h-.7.1c-4.8 0-8.2-3.8-8.2-8.6-.2-4.4 3.9-7.1 8.8-8.3"/><path fill="currentColor" d="m776.6 256.4-8.3-8.3c-2.7-2.7-2.7-7 0-9.7s7-2.7 9.7 0l8.3 8.3 8.3-8.3c2.7-2.7 7-2.7 9.7 0s2.7 7 0 9.7l-8.3 8.3 8.3 8.3c2.7 2.7 2.7 7 0 9.7s-7 2.7-9.7 0l-8.3-8.3-8.3 8.3c-2.7 2.7-7 2.7-9.7 0s-2.7-7 0-9.7z"/></svg>