<svg xmlns="http://www.w3.org/2000/svg" viewBox="0 0 600 600" fill="currentColor"><path d="M300 0C134.31 0 0 134.31 0 300s134.31 300 300 300 300-134.31 300-300S465.69 0 300 0Zm6.97 241.96c0-11.9 9.66-21.56 21.56-21.56h2.2c11.9 0 21.56 9.66 21.56 21.56v83.38c0 11.9-9.66 21.56-21.56 21.56h-2.16a34.287 34.287 0 0 0 7.57-21.56v-2.2c0-17.24-12.67-31.57-29.17-34.16v-47.02Zm-59.26-10.11c0-11.9 9.66-21.56 21.56-21.56h2.2c11.9 0 21.56 9.66 21.56 21.56h.04v56.72h-45.36v-56.72Zm-58.38-80.29c0-11.9 9.66-21.56 21.56-21.56h2.2c11.9 0 21.56 9.66 21.56 21.56v137l-23.76.01a34.292 34.292 0 0 0-21.56 7.57V151.56Zm221.34 208.21c0 14.88-2.93 29.33-8.69 42.89-5.56 13.13-13.56 24.92-23.72 35.04a110.25 110.25 0 0 1-35.2 23.65c-13.64 5.75-28.13 8.65-43.08 8.65s-29.44-2.89-43.08-8.65a110.627 110.627 0 0 1-35.2-23.65s.04-.01.04-.01c-10.16-10.12-18.16-21.9-23.72-35.04-5.75-13.57-8.69-28.02-8.69-42.89v-36.63c0-11.9 9.66-21.56 21.56-21.56h90.68c11.9 0 21.56 9.66 21.56 21.56v2.2c0 11.9-9.66 21.56-21.56 21.56h-57.45c-3.59 0-6.49 2.9-6.49 6.49s2.9 6.49 6.49 6.49c12.29 0 21.44 3.4 27.24 10.05 9.93 11.36 7.61 29.14 7.61 29.29-.5 3.59 1.98 6.88 5.53 7.38.31.08.62.08.93.08 3.16 0 5.95-2.35 6.41-5.6.15-.96 3.2-23.68-10.59-39.6-.46-.51-.93-1.05-1.43-1.55h21.79c4.79 0 9.35-.96 13.48-2.74 4.25 1.81 8.81 2.74 13.48 2.74h2.2c19.05 0 34.58-15.49 34.58-34.58V178.56c0-11.9 9.66-21.56 21.56-21.56h2.2c11.9 0 21.56 9.66 21.56 21.56v181.21Z"/></svg>