<svg xmlns="http://www.w3.org/2000/svg" viewBox="0 0 127 170" fill="currentColor"><g clip-path="url(#a)"><path d="M110.067 21.144c-9.34 0-16.934 7.597-16.934 16.92v10.811c-2.487-1.461-5.37-2.337-8.466-2.337-5.08 0-9.578 2.284-12.7 5.843-3.122-3.56-7.62-5.843-12.7-5.843-3.096 0-5.954.903-8.467 2.337v-31.45C50.8 8.606 44.265.903 35.507.08c-10.08-.957-18.574 6.986-18.574 16.84v63.91C7.276 82.795 0 91.348 0 101.548v37.639a29.8 29.8 0 0 0 6.482 18.515l8.573 10.704a4.26 4.26 0 0 0 4.71 1.355c2.751-.983 3.73-4.356 1.904-6.641l-8.572-10.704a21.23 21.23 0 0 1-4.63-13.229v-37.639c0-7.012 5.688-12.696 12.7-12.696h46.196c4.418 0 8.36 3.214 8.81 7.623.503 5.047-3.492 9.297-8.44 9.297h-38.1a4.23 4.23 0 0 0-4.233 4.223 4.23 4.23 0 0 0 4.233 4.224h12.7c0 9.323 7.594 16.92 16.934 16.92 5.08 0 9.578-2.284 12.7-5.844 3.201 3.639 7.858 5.95 13.097 5.844 9.286-.212 16.536-8.181 16.536-17.478V38.463c0-4.41 3.228-8.368 7.62-8.793 5.054-.478 9.313 3.48 9.313 8.42v101.097c0 4.808-1.64 9.483-4.63 13.229l-8.572 10.678c-1.826 2.284-.847 5.658 1.905 6.64a4.26 4.26 0 0 0 4.709-1.354l8.573-10.705A29.72 29.72 0 0 0 127 139.187V38.064c0-9.323-7.594-16.92-16.933-16.92m-67.734 59.26H25.4V16.92c0-4.675 3.81-8.447 8.467-8.447 4.656 0 8.466 3.799 8.466 8.447zm25.4 0H50.8v-16.92c0-4.675 3.81-8.446 8.467-8.446 4.656 0 8.466 3.798 8.466 8.446zm-8.466 42.315c-4.684 0-8.467-3.799-8.467-8.447h16.933c0 4.675-3.81 8.447-8.466 8.447m33.866-8.447c0 4.675-3.81 8.447-8.466 8.447-4.657 0-8.467-3.799-8.467-8.447v-2.338c5.054-2.948 8.467-8.34 8.467-14.582s-3.44-11.635-8.467-14.583V63.484c0-4.675 3.81-8.446 8.467-8.446 4.656 0 8.466 3.798 8.466 8.446z"/></g><defs><clipPath id="a"><path d="M0 0h127v170H0z"/></clipPath></defs></svg>
