<svg xmlns="http://www.w3.org/2000/svg" data-name="Layer 1" viewBox="0 0 420 93" fill="currentColor"><path d="M59.86 46.27C59.86 18.64 81.17 0 109.34 0c23.6 0 35.46 13.68 40.86 26.02l-23.46 10.86c-2.29-6.97-9.3-13.01-17.39-13.01-13.08 0-21.84 9.93-21.84 22.4s8.76 22.4 21.84 22.4c8.09 0 15.1-6.04 17.39-13.01l23.46 10.73c-5.26 11.94-17.26 26.15-40.85 26.15-28.18 0-49.48-18.78-49.48-46.27Z"/><path d="M194.95 0c27.77 0 49.21 18.78 49.21 46.27s-21.44 46.27-49.21 46.27-49.21-18.78-49.21-46.27S167.18 0 194.95 0m0 23.87c-13.08 0-21.57 9.93-21.57 22.4s8.49 22.4 21.57 22.4 21.57-9.93 21.57-22.4-8.49-22.4-21.57-22.4M366.61 61.48l-4.99 6.71V93h-27.23V1.02h27.23v36.05l23.59-33.53h33.3l-33.98 41.58L419.99 93h-33.17L366.6 61.48Z"/><path d="M244.16 46.27c0-27.63 21.3-46.27 49.48-46.27 23.59 0 35.46 13.68 40.85 26.02l-23.46 10.86c-2.29-6.97-9.3-13.01-17.39-13.01-13.08 0-21.84 9.93-21.84 22.4s8.76 22.4 21.84 22.4c8.09 0 15.1-6.04 17.39-13.01l23.46 10.73c-5.26 11.94-17.26 26.15-40.85 26.15-28.18 0-49.48-18.78-49.48-46.27M11.06 64.65c2.97 2.01 7.01 4.02 11.6 4.02 5.93 0 9.98-3.76 9.98-10.06V1.48h27.23v57.54c0 22.94-13.89 33.53-34.78 33.53-8.76 0-18.07-1.88-25.08-7.24l11.06-20.66Z"/></svg>