<svg xmlns="http://www.w3.org/2000/svg" data-name="Layer 1" viewBox="0 0 320 86" fill="currentColor"><path d="M26.16 40.09h-7.93L0 83.39h12.38l4.22-10.78c5.37.36 13.86 2.14 18.39 10.78h12.92S32.26 46.03 31.3 43.94c-.97-2.1-1.72-3.85-5.14-3.85m-5.61 22.39 3.3-8.45.06.15 3.9 10.07c-2.55-.91-5.04-1.45-7.27-1.77zM131.9 40.39h-12.06v24.2c0 6.02-3.12 8.85-7.89 8.85s-7.89-2.94-7.89-9.15v-20.4c0-.92-.25-3.5-2.88-3.5H92v24.14c0 13.45 7.65 19.66 19.83 19.66s20.07-6.09 20.07-19.96V40.4Zm127.35 24.2c0 6.02-3.12 8.85-7.89 8.85s-7.89-2.94-7.89-9.15v-20.4c0-.92-.25-3.5-2.88-3.5h-9.18v24.14c0 13.45 7.65 19.66 19.83 19.66s20.07-6.09 20.07-19.96V40.4h-12.06v24.2Zm48.2-24.2-10.22 16.65s-7.18-11.71-8.03-13.08c-.85-1.38-2.03-3.57-4.95-3.57h-9.8v42.99h11.63V58.81l10.89 16.7h.25l10.96-16.83v24.69h11.81V40.38h-12.55Zm-148.01 3.54c-.97-2.1-1.72-3.85-5.14-3.85h-7.93l-18.24 43.31h12.38l4.22-10.78c5.37.36 13.86 2.14 18.39 10.78h11.61v-3.11c-3.77-9.01-14.51-34.61-15.3-36.34ZM148.7 62.48l3.3-8.45.06.15 3.9 10.07c-2.55-.91-5.04-1.45-7.27-1.77zm26.05 20.9h11.87V70.86c3.78 0 13.23 6.62 13.82 12.52h13.71c-1.11-4.83-7.05-12.63-10.22-14.99 4.28-1.49 8.81-6.63 8.81-13.2v-.12c0-4.24-1.29-7.55-3.79-10.01-2.88-2.95-7.4-4.67-13.95-4.67h-20.26v42.99zm26.08-27.45c0 3.13-2.33 5.1-6.37 5.1h-7.84V50.71h7.77c3.97 0 6.43 1.72 6.43 5.1v.12zm15.11-15.54h11.93v42.99h-11.93zM89.61 61.6c0-12.44-9.87-22.42-23.19-22.42S43.1 49.27 43.1 61.72v.12c0 12.45 9.87 22.42 23.19 22.42 4.61 0 8.83-1.21 12.37-3.31-1.75-2.88-4.11-5.76-6.44-7.6-.41-.32-.84-.62-1.26-.88-1.35.62-2.88.95-4.54.95-6.54 0-11.04-5.45-11.04-11.7v-.12c0-6.25 4.38-11.58 10.91-11.58s11.1 5.45 11.1 11.7v.12c0 .81-.08 1.6-.21 2.36-6.44-1.43-14.63-.86-17.79 2.17 4.02-.11 11.53 3.69 15.55 7.05 4.01 3.35 7.27 8.65 7.86 12.57 2.36-3.5 4.47-8.88 3.97-13.35 1.81-3.23 2.83-6.96 2.83-10.93v-.12ZM11.07 34.55H4.98L20.28.02h4.11c1.14 0 2.18.67 2.64 1.72l14.4 32.81h-6.24L23.12 6.24 11.09 34.56h-.01ZM59.37.02c10.4 0 17.92 7.25 17.92 17.26s-7.58 17.26-18.07 17.26H45.16V.02zm-8.36 29.3h8.52c6.74 0 11.89-4.98 11.89-11.98S66.13 5.26 59.29 5.26h-8.27v24.08Zm41.21 5.23L78.4.02h4.38c1.15 0 2.18.7 2.6 1.78L95.4 28.09 106.19.02h6.09L98.26 34.55zm31.91-29.3v9.32h16.94v5.22h-16.94v9.52h19.51v5.22h-25.36V.01h24.76v5.22h-18.92Zm50.89 29.3L156.55 9.79v24.76h-5.84V.02H155c.92 0 1.77.43 2.32 1.16l17.7 23.65V.02h5.74v34.53zh.01Zm29.56-29.33v29.3h-5.84V5.22H187.8V0h27.77v5.22zm47.26 15.03c0 9.03-5.7 14.56-15.06 14.56s-15.1-5.53-15.1-14.56V.02h3.39c1.35 0 2.45 1.1 2.45 2.45v17.78c0 5.82 3.62 9.32 9.31 9.32s9.16-3.46 9.16-9.32V.02h5.84v20.23ZM273.54.02c8.71 0 13.71 4.3 13.71 11.79s-5 12.33-13.71 12.33h-7.97v10.4h-5.84V.02zm-7.97 18.9h7.72c5.35 0 8.36-2.27 8.36-6.96s-3.02-6.71-8.36-6.71h-7.72v13.66Zm34.92-13.67v9.32h16.94v5.22h-16.94v9.52H320v5.22h-25.36V.01h24.76v5.22h-18.92Z"/><path d="m16.58 19.93-2.59 5.91c5.55 0 15.95 1.2 21.19 8.72l2.97-.22 2.32-1.52c-6.12-11.57-17.43-12.88-23.88-12.88h-.01Zm265.05 5.86c-5.57-5.09-13.16-6.81-18.68-6.71l.27 4.9c8.77.17 15 3.86 17.62 10.46h6.9c-1.02-2.98-3.07-5.88-6.1-8.66Z"/></svg>