<svg fill="currentColor" xmlns="http://www.w3.org/2000/svg" data-name="uuid-bd8e5307-ed05-4305-9974-13dc2a9fc16a" viewBox="0 0 480 47"><path d="m46.96 12.92-1.23 7.14H27.7c-6.67 0-11.42 2.92-12.48 7.89l-.99 5.92c-.75 4.61 3.29 5.88 8.97 5.88h19.48l-.98 7.14H16.94c-11.5 0-18.32-2.13-16.69-12.66l1.49-8.88c1.92-9.47 9.9-12.42 25.44-12.42h19.79-.01Zm33.26 20.41-1.36 6.74H62.99c-2.65 0-4.66-.62-4.39-2.37.03-.15.34-1.72.36-1.87.36-1.64 2.56-2.49 5.2-2.49h16.06ZM51.83 12.87l-1.36 7.22h23.91c3.83 0 8.3 1.7 7.39 4.94l-.3 1.8H59.35c-7.5 0-11.52 1.06-12.71 6.87l-.88 5.15c-1.03 6.78 4.2 8.02 11.14 8.02h33.95l3.53-19.4c.79-4.75.9-8.33-2.78-11.37-4.01-3.32-15.52-3.23-15.52-3.23H51.83Zm344.31 20.46-1.36 6.74h-15.87c-2.65 0-4.66-.62-4.39-2.37.02-.15.34-1.72.36-1.87.36-1.64 2.56-2.49 5.2-2.49h16.06Zm-28.39-20.46-1.36 7.22h23.91c3.83 0 8.3 1.7 7.39 4.94l-.3 1.8h-22.13c-7.5 0-11.52 1.06-12.71 6.87l-.87 5.15c-1.03 6.78 4.2 8.02 11.14 8.02h34.19l3.23-19.4c.78-4.75.96-8.33-2.71-11.37-4.01-3.32-15.52-3.23-15.52-3.23h-24.26Zm-240.27 0c7.38 0 13.69-.15 17.29 3.81 2.08 2.27 2.61 4.16 2.1 7.01l-4.17 23.26H129l4.04-22.54c.44-2-1.84-4.09-6.07-4.09h-13.32l-4.79 26.55h-13.6l6.15-34.01h26.07Zm51.84 0c7.38 0 13.69-.15 17.29 3.81 2.08 2.27 2.61 4.16 2.1 7.01l-4.17 23.26h-13.7l4.04-22.54c.44-2-1.83-4.09-6.07-4.09h-13.32l-4.79 26.55h-13.6l6.15-34.01h26.07Zm108.83 0c7.38 0 13.69-.15 17.29 3.81 2.08 2.27 2.61 4.16 2.1 7.01l-4.17 23.26h-13.7l4.04-22.54c.44-2-1.83-4.09-6.07-4.09h-13.32l-4.79 26.55h-13.6l6.15-34.01h26.07Zm-57.87 7.16c8.13 0 12.7.71 11.74 6.15l-1.36 7.78c-1.01 5.31-6.25 5.68-14.19 5.68-6.6.05-13.45-.76-12.51-5.92l1.57-8.02c1.16-5.2 7.24-5.68 14.76-5.68h-.01ZM203 24.53l-2.19 11.6c-1.32 9.34 10.45 11 24.57 10.8 14.3-.25 25.65-.28 28.05-10.8l2.17-10.89c1.66-11.04-8.16-12.76-23.82-12.76-13.23 0-26.53.6-28.78 12.04Zm141.58 14.96h-11.69c-6.71 0-10.43-1.53-9.46-7.51l.96-4.89c1.12-4.7 5.72-7.14 12.18-7.14h11.59l-3.58 19.55ZM363.91.26h-12.2l-2.01 12.62h-16.07c-11.68 0-20.06 3.07-21.83 11.83l-1.9 11.2c-1.27 8.6 5.57 10.97 17.21 10.97h29.23L363.91.26ZM419.18 0h13.6l-7.82 47h-13.6l7.82-47Zm60.53 24.87s3.16-12.22-11.43-12.22h-13.41c-10.27 0-20.25 2.52-21.86 12.46l-1.66 8.99c-1.89 11.04 6.41 12.78 16.83 12.78h27.36l1.21-6.75h-26.13c-4.52 0-6.06-3.36-5.45-6.16h32.93l1.59-9.09h.02ZM453.77 20h7.42c8.83 0 5.56 6.75 5.56 6.75h-20.48c.62-3.31 2.77-6.75 7.5-6.75ZM368.18 3.88c.29-1.79 1.85-3.12 3.57-3.12s2.8 1.35 2.51 3.12c-.3 1.81-1.86 3.15-3.55 3.15s-2.83-1.34-2.53-3.15Zm2.43 3.77c2.04 0 4.04-1.59 4.39-3.78.35-2.16-1.12-3.76-3.16-3.76s-4.06 1.59-4.42 3.76c-.35 2.18 1.13 3.78 3.18 3.78h.01Zm-.23-3.47h.76l.83 1.89h.73l-.91-1.92c.65-.08 1.18-.42 1.32-1.2.14-.85-.3-1.24-1.32-1.24h-1.65l-.71 4.34h.66l.31-1.89-.02.02Zm.09-.56.22-1.35h.89c.45 0 .93.1.84.64-.11.67-.61.71-1.16.71h-.79Z"/></svg>