<svg fill="currentColor" xmlns="http://www.w3.org/2000/svg" data-name="uuid-18c07079-2809-4dd3-aba4-cf189ff5480e" viewBox="0 0 400 60"><path d="M103.71 11.91C100.1-.17 76.12-3.64 50.17 4.18c-1.22.36-2.43.76-3.62 1.17 23.2-5.4 43.37-1.85 46.55 8.82 3.51 11.68-14.68 27.48-40.64 35.28-.6.18-1.17.35-1.77.51L62.78 8.11h-.06.03l-3.17.22c-5.93.59-12.24 1.82-18.69 3.77C14.93 19.91-3.17 36.02.46 48.11c3.61 12.07 27.6 15.52 53.55 7.72 1.22-.37 2.43-.76 3.62-1.16-23.21 5.38-43.37 1.83-46.57-8.81-3.5-11.69 14.69-27.5 40.66-35.3.55-.16 1.09-.32 1.63-.48L41.43 51.89l3.16-.21c5.93-.59 12.24-1.84 18.69-3.77 25.95-7.81 44.04-23.93 40.42-36h.01ZM124.19 25.26c2.92-.31 5.99-.47 9.17-.47 5.48 0 9.76.65 12.53 2.1 2.87 1.4 4.53 3.47 4.53 6.4 0 4.09-2.77 7.77-6.95 9.84-3.92 1.94-8.91 2.78-16.26 2.78-4.08 0-7.6-.22-9.32-.4l6.3-20.26Zm2.06 16.91c.86.09 1.91.12 3.17.12 3.93 0 7.4-.84 9.61-2.41 2.32-1.61 3.52-3.81 3.52-6.43 0-3.31-2.92-5.1-8.81-5.1-1.41 0-2.47.06-3.22.16l-4.28 13.67Zm44.3-1.82-3.98 5.41h-7.75l16.56-20.85h9.32l3.93 20.85h-7.6l-.71-5.41h-9.77Zm9.47-3.4-.66-4.49c-.15-1.15-.3-2.81-.46-4.09h-.15c-.86 1.27-1.81 2.88-2.72 4.09l-3.32 4.49h7.31Zm23.36 8.81 6.44-20.85h8.51l4.48 7.95c1.36 2.66 2.27 4.83 3.07 7.12h.15c.15-2.13.66-4.43 1.56-7.49l2.32-7.58h6.8l-6.44 20.85h-7.5l-4.73-8.32c-1.51-2.84-2.42-4.74-3.32-7.27h-.15c-.35 2.04-1.15 4.98-2.17 8.29l-2.27 7.3h-6.75Zm53.96-5.41-3.98 5.41h-7.75l16.56-20.85h9.32l3.93 20.85h-7.6l-.71-5.41h-9.77Zm9.46-3.4-.66-4.49c-.15-1.15-.3-2.81-.46-4.09h-.15c-.86 1.27-1.81 2.88-2.72 4.09l-3.32 4.49h7.31Zm37.06-12.03-2.52 8.11h12.28l2.52-8.11h7.3L317 45.77h-7.25l2.67-8.78h-12.33l-2.67 8.78h-7.25l6.44-20.85h7.25Zm52.96 11.96h-12.03l-1.56 5.07h13.55l-1.2 3.81h-20.79l6.44-20.85h20.08l-1.2 3.81h-12.79l-1.41 4.43h12.13l-1.2 3.73h-.02Zm21.44-11.57c2.27-.34 5.68-.53 9.06-.53s6.55.28 8.91 1.21c2.22.81 3.77 2.1 3.77 4.05 0 3.09-3.32 5.01-7.7 5.87V36c2.01.56 2.92 1.91 3.22 3.81.46 2.35.71 5.07 1.31 5.94h-7.45c-.3-.56-.66-2.35-.96-4.92-.35-2.53-1.76-3.31-4.63-3.31h-2.22l-2.52 8.23h-7.15l6.35-20.44h.01Zm4.43 8.89h2.97c3.93 0 6.8-1.46 6.8-3.5 0-1.67-2.27-2.41-5.19-2.41-1.36 0-2.22.06-2.82.16l-1.76 5.75Z"/></svg>