<svg xmlns="http://www.w3.org/2000/svg" data-name="Layer 1" viewBox="0 0 420 120" fill="currentColor"><path d="M91.43 79.71c-.17 1.26-.34 2.53-.48 3.79-.38 3.42-1.49 6.64-2.72 9.84-1.26 3.24-2.81 6.36-4.74 9.25-1.6 2.41-3.51 4.62-5.65 6.61-3.41 3.16-7.17 5.74-11.57 7.33-2.17.79-4.43 1.24-6.66 1.81-1.99.52-4 .9-6.03 1.19-2.06.29-4.14.41-6.23.41-15.49 0-30.96.03-46.44.07-.77-.01-.91-.23-.91-.94.03-23.74 0-47.49 0-71.24 0-.55.04-.86.74-.94 3.77-.51 7.56-.77 11.36-.88 4.52-.14 9.02-.08 13.52.17.77.04.95.25.94 1.01-.03 19.94-.01 39.89-.01 59.83 0 .76.38 1.14 1.15 1.14h27.71c.8 0 .93-.21.93-1-.03-2.27-.74-4.51-.34-6.79.03-.18-.04-.41-.11-.6-.08-.27-.17-.6-.55-.59-.41 0-.39.36-.45.65-.04.22 0 .48-.06.7-.13.58-.59.9-1.04 1.12-.38.2-.6-.27-.81-.52-.55-.6-1.08-.69-1.75-.17-.41.31-.88.52-1.32.76-.2-.17 0-.27-.03-.34-.55-.95.38-1.16.8-1.64.63-.7 1.52-1.25 1.36-2.39 0-.13.03-.24.17-.27.97-.17.62-.72.42-1.28-.31-.88 0-1.25.94-1.16.63.06 1.25.22 1.94.62-.11-2.04.13-3.92-.22-5.8-.1-.55-.35-.86-.95-.7-1.87.48-3.18-.28-4.32-1.74-1.19-1.56-2.53-3-3.82-4.48-.52-.6-.87-1.25-.77-2.06.27-2.64-1.08-4.65-2.65-6.53-.63-.74-.98-1.5-1-2.44-.01-.91-.1-1.81-.31-2.69-.17-.66-.2-1.35.03-1.99.69-2.05.43-4.01-.42-5.96-.32-.72-.66-1.43-1.08-2.2-.28-.52-.62-1.07-1.19-1.24-.88-.25-1.09-.87-1.32-1.64-.49-1.67-1.26-3.2-2.53-4.45-.77-.77-.91-3.1-.29-4.06.25-.38.59-.18.87-.14 4.29.59 8.56 1.39 12.77 2.44 7.16 1.8 14.06 4.27 20.6 7.69 4.45 2.33 8.66 5.02 12.57 8.18q2.835 2.28 5.43 4.8c1.5 1.46 2.88 3.05 4.32 4.56.21.21.22.45.22.72 0 .49.03 1 .04 1.49-.03.9-.04 1.78-.06 2.68M382.8 64.27V44.03c0-.67-.17-.88-.87-.88-10.38.03-20.76-.04-31.15.06-4.18.04-8.35.42-12.5.95-2.55.32-5.11.72-7.65 1.16-1.57.27-3.11.74-4.69 1.04-1.89.35-3.79.74-5.64 1.26-2.4.66-4.8 1.33-7.13 2.16-2.37.84-4.76 1.67-7.1 2.6-3.66 1.46-7.25 3.05-10.77 4.79-.22.11-.48.15-.81.27V33.26c0-.86.27-1.19 1.09-1.53 3.03-1.25 6.12-2.36 9.2-3.47 2.54-.91 5.15-1.61 7.74-2.34 6.12-1.73 12.32-3.07 18.62-4 6.15-.91 12.3-1.63 18.52-1.7 10.7-.11 21.4-.07 32.1-.06.83 0 1.08-.18 1.07-1.04-.04-6.02-.03-12.06-.03-18.08V0c1.35 1.15 2.57 2.18 3.79 3.23 4.05 3.49 8.08 6.99 12.14 10.48 2.47 2.13 4.97 4.25 7.44 6.39 3.51 3.02 7 6.05 10.51 9.05 1.01.87 2.02 1.74 3.06 2.58.42.34.27.55-.04.81a1449 1449 0 0 0-8.99 7.74c-1.95 1.67-3.9 3.34-5.84 5.02-1.64 1.42-3.27 2.88-4.91 4.29-1.84 1.59-3.7 3.12-5.54 4.7-1.54 1.32-3.06 2.67-4.59 3.99l-7 6.01"/><path d="M229.84 21.12c7.69 0 15.36-.04 23.04 0 5.54.03 11.04.39 16.48 1.54 4.18.88 8.03 2.53 11.29 5.29 2.22 1.88 4.05 4.15 5.42 6.72.74 1.38.72 1.42-.7 2.01-3.94 1.66-7.66 3.75-11.35 5.89-2.82 1.64-5.6 3.35-8.31 5.15-1.33.88-2.69 1.73-3.98 2.67-.62.45-.84.42-1.16-.31-1.45-3.23-3.8-5.66-6.85-7.38-1.21-.69-2.62-.88-3.98-1.12-1.8-.32-3.63-.48-5.46-.49-4.19 0-8.39.03-12.58-.01-.87 0-1.04.27-1.04 1.08.07 9.21.07 18.41.15 27.64 0 .86-.21 1.29-1.05 1.57-2.89.97-5.78 1.92-8.73 2.75-2.17.6-4.43.9-6.62 1.45-1.89.46-3.82.84-5.74 1.12-2.74.41-5.51.51-8.26.73-.36.03-.56-.08-.52-.49v-.44c0-18.11 0-36.2-.03-54.3 0-.93.27-1.09 1.12-1.09 9.61.03 19.23.01 28.85.01m-90.29 25.81c-.29.98-.53 1.73-.76 2.47-1.8 6.01-3.61 12.01-5.39 18.02-.21.72-.41.88-1.19.48-1.35-.69-2.83-1.11-4.24-1.67-2.51-1-4.94-2.13-7.38-3.28-2.51-1.19-4.88-2.64-7.28-4.03-1.01-.59-2.01-1.24-3-1.87-.62-.39-.65-.74-.39-1.36 1.37-3.49 2.71-6.99 4.04-10.5 1.05-2.76 2.03-5.56 3.1-8.32 1.59-4.11 3.2-8.21 4.8-12.31.32-.84.66-1.68.9-2.55.18-.69.53-.87 1.22-.87 9.44.01 18.88 0 28.33 0h3.77c.41 0 .62.1.77.52 1.94 5.08 3.9 10.13 5.84 15.21 1.71 4.45 3.38 8.91 5.09 13.38 2.27 5.94 4.55 11.86 6.82 17.78.98 2.57 1.94 5.14 2.9 7.71.29.8.2.88-.65.79-1.14-.13-2.31-.1-3.44-.32-1.98-.39-4-.48-5.99-.74-1.89-.25-3.82-.39-5.71-.65-1.92-.27-3.83-.58-5.72-.93s-3.77-.8-5.67-1.21c-.9-.2-1.8-.44-2.69-.65-.42-.1-.48-.45-.59-.79-2.29-7.45-4.57-14.89-6.87-22.33-.18-.58-.36-1.14-.63-1.95m213.16 37.39c0 11.52 0 23.05.03 34.57 0 .91-.25 1.09-1.12 1.08-9.53-.03-19.07-.03-28.59 0-.77 0-1.04-.17-1.04-1 .03-21.99.03-43.99 0-65.98 0-.74.22-1.02.93-1.15 3.58-.67 7.18-1.18 10.8-1.63 4.49-.56 9.01-.84 13.51-1.32 1.63-.17 3.25-.24 4.9-.35.39-.03.63.06.59.51v35.27"/><path d="M199.9 92.52V81.73c0-.58.1-.83.76-.84 1.16-.04 2.31-.34 3.47-.42 2.06-.15 4.1-.38 6.12-.73.87-.15 1.71-.45 2.6-.58 6.54-.91 12.82-2.81 18.97-5.19 5.08-1.98 9.95-4.38 14.55-7.31 4.55-2.89 8.81-6.2 13.2-9.32 6.17-4.38 12.35-8.73 18.79-12.69 2.9-1.78 5.84-3.51 8.85-5.09.66-.35.83-.27 1.02.46 1.12 4.17 1.39 8.38.88 12.65-.42 3.59-1.4 7.03-3.35 10.13-1.04 1.66-2.57 2.85-4.03 4.07-2.36 1.96-4.81 3.82-7.32 5.59-2.02 1.43-4.01 2.88-6.06 4.25-3.51 2.37-7.07 4.65-10.69 6.82-2.83 1.71-5.71 3.34-8.63 4.91-2.3 1.24-4.66 2.33-7 3.45-2.33 1.14-4.77 2.04-7.2 2.96-2.62 1.01-5.28 1.96-7.94 2.91-1.78.63-3.58 1.22-5.39 1.75-2.67.8-5.33 1.59-8.04 2.27-2.92.74-5.85 1.43-8.82 1.92-1.42.24-2.86.35-4.29.52-.25.03-.39-.08-.42-.32s-.03-.46-.03-.7V92.49M26.28 21.18c7.37 0 14.72-.06 22.08.01 5.95.07 11.81.86 17.41 2.93 3.66 1.36 7.01 3.34 10.05 5.84 4.22 3.49 7.44 7.79 9.86 12.66 1.8 3.59 3 7.4 3.86 11.31 1.07 4.97 1.66 9.99 1.64 15.07 0 .24.14.59-.15.72-.27.1-.35-.24-.51-.39A64.5 64.5 0 0 0 77.98 58.8c-2.9-1.87-5.95-3.49-8.99-5.14-6.96-3.75-14.39-6.15-22.05-7.92-3.83-.88-7.7-1.49-11.6-1.98-.91-.11-1.59-.81-1.81-1.85-.2-.93.1-1.82.91-2.27 2.55-1.43 4.01-3.65 4.77-6.4.32-1.15 1.09-1.82 2.31-1.96.24-.03.59.07.67-.25.07-.28-.24-.44-.41-.63-2.86-3.28-8.26-3.3-11.42-1.59-1.82.98-2.71 2.78-3.72 4.45-.13.2-.07.51-.07.77 0 2.72-.01 5.45 0 8.15 0 .62-.11.86-.81.83-6.92-.32-13.83-.15-20.72.59-1.39.15-2.81.27-4.18.6-.53.13-.86.04-.86-.67.03-7.19.03-14.39 0-21.57 0-.73.28-.86.93-.86 8.45.01 16.89 0 25.34 0v.04M186.62 104.46c-1.7-.07-3.48-.24-5.26-.21-2.33.04-4.64-.14-6.96-.35-2.48-.22-4.97-.59-7.45-.88-2.02-.24-4.07-.38-6.07-.7-3.18-.52-6.38-.97-9.54-1.7-2.27-.52-4.59-.86-6.86-1.43-2.61-.67-5.25-1.21-7.83-1.96-5.13-1.49-10.27-3.06-15.26-4.98-3.75-1.45-7.46-2.98-11.08-4.7-3.3-1.57-6.51-3.31-9.64-5.21-.42-.25-.39-.6-.25-.98 1.95-5.12 3.91-10.25 5.85-15.38.63-1.67 1.23-3.37 1.84-5.05.35-.97.45-1.01 1.3-.42 6.13 4.2 12.78 7.37 19.7 10.04 5.88 2.26 11.9 4.04 18 5.56 4.34 1.07 8.7 1.99 13.1 2.69 4.24.67 8.49 1.31 12.77 1.67 1.74.14 3.49.34 5.25.44.73.04 1.11.14 1.37 1 .73 2.34 1.68 4.63 2.54 6.93 1.81 4.79 3.62 9.59 5.44 14.37.49 1.29.52 1.28-.94 1.28M279.98 119.97c-5.43 0-10.85-.01-16.27.01-.79 0-1.21-.22-1.56-.93-1.36-2.71-2.78-5.39-4.21-8.06-1.88-3.54-3.79-7.06-5.68-10.58-1.07-1.99-2.13-4-3.21-5.99-.28-.52-.34-.81.31-1.18 6.37-3.64 12.8-7.2 18.91-11.26 1.11-.73 2.24-1.4 3.34-2.15.53-.36.91-.39 1.47 0 2.02 1.39 3.45 3.33 5.02 5.15 3.1 3.55 5.16 7.72 7.28 11.87 2.85 5.6 5.77 11.17 8.66 16.76l2.86 5.52c.3.57.14.86-.49.86h-16.44M101.56 119.97H86.87c-.72 0-1-.03-.66-.91 1.43-3.8 2.92-7.59 4.42-11.37 1.67-4.22 3.24-8.49 4.85-12.73 1.16-3.03 2.36-6.05 3.49-9.09.22-.62.42-.59.91-.28 3.25 1.96 6.61 3.75 10.03 5.38 4.42 2.11 8.97 3.93 13.57 5.59.69.25.73.49.52 1.11-.9 2.71-1.81 5.43-2.62 8.17-1.33 4.51-2.61 9.02-3.9 13.54-.17.6-.56.62-1.07.6h-14.87M215.26 119.97h-14.51c-.58 0-.9-.04-.91-.77-.03-3.79-.1-7.59-.2-11.4 0-.58.17-.69.67-.72 6.13-.46 12.09-1.78 17.96-3.62 2.05-.65 4.12-1.18 6.19-1.78 1.85-.55 3.7-1.11 5.54-1.67.32-.1.49-.1.51.29 0 .55.1 1.09.1 1.66.04 5.7.06 11.4.11 17.09 0 .73-.2.93-.93.93-4.84-.03-9.68-.01-14.51-.01M157.34 105.42c.88-.14 1.68.21 2.5.35 5.29.86 10.61 1.39 15.94 1.91 4.22.41 8.47.52 12.71.67.38 0 .55.11.7.48 1.49 3.55 3 7.07 4.5 10.61.18.44.03.58-.41.55-.2-.01-.41 0-.62 0-9.96 0-19.94 0-29.91.01-.83 0-1.12-.21-1.39-1.05-1.4-4.48-2.68-8.98-4.01-13.52"/></svg>