<svg fill="currentColor" xmlns="http://www.w3.org/2000/svg" data-name="uuid-f2110dea-d121-40b8-a980-325c683153b1" viewBox="0 0 400 400"><path d="M200 400C89.74 400 0 310.8 0 199.98S89.74 0 200 0s200 89.74 200 199.98S310.25 400 200 400Zm0-390.59C94.73 9.41 9.4 94.73 9.4 199.98S94.73 390.56 200 390.56s190.57-85.31 190.57-190.58S305.27 9.41 200 9.41ZM369.49 257c-.09.17-.41.43-1.04.21-.45-.17-.61-.42-.58-.71.03-.33 6.7-20.04 6.64-42.65-.06-24.39-9.97-39.35-22.7-39.35-7.77 0-13.31 5.55-13.31 13.85 0 14.97 18.27 16.07 18.27 48.76 0 13.3-2.75 26.03-7.21 39.88-20.48 69.25-85.87 101.4-149.57 101.4-29.37 0-50.24-6.05-56.46-8.85-.24-.13-.45-.6-.26-1.11.15-.36.58-.65.82-.54 2.52.98 20.45 6.61 42.61 6.61 24.38 0 38.78-9.98 38.78-22.16 0-7.76-6.09-13.85-13.85-13.85-14.97 0-16.08 18.83-48.2 18.83-13.85 0-26.04-2.78-40.44-7.21-68.7-21.05-101.44-85.86-101.4-150.13.04-31.29 8.79-56.21 8.94-56.45.11-.18.51-.34 1-.18.48.18.61.59.58.73-.81 2.6-6.63 20.46-6.63 42.6 0 24.39 9.97 38.79 22.71 38.79 7.19 0 13.3-5.54 13.3-13.3 0-14.96-18.29-16.61-18.29-48.76 0-13.84 2.78-26.04 7.21-40.45C71.47 54.29 136.28 22.08 200 21.6c29.6-.23 55.53 8.64 56.51 9.41.17.15.37.54.17 1-.2.52-.57.58-.74.56-.31-.04-17.16-7.08-42.66-7.08-23.8 0-38.77 9.98-38.77 22.72 0 7.19 5.53 13.28 13.84 13.28 14.97 0 16.07-18.27 48.21-18.27 13.84 0 26.03 2.76 40.44 7.19 69.25 21.06 100.77 86.44 101.38 149.58.3 32.36-8.81 56.84-8.9 57.02Zm-95.24-47.58c-18.84 0-33.25 13.84-33.25 30.48 0 13.84 8.3 24.92 19.4 24.92 3.87 0 7.74-2.22 7.74-7.19 0-7.21-9.55-8.95-8.82-19.74.49-7.1 7.16-11.86 13.81-11.86 13.31 0 19.52 12.89 19.52 26.18-.56 20.5-15.63 34.76-33.36 34.76-23.27 0-38.23-22.15-38.23-45.98 0-35.46 23.28-49.31 35.46-52.63.12 0 31.87 5.67 30.87-8.32-.45-6.15-9.58-8.51-16.23-8.77-7.37-.3-14.76 2.35-14.76 2.35-3.86-1.94-6.54-5.76-8.2-10.19 22.71-17.17 38.77-33.8 38.77-52.62 0-9.98-6.64-18.85-19.37-18.85-22.73 0-39.89 28.82-39.89 54.85 0 4.44 0 8.87 1.1 12.75-14.41 10.53-25.12 17.05-44.5 28.7 0-2.44.49-8.68 2.13-16.79 6.66-7.21 15.78-18 15.78-26.3 0-3.87-2.22-7.22-6.67-7.22-11.07 0-19.37 16.63-21.59 28.27-4.99 6.1-14.96 13.86-23.27 13.86-6.65 0-8.87-6.1-9.43-8.32 21.08-7.21 47.1-36.02 47.1-62.06 0-5.53-2.22-17.73-18.82-17.73-24.94 0-45.99 37.12-45.99 65.93-8.88 0-12.18-9.41-12.18-16.61s2.77-14.41 2.77-16.63-1.12-4.98-4.46-4.98c-8.3 0-13.29 11.07-13.29 23.82.56 17.72 12.2 28.81 27.71 29.92 2.21 10.52 11.64 20.49 23.26 20.49 7.21 0 16.07-2.21 22.17-7.75-.57 3.87-1.1 7.21-1.67 10.53-24.38 12.75-42.12 21.61-58.2 36-12.73 11.65-19.93 27.15-19.93 39.34 0 16.62 10.54 32.12 32.12 32.12 25.5 0 44.88-20.49 54.31-48.74 4.43-13.3 6.21-32.64 7.31-50.38 25.49-14.41 37.57-22.74 50.85-32.17 1.68 2.76 3.34 4.98 5.57 6.65-11.65 6.1-39.36 23.27-39.36 63.71 0 28.81 19.39 60.93 57.64 60.93 31.57 0 53.19-26.03 53.19-50.96 0-22.71-12.75-43.76-37.12-43.76h.01Zm-152.38 77.54c-8.29.38-13.83-4.93-13.83-13.79 0-23.82 33.02-46.56 57.95-58.74-4.44 33.23-15.64 71.23-44.12 72.53Zm18.29-130.73c0-18.3 18.04-53.06 29.07-49.37 13.03 4.34-10.79 39.39-29.07 49.37Zm104.71-8.3c0-22.73 15.4-44.81 23.78-40.62 9.57 4.79-7.16 26.2-23.78 40.62Z"/></svg>