<svg fill="currentColor" xmlns="http://www.w3.org/2000/svg" data-name="uuid-40108bed-e441-4fb3-a742-cffca15651b4" viewBox="0 0 400 50"><path fill-rule="evenodd" d="M392.87 50c-1.21 0-2.23-.93-2.23-2.21s1.02-2.2 2.23-2.2 2.22.93 2.22 2.2-1.02 2.21-2.22 2.21Zm-1.79-2.21c0 1.06.78 1.84 1.79 1.84s1.78-.78 1.78-1.84-.79-1.83-1.78-1.83-1.79.79-1.79 1.83Zm1.33.18v1.1h-.38v-2.55h.97c.6 0 .9.22.9.72 0 .46-.28.65-.66.7l.72 1.12h-.43l-.67-1.1h-.45Zm0-.33h.46c.33 0 .62-.02.62-.42 0-.31-.28-.37-.55-.37h-.52v.79h-.01Zm-6.4 2.24V36.02H400V13.86h-13.99V0h-22.3v13.86h-13.99v22.16h13.99v13.86h22.3ZM0 2.88h8.03v36.59H0V2.88Zm13.62 8.52h7.28l.37 3.24c2.06-2.14 5.07-3.92 8.6-3.92 6.34 0 9.03 3.87 9.03 10.19v18.56h-7.76V20.7c0-2.51-1.06-4.24-3.7-4.24-2.38 0-4.43 1.2-6.12 3.29v19.71h-7.71V11.4h.01Zm29.11 13.7c0-9.46 4.43-14.32 11.03-14.32 3.11 0 6.02 1.46 8.13 3.76V0h7.76v39.47h-6.86l-.48-3.29c-2.22 2.3-4.96 3.92-8.71 3.92-6.39 0-10.88-5.12-10.88-15Zm19.16 6.38V19.56c-1.69-1.88-3.59-2.93-5.86-2.93-3.75 0-5.54 2.98-5.54 8.52s1.79 9.1 5.54 9.1c2.32 0 4.12-.84 5.86-2.77Zm25.79-20.75c8.13 0 12.62 5.28 12.62 12.81 0 1.1-.11 2.56-.26 3.4H81.35c.42 4.76 2.69 7.11 6.97 7.11 2.85 0 5.49-.94 7.87-2.4l3.22 4.86c-3.49 2.41-7.44 3.66-11.67 3.66-8.34 0-14.25-5.49-14.25-14.9s6.34-14.53 14.2-14.53h-.01ZM81.5 22.54h11.46c0-3.55-1.37-6.27-5.07-6.27-3.17 0-5.65 2.2-6.39 6.27Zm30.44 27.39h-7.66V11.4h6.97l.58 3.4c2.16-2.46 5.02-4.02 8.29-4.02 6.55 0 10.98 4.86 10.98 14.32s-4.49 15-10.82 15c-3.54 0-6.23-1.52-8.34-3.61v13.44Zm5.86-15.68c3.75 0 5.6-3.61 5.6-9.1s-1.85-8.52-5.6-8.52c-2.27 0-4.17 1.04-5.86 2.93v11.92c1.8 1.93 3.54 2.77 5.86 2.77Zm30.13-23.52c8.13 0 12.62 5.28 12.62 12.81 0 1.1-.11 2.56-.26 3.4H141.6c.42 4.76 2.69 7.11 6.97 7.11 2.85 0 5.49-.94 7.87-2.4l3.22 4.86c-3.49 2.41-7.44 3.66-11.67 3.66-8.34 0-14.25-5.49-14.25-14.9s6.34-14.53 14.2-14.53Zm-6.18 11.81h11.46c0-3.55-1.37-6.27-5.07-6.27-3.17 0-5.65 2.2-6.39 6.27Zm22.76-11.13h7.29l.37 3.24c2.06-2.14 5.07-3.92 8.61-3.92 6.34 0 9.03 3.87 9.03 10.19v18.56h-7.76V20.71c0-2.51-1.06-4.24-3.7-4.24-2.38 0-4.44 1.2-6.12 3.29v19.71h-7.71V11.4Zm29.11 13.7c0-9.46 4.44-14.32 11.03-14.32 3.12 0 6.02 1.46 8.13 3.76V0h7.76v39.47h-6.86l-.48-3.29c-2.22 2.3-4.96 3.92-8.71 3.92-6.39 0-10.88-5.12-10.88-15h.01Zm19.17 6.38V19.57c-1.69-1.88-3.59-2.93-5.86-2.93-3.75 0-5.54 2.98-5.54 8.52s1.79 9.1 5.54 9.1c2.32 0 4.12-.84 5.86-2.77Zm25.79-20.75c8.13 0 12.62 5.28 12.62 12.81 0 1.1-.1 2.56-.26 3.4h-18.69c.42 4.76 2.69 7.11 6.97 7.11 2.85 0 5.49-.94 7.87-2.4l3.22 4.86c-3.49 2.41-7.44 3.66-11.67 3.66-8.34 0-14.25-5.49-14.25-14.9s6.34-14.53 14.2-14.53Zm-6.18 11.81h11.46c0-3.55-1.37-6.27-5.07-6.27-3.17 0-5.65 2.2-6.39 6.27Zm22.76-11.13h7.29l.37 3.24c2.06-2.14 5.07-3.92 8.6-3.92 6.34 0 9.03 3.87 9.03 10.19v18.56h-7.76V20.72c0-2.51-1.06-4.24-3.69-4.24-2.38 0-4.43 1.2-6.13 3.29v19.71h-7.71V11.4v.02Zm43.31-.63c3.43 0 6.92 1.04 10.03 3.45l-3.91 4.97c-1.64-1.25-3.54-2.19-5.91-2.19-3.75 0-6.81 2.93-6.81 8.26s3.01 8.68 6.81 8.68c2.53 0 4.22-.89 5.96-2.3l4.22 4.44c-3.11 2.72-6.39 4.02-10.4 4.02-8.24 0-14.41-5.49-14.41-14.85s6.13-14.48 14.41-14.48h.01Zm24.76-.05c8.13 0 12.62 5.28 12.62 12.81 0 1.1-.1 2.56-.26 3.4H316.9c.42 4.76 2.69 7.11 6.97 7.11 2.85 0 5.49-.94 7.87-2.4l3.22 4.86c-3.48 2.41-7.44 3.66-11.67 3.66-8.34 0-14.25-5.49-14.25-14.9s6.33-14.53 14.2-14.53Zm-6.18 11.81h11.46c0-3.55-1.37-6.27-5.07-6.27-3.17 0-5.65 2.2-6.39 6.27Z"/><path fill="#fff" d="m361.95 20.15 9.28.89c1.74.24 1.94 1.91 1.48 2.91l-6.35 11.81v-.02c-3.22-2.51-5.29-6.4-5.29-10.77 0-1.7.31-3.33.89-4.83h-.01Zm1.04 4.83c0 2.93 1.08 5.61 2.87 7.68l4.92-9.3c.12-.29.08-.5-.43-.54l-7.02-.64c-.22.9-.34 1.84-.34 2.8Zm24.84-4.83c.57 1.5.88 3.13.88 4.83 0 4.37-2.07 8.26-5.29 10.77v.02l-6.35-11.81c-.46-1-.26-2.68 1.48-2.91l9.28-.89Zm-1.37 2.03-7.02.64c-.51.04-.54.25-.43.54l4.92 9.3c1.79-2.06 2.87-4.74 2.87-7.68 0-.97-.12-1.91-.34-2.8ZM374.9 38.67c-2.81 0-5.42-.83-7.6-2.25s6.74-9.97 6.74-9.97c.5-.7 1.25-.64 1.72 0l6.74 9.98c-2.26 1.47-4.9 2.24-7.6 2.24m.19-9.96c-.11-.14-.26-.15-.39 0l-4.65 7.04c1.48.65 3.12 1.02 4.84 1.02s3.36-.36 4.84-1.02l-4.65-7.04c-.13-.15-.28-.14-.39 0m9.24-11.39h-6.22c-.11-.03-.17-.16-.05-.29.66-.71 1.23-2.22.53-3.38 2.26.65 4.25 1.94 5.74 3.66Zm-9.05-6.03c-5.54 0-10.33 3.23-12.53 7.9h9.84c1.4-.03 2.02-.84 2.05-1.5.03-.79-.09-1.03-.74-1.87-.71-.94-.22-2.75 1.38-2.78 1.61.03 2.1 1.84 1.38 2.78-.65.84-.78 1.09-.74 1.87.03.66.65 1.47 2.05 1.5h9.84c-2.2-4.67-6.99-7.9-12.53-7.9Zm-3.31 2.36c-.7 1.16-.13 2.66.53 3.38.12.12.06.25-.05.28h-6.22a11.97 11.97 0 0 1 5.74-3.66Z"/></svg>