<svg xmlns="http://www.w3.org/2000/svg" data-name="Layer 1" viewBox="0 0 120 28" fill="currentColor"><path d="M12.41 16.51c0 2.9-1.51 5.82-6.25 5.82-3.93 0-6.16-2.21-6.16-6.21v-1.31h2.81v.9c0 2.48.66 4.24 3.4 4.24 2.58 0 3.38-1.49 3.38-3.85V.51h2.81v16zm17.31-9.59c-.59-3.02-2.99-4.54-5.91-4.54-5.02 0-7.16 4.19-7.16 8.63 0 4.86 2.13 8.93 7.19 8.93 3.7 0 5.84-2.63 6.09-6.15h2.81c-.53 5.32-3.81 8.54-9.15 8.54-6.57 0-9.76-4.9-9.76-11.1S17.31 0 23.82 0c4.41 0 8.05 2.39 8.7 6.93h-2.81.01ZM33.93.51h9.26c4.2 0 6.48 2.35 6.48 6.3s-2.28 6.33-6.48 6.29h-6.45v8.72h-2.81zm2.81 10.2h5.5c3.17.03 4.61-1.36 4.61-3.91s-1.44-3.91-4.61-3.91h-5.5v7.83Zm26.19 6.21c-.68 3.41-3.1 5.25-6.54 5.25-4.88 0-7.19-3.41-7.34-8.12 0-4.63 3.01-8.03 7.19-8.03 5.41 0 7.07 5.11 6.92 8.84H51.71c-.09 2.69 1.42 5.08 4.77 5.08 2.07 0 3.52-1.01 3.97-3.02h2.5Zm-2.42-4.3c-.12-2.42-1.92-4.35-4.41-4.35-2.63 0-4.2 2-4.38 4.35zm3.79-6.24h2.37v2.44h.06c1.07-1.91 2.78-2.81 4.97-2.81 4.02 0 5.27 2.33 5.27 5.64V21.8h-2.51V11.35c0-1.88-1.19-3.11-3.1-3.11-3.05 0-4.52 2.05-4.52 4.84v8.72h-2.51V6.38zm14.31 0h2.37v2.44h.05C82.1 6.91 83.81 6.01 86 6.01c4.02 0 5.27 2.33 5.27 5.64V21.8h-2.51V11.35c0-1.88-1.19-3.11-3.1-3.11-3.05 0-4.53 2.05-4.53 4.84v8.72h-2.51V6.37Zm27.7 10.54c-.68 3.41-3.1 5.25-6.53 5.25-4.88 0-7.19-3.41-7.33-8.12 0-4.63 3.01-8.03 7.19-8.03 5.41 0 7.07 5.11 6.92 8.84H95.11c-.09 2.69 1.42 5.08 4.77 5.08 2.07 0 3.52-1.01 3.97-3.02h2.49-.01Zm-2.43-4.3c-.12-2.42-1.92-4.35-4.41-4.35-2.64 0-4.2 2-4.38 4.35z"/><path d="M113.33 23.88c-1.16 3.02-2.19 4.12-4.44 4.12-.59 0-1.19-.06-1.74-.27V25.4c.48.14.98.35 1.48.35 1.03 0 1.6-.51 2.06-1.4l1.04-2.63-6.07-15.34h2.85L112.98 19h.06l4.29-12.62H120l-6.66 17.5z"/></svg>