<svg xmlns="http://www.w3.org/2000/svg" data-name="Layer 1" viewBox="0 0 420 68" fill="currentColor"><path d="M44.11 20.15c-.79-.65-1.74-1.32-2.71-1.6l-1.54 31.59 7.75-21.83c.73-3.32-1.1-6.09-3.5-8.14v-.03Zm-12.78-1.89 4.55 31.53 4.45-31.5c-2.6-1.03-6.01-1.16-9-.03m-3.79 1.87c-2.4 2.05-4.23 4.81-3.5 8.14l7.75 21.83-1.54-31.59c-.97.29-1.94.98-2.71 1.6v.03Zm-15.6 2.99c5.17 9.21 10.43 19.04 15.6 27.87-1.83-7.71-3.7-20.53-6.34-24.15-3.06-4.33-9.29-3.74-9.29-3.74l.02.03Zm-9.18 4.61 21.19 24.88-13.14-29.36c-3.41.13-6.32 1.89-8.05 4.48m44.33 6.74-3.5 17.06c4.54-7.96 9-15.81 13.36-23.79-4.18.31-8.48 1.94-9.84 6.73zm11.09-6.74L47.02 53.01l19.61-21.72c-2.24-2.39-5.17-3.5-8.45-3.54v-.03ZM.03 38.99c6.89 5.4 13.73 10.94 20.69 16.3L2.08 28.58C.37 31.59-.15 35.11.03 38.99m69.03-4.61c-.42-.85-.9-1.63-1.63-2.29l-16.9 23.48c6.71-5.08 13.2-10.26 19.68-15.45.07-2.05-.26-4.04-1.14-5.75v.03ZM.08 49.85l18.03 8.42c-5.97-6.03-12-11.9-18.03-17.88zm70.12.63v-8.61L53.16 58.61c5.79-2.68 11.13-5.3 17.04-8.14ZM.03 58.23c5.44 1.2 11.33 2.76 16.24 3.84L.03 51.19v7.06-.03Zm70.17.5v-6.62c-5.11 3.3-10.39 6.71-15.12 10.13l15.12-3.5ZM.03 66.48H15.9L.03 59.57zm70.17 0v-6.26c-5.22 2.28-9.75 4.17-14.68 6.26z"/><path d="M64.72 19.37c.17-9.63-13.82-9.7-13.56-.09-.13 8.87 13.89 9.38 13.56.09m-45.34-5.02c.44-9.67-14.35-9.3-13.77 0-.5 9.61 14.68 9.74 13.77 0m16.51 1.88c5.48.16 7.68-3.95 7.84-7.78C43.95 2.48 40.29 0 35.92 0s-7.95 2.65-7.71 8.45c.13 3.21 1.47 7.61 7.71 7.78h-.02Zm90.63 50.3h4.22V41.69h-4.22zm-15.01-24.84-7.18 21.04-7-8.94 9.33-12.1h-4.87l-8.65 11.77V41.67h-4.25v24.81h4.23V54.24l8.96 12.24h5.08l2.27-7.16h8.98l2.35 7.13h4.42l-8.45-24.81h-5.24l.02.04Zm-.97 14.22 3.26-10.28h.09l3.39 10.28h-6.75.02Zm157.49 3.75-4.25-17.97h-7.39V66.5h4.16V45.34l5.37 21.16h4.25l5.35-21.13V66.5h4.11V41.69h-7.24l-4.35 17.99v-.03Zm22.22-17.99-8.48 24.84h4.14l2.27-7.16h9l2.38 7.18h4.42l-8.49-24.85h-5.24Zm-.97 14.2 3.26-10.28h.11l3.39 10.28h-6.75Zm31.85 4.97-9.73-19.17h-5.57v24.84h4.01V47.8l9.59 18.71h5.79V41.67h-4.07v19.17zm80.16 2.06h-10.06v-7.02h7.44v-3.59h-7.44v-7.02h9.2v-3.59h-13.4v24.84h14.26v-3.64.03Zm-38.56-21.23h-.77v19.37l-9.73-19.35h-5.57v21.23H333.8V55.9h7.44v-3.59h-7.44v-7.02h9.2V41.7h-13.39v24.84h21.04V47.63l9.59 18.91h5.79V45.47h7.42v21.09h4.25V45.47h7.26V41.7h-22.25v-.03zM250.26 54.02c1.32-1.18 2.33-2.99 2.33-5.29s-.94-4.08-2.29-5.24c-1.47-1.32-3.57-1.81-7.09-1.81h-7.11v21.2h-12.94v-7.02h7.44v-3.59h-7.44v-7.02h9.2v-3.59h-13.4V66.5h21.37V55.93h2.09c1.94 3.1 6.08 10.59 6.08 10.59h5.07l-6.58-10.94c1.39-.31 2.42-.85 3.28-1.6v.04Zm-9.9-1.69v-7h3.57c3.2 0 4.49 1.27 4.49 3.45 0 2.39-1.27 3.54-4.49 3.54h-3.57Zm-56.88 1.69c1.32-1.18 2.33-2.99 2.33-5.29s-.97-4.08-2.29-5.24c-1.47-1.32-3.57-1.81-7.09-1.81h-7.11v21.2h-12.94v-7.02h7.44v-3.59h-7.44v-7.02h9.2v-3.59h-13.4V66.5h21.39V55.93h2.09c1.94 3.1 6.08 10.59 6.08 10.59h5.07l-6.58-10.94c1.39-.31 2.42-.85 3.28-1.6l-.02.04Zm-9.9-1.69v-7h3.57c3.2 0 4.51 1.27 4.51 3.45 0 2.39-1.27 3.54-4.51 3.54h-3.57Zm40.47-8.78c-1.47-1.32-3.57-1.88-7.11-1.88h-7.11v24.84h4.25V56.3h2.86c3.54 0 5.59-.63 7.06-1.94 1.32-1.16 2.31-3.12 2.31-5.42s-.94-4.24-2.27-5.42v.03Zm-6.38 9.11h-3.57V45.3h3.57c3.2 0 4.49 1.45 4.49 3.61s-1.45 3.72-4.49 3.72zm-64.58-.62c-3.32-1.25-4.91-2.19-4.91-4.13 0-1.49 1.47-3.19 4.42-3.19 2.16 0 4.25.73 5.28 1.29v-3.57c-1.08-.53-3.13-1.16-5.19-1.16-5.26 0-8.87 3.01-8.87 7.05 0 3.59 2.71 5.75 6.82 7.18 3.2 1.13 4.54 2.28 4.54 4.21 0 2.09-1.76 3.57-4.69 3.57-2.31 0-5.19-.78-6.69-1.81v3.85c1.43.8 3.97 1.45 6.41 1.45 6.34 0 9.31-3.45 9.31-7.38 0-3.64-2.18-5.75-6.47-7.36l.04-.03ZM420 60.98c0 3.95-3.06 7.02-7.02 7.02s-7.06-3.1-7.06-7.02 3.13-6.93 7.06-6.93 7.02 3.1 7.02 6.93m-12.33 0c0 3.1 2.27 5.55 5.35 5.55s5.24-2.45 5.24-5.5-2.23-5.6-5.26-5.6-5.31 2.49-5.31 5.55zm4.23 3.63h-1.58v-6.93c.61-.13 1.5-.23 2.64-.23 1.3 0 1.87.23 2.38.51.37.29.66.85.66 1.52 0 .76-.6 1.36-1.41 1.6v.09c.66.24 1.03.76 1.26 1.69.22 1.05.33 1.49.5 1.73h-1.71c-.2-.24-.33-.89-.55-1.69-.13-.76-.55-1.09-1.41-1.09h-.75v2.79h-.04Zm.05-3.94h.75c.88 0 1.58-.29 1.58-1.03 0-.63-.46-1.05-1.47-1.05-.42 0-.7.04-.88.09v1.99z"/></svg>