<svg xmlns="http://www.w3.org/2000/svg" data-name="Layer 1" viewBox="0 0 420 167" fill="currentColor"><path d="M192.4 83.85c0 1.15-.08 2.37-.35 3.67l-4.14 26.29h9.33l4.16-26.03c.33-2.27.47-4.32.47-6.26 0-6.19-4.2-9.07-10.87-10.01-5.08-.72-11.84.78-17.89 3.13l-4.24 1.92-5.89 37.28h9.34l5.34-34.62c3.5-1.31 6.18-1.74 9.02-1.67 4.57.12 5.7 3.01 5.7 6.34M63.53 106.28c-3.52 1.33-6.23 1.76-9.09 1.69-4.62-.12-5.75-3.02-5.75-6.4 0-1.15.08-2.38.34-3.68l4.18-26.54h-9.43l-4.17 26.3c-.34 2.27-.5 4.33-.5 6.32 0 6.23 4.24 9.15 10.99 10.1 5.11.73 11.96-.78 18.04-3.17l4.3-1.92 5.95-37.63h-9.44l-5.41 34.93zM31.3 78.36c-3.85-1.08-6.8-1.57-9.83-1.57-5.17 0-7.54 1.65-7.54 5.27 0 1.96.82 3.03 3.77 5.07l4.66 3.21c4.58 3.11 6.38 6.15 6.38 10.5 0 8.54-6.06 13.46-16.39 13.46-3.27 0-5.89-.57-12.36-2.62l.82-5.26c4.25 1.24 7.77 1.81 11.07 1.81 5.24 0 7.85-1.98 7.85-5.82 0-2.15-.98-3.53-3.36-5.17l-4.59-3.12c-4.75-3.21-6.65-6.16-6.65-10.67 0-7.96 5.66-12.56 15.41-12.56 3.28 0 5.73.49 11.54 2.22l-.82 5.25h.02Zm80.84 0c-3.84-1.08-6.8-1.57-9.83-1.57-5.16 0-7.53 1.65-7.53 5.27 0 1.96.81 3.03 3.77 5.07l4.66 3.21c4.59 3.11 6.38 6.15 6.38 10.5 0 8.54-6.06 13.46-16.39 13.46-3.27 0-5.89-.57-12.36-2.62l.82-5.26c4.25 1.24 7.78 1.81 11.08 1.81 5.22 0 7.85-1.98 7.85-5.82 0-2.15-.98-3.53-3.36-5.17l-4.59-3.12c-4.76-3.21-6.65-6.16-6.65-10.67 0-7.96 5.66-12.56 15.41-12.56 3.29 0 5.73.49 11.56 2.22l-.84 5.25Zm30.25-1.16c-9.41 0-15 7.47-15 20.03 0 6.39 2.47 9.7 7.21 9.7 2.13 0 4.75-.59 7.37-1.74l4.19-26.64c-.77-.8-2.79-1.34-3.78-1.34m7.54 36.37h-9.17l.57-3.61c-.5.24-.83.49-1.06.57-4.91 2.79-7.29 3.71-10 3.71-7.78 0-12.55-6.24-12.55-16.5 0-15.59 9.43-26.75 22.54-26.75 8.48 0 15.48 5.51 15.48 5.51l-5.81 37.08h-.01Zm94.09-42.92c-15.13 0-24.15 9.73-24.15 26.02 0 11.03 5.95 17.12 16.77 17.12 3.12 0 7.26-.68 12.28-2.03l.54-.14.09-.56 2.67-17.05.17-.99h-8.1l-.11.72-2.06 13.21c-1.14.2-2.44.32-3.59.32-7.22 0-10.04-2.97-10.04-10.59 0-12.53 5.73-19.44 16.14-19.44 2.96 0 6.02.38 8.63 1.06l.93.24.15-.94.62-4 .12-.73-.71-.22c-4.83-1.54-7.15-1.99-10.34-1.99m17.45 33.27c-3.32 0-5.37 2.15-5.37 5.6 0 1.98.78 4.35 4.58 4.35 3.3 0 5.35-2.15 5.35-5.59 0-1.99-.79-4.36-4.57-4.36m-138.65 50.6c-1.95 4.55-4.71 6.67-8.69 6.67-5.44 0-8.04-3.51-8.04-10.67 0-4.79 1.05-10.5 2.76-14.49 1.78-4.4 4.8-6.67 8.78-6.67 5.37 0 7.96 3.41 7.96 10.58 0 4.98-1.05 10.52-2.75 14.59m-4.88-30.87c-12.91 0-21.46 10.01-21.46 25.08 0 11.33 6.5 18.17 17.31 18.17 12.84 0 21.38-10.11 21.38-25.33 0-11-6.67-17.92-17.23-17.92m115.25 5.75c3.24 0 5.03 1.64 5.03 4.64 0 5.62-5.03 8.46-15.11 8.46h-1.23c1.06-8.22 5.2-13.11 11.31-13.11m-4.78 37.46c3.58 0 6.98-.65 12.82-2.6l.82-4.96c-3.49.81-7.07 1.29-10.25 1.29-7.15 0-10.57-3.58-10.57-11.08 0-1.14 0-.88.09-1.77h3.16c15.53 0 22.85-4.51 22.85-14.01 0-6.27-4.47-9.85-12.36-9.85-13.74 0-23.34 10.66-23.34 25.97 0 10.99 5.93 17.02 16.76 17.02m53.61-30.63c0 1.16-.09 2.38-.35 3.67l-4.14 26.31h9.36l4.15-26.05c.33-2.28.48-4.31.48-6.27 0-6.19-4.22-9.07-10.89-10.01-5.07-.72-11.84.77-17.89 3.13l-4.27 1.92-5.89 37.31h9.36l5.35-34.64c3.5-1.29 6.18-1.74 9.02-1.67 4.59.12 5.71 3.02 5.71 6.35m-203.88 6.48 18.94-18.24H86.52l-17.65 18.81 10.8 22.89H90L78.13 142.8Zm-17.05-19.17c-.05.33-1.55 9.79-2.23 14-1.46 9.24-2.7 17.04-2.76 17.49-.1.82-.27 1.79-.35 2.86l-1.3 8.27h9.34l4.14-26.05c.14-.95.24-1.85.31-2.74l2.19-13.82h-9.36Zm127.41 6.29c4.58.12 5.7 3.03 5.7 6.35 0 1.17-.08 2.38-.34 3.67l-4.14 26.3h9.34l4.14-26.05c.34-2.28.49-4.32.49-6.27 0-6.19-4.2-9.06-10.89-10.01-4.26-.6-10.76.43-16.2 2.76-1.88-1.44-4.44-2.32-7.58-2.76-5.07-.72-11.83.77-17.89 3.13l-4.25 1.91-5.9 37.31h9.34l5.35-34.63c3.51-1.31 6.19-1.76 9.03-1.68 3.09.07 4.59 1.43 5.26 3.32.3.91.44 1.95.44 3.03 0 1.17-.08 2.38-.33 3.67l-4.15 26.3h9.34l4.15-26.05c.34-2.28.48-4.32.48-6.27 0-.86-.08-1.64-.25-2.39 3.4-1.23 6.04-1.67 8.83-1.6m111.56 30.1c0 .39-.09.69-.78.69h-1.29v-1.38h1.29c.68 0 .78.29.78.68m-.86 2.04 1.24 2.2h1.55l-1.38-2.45c.64-.31.9-.95.9-1.77 0-1.16-.56-1.99-2.15-1.99h-2.76v6.21h1.38v-2.2zm-.13-5.33c-2.54 0-4.38.64-4.38 4.43s1.85 4.44 4.38 4.44 4.39-.64 4.39-4.44-1.84-4.43-4.39-4.43m0-1.39c3.14 0 5.9 1 5.9 5.82s-2.76 5.82-5.9 5.82-5.9-1.04-5.9-5.82 2.76-5.82 5.9-5.82m77.55-75.41c-.65-4.64-.33-10.14 1.17-15.79 3.63-13.65 12.62-23.11 20.13-21.1 3.27.86 5.73 3.76 7.15 7.85-2.97 10.79-13.44 21.28-28.44 29.04m24.65-50.63c-.36-.18-.71-.35-1.07-.51-.07-.03-.15-.05-.19-.08-.56-.24-1.09-.54-1.66-.78-.03-.01-.06-.01-.09-.03-1.47-.62-3.08-1.08-4.76-1.38-.44-.07-.87-.13-1.31-.17h-.14.04c-2.03-.19-3.98-.15-5.82.2-1.84.31-3.57.81-5.33 1.47-.3.12-32.05 12.14-28.49 60.9-2.56.64-5.21 1.21-7.9 1.69-30.79 5.61-58.83-.98-69.93-15 10.02 42.63 62.66 38.54 77.62 36.47l3.96-.63s7.75 34.53-12.41 48.4l-.09.06c-3.66 2.35-8.03 3.69-12.7 3.69-1.05 0-2.06-.06-3.06-.19l-.09-.02c-1.08-.17-2.18-.38-3.31-.68 44.78 14.81 55.22-21 55.22-21 1.8-4.64 2.96-10.27 2.99-17.1 0-8.25-1.97-18.14-1.97-18.14 17.08-8.36 25.2-20.42 28.64-27.39l.15-.31.24-.42c.08-.19.19-.37.26-.55 9.82-19.29 5.89-41.01-8.79-48.53m-2.92-1.36s.01 0 .02.01h-.03.01Zm.06.03s-.02 0-.03-.01l.06.02h-.03ZM406.87 0c-7.29 0-13.18 5.91-13.18 13.19s5.89 13.2 13.18 13.2S420 20.47 420 13.19 414.12 0 406.87 0"/><path d="M406.84 0c-7.29 0-13.18 5.91-13.18 13.19s5.89 13.2 13.18 13.2 13.13-5.92 13.13-13.2S414.09 0 406.84 0m-29.09 64.16c3.62-13.65 12.63-23.11 20.14-21.1 3.28.86 5.73 3.76 7.13 7.85.48-1.67.76-3.35.86-5.03.08-1.67-.02-3.34-.33-5.01l-.08-.33c-1.12-4.77-3.63-8.82-7.47-11.51-1.8-1.27-3.79-2.16-5.93-2.68-2.03-.18-3.98-.14-5.82.21-1.84.31-3.57.81-5.32 1.47-.31.12-32.07 12.14-28.49 60.91 8.86-2.21 17.02-5.3 24.16-8.98-.66-4.65-.33-10.14 1.15-15.8"/><path d="M401.25 29.31c-.36-.18-.71-.35-1.07-.52-.07-.02-.15-.04-.19-.07-.58-.24-1.1-.55-1.68-.8l.09.03h-.03s-.08-.03-.14-.06c-1.47-.61-3.08-1.08-4.76-1.37-.44-.07-.87-.13-1.31-.18h-.14.04c2.13.54 4.13 1.41 5.92 2.68 3.84 2.68 6.36 6.74 7.49 11.51l.08.34q.435 2.505.33 5.01a23.2 23.2 0 0 1-.85 5.03c-2.97 10.79-13.43 21.26-28.43 29.05-7.14 3.67-15.3 6.76-24.16 8.97-2.56.65-5.21 1.21-7.9 1.69-30.79 5.61-58.83-.98-69.92-14.99 10.01 42.62 62.65 38.54 77.61 36.45l3.96-.62s7.75 34.53-12.41 48.41l-.09.05c-3.79 2.43-8.2 3.72-12.7 3.72-1.05 0-2.07-.07-3.06-.19l-.09-.02c-1.08-.17-2.18-.39-3.31-.68 44.78 14.81 55.22-21.01 55.22-21.01 1.81-4.64 2.96-10.26 2.99-17.1 0-8.26-1.97-18.15-1.97-18.15 17.08-8.36 25.2-20.42 28.64-27.39l.16-.31c.07-.15.16-.29.23-.43.09-.19.19-.37.28-.55 9.81-19.29 5.87-41.01-8.81-48.53"/></svg>