<svg xmlns="http://www.w3.org/2000/svg" data-name="Layer 1" viewBox="0 0 420 107.88" fill="currentColor"><path d="M137 44.65h-.14l-.22.22-.72.89c-.44.56-.89 1.14-1.36 1.47-.75.53-2.55.86-4.86.86s-4.58-.25-6.69-.72c-1.5-.33-1.67-1.72-1.72-3.39-.11-1.67-.19-3.25-.19-4.87v-26.4c0-.95.08-2.14.72-3.03.47-.64.92-.78 1.75-.95l.06-.03.11-.06c.42-.14.86-.31.86-.7 0-.25-.08-.67-.72-.67l-5.08.25-5.08-.25h-.08c-.22 0-.61 0-.86.19l-.17.39c0 .36.36.61.94.67-.06 0 .28.06.28.06.64.14 1.28.28 1.61.75.72.95.97 2.64.97 3.95v27.65c0 2.87-.22 6.34-.89 7.65-.36.7-.83 1.03-1.69 1.22h-.17c-.25 0-.61 0-.86.22l-.17.45.17.39c.22.22.61.25 1 .22.06 0 5.55-.11 5.55-.11l16.08.11c.61 0 .75-.22.83-.7l.47-2.11.28-.83c.39-1.06.64-1.86.64-2.17 0-.33-.28-.61-.67-.61"/><path d="m167.24 39.95-.22-.06c-.64-.22-1.03-.56-1.42-1.2-.53-.89-.94-1.92-1.25-2.7-1.89-4.95-2.47-6.68-4.08-11.24l-3.28-8.74-1.11-2.89-.89-2.34-1.53-3.89-.08-.17c-.14-.36-.39-.97-.92-.97-.5 0-.72.5-.83.78l-.06.08-.69 1.81-.14.36-1.47 3.95c-1.44 3.76-3 7.62-4.75 11.8l-3 7.46-.89 2.28-.81 1.86c-.39.95-1.19 2.67-2.17 3.39-.22.17-.58.25-.89.33-.42.11-.83.22-.83.61 0 .25.14.67 1.08.67l3.28-.17 3.58.17c.75 0 .86-.39.86-.61 0-.47-.58-.58-1.11-.7l-.31-.08c-.5-.31-.78-.78-.78-1.5 0-.58.53-2.53.81-3.17l1.75-4.65c.31-.83.95-1.25 1.92-1.25h8.97c1.58 0 1.61.11 2.05 1.36l.25.72 1.58 4.53c.17.53.58 1.86.58 2.62s-.31 1.25-.86 1.45l-.42.08c-.72.11-1.42.19-1.42.72 0 .47.61.5 1.28.5l4.08-.17 4.89.19c.42 0 .72-.25.72-.61 0-.39-.42-.5-1.47-.72m-10.86-13.83s-.19.11-.83.11h-8.75c.14-.56 2.42-6.15 2.42-6.15.69-1.81 1.55-4.09 2.36-5.73.06-.14.08-.22.14-.28.08.11.17.28.19.36l.06.11 1.92 4.98s2.42 6.09 2.53 6.65m30.37 2.34-6.3-3.98c-2.8-1.72-6.14-4.67-6.14-8.85 0-4.56 3.97-6.65 7.64-6.65 2.3 0 5.58.75 7.16 2.17.78.72 1.33 1.59 1.53 2.39l.06.31c.14 1.03.25 1.61.72 1.61.22 0 .92 0 .92-3.28l-.11-2.87.14-.67.17-.86c0-.33-.22-.61-.53-.61l-.47.14s-.31.17-.86.17c-.61 0-1.28-.11-1.89-.22l-.81-.14c-1.64-.25-3.33-.5-5-.5-2.19 0-5.28.42-7.33 1.59-3.03 1.7-5.08 5.4-5.08 9.21 0 4.65 2.36 8.79 6.47 11.35l6.53 4.09c4.11 2.53 6 5.15 6 8.18 0 2.59-1.64 5.62-3.8 7.09-1.25.89-2.97 1.34-5.16 1.34-2.58 0-7.19-.56-8.97-4.37l-.33-1.03-.06-.47c-.14-1.08-.19-1.31-.33-1.45l-.36-.17c-.39 0-.72.22-.72 3.03l.06 4.45c0 .64.5.83.86.97l.19.08c2.55 1.03 6.36 1.5 8.83 1.5 3.3 0 5.69-.75 8.16-2.64 3.55-2.7 5.53-6.43 5.53-10.54 0-5.15-2.67-7.87-6.64-10.38"/><path d="M254.18 44.65h-.14l-.22.22-.72.86c-.44.56-.89 1.14-1.36 1.47-.75.53-2.55.83-4.86.83s-4.58-.25-6.69-.72c-1.5-.33-1.67-1.72-1.72-3.39-.11-1.67-.19-3.25-.19-4.87V12.71c0-.95.08-2.14.72-3.03.47-.64.92-.78 1.75-.95l.06-.03.11-.06c.42-.14.86-.31.86-.7 0-.25-.08-.67-.72-.67l-5.08.25-5.08-.25h-.08c-.22 0-.61 0-.86.19l-.17.39c0 .36.36.61.94.67-.06 0 .28.06.28.06.64.14 1.28.31 1.61.75.72.95.97 2.64.97 3.95v27.65c0 2.84-.22 6.34-.89 7.65-.36.7-.83 1.03-1.69 1.22 0 0-.39.08-.75.06-.39-.03-.86-.17-.86-.17-.78-.25-1.28-.67-1.72-1.47-.61-1.06-1.11-2.25-1.5-3.25-2.25-5.93-4.3-11.46-6.22-16.89l-3.94-10.52-1.31-3.39-1.06-2.75-1.83-4.7-.08-.19c-.17-.42-.44-1.14-1.06-1.14-.56 0-.81.58-.94.89l-.06.11-.83 2.14-.17.45-.86 2.34-.89 2.42c-1.72 4.48-3.58 9.1-5.69 14.16-1.28 2.98-2.47 6.04-3.61 8.99l-1.03 2.67-2.19 5.68c-.81 2-1.75 3.45-2.64 4.12-.28.19-.72.31-1.08.42-.5.11-.94.25-.94.67 0 .33.22.72 1.22.72l3.92-.19 4.28.19c.83 0 .97-.42.97-.67 0-.5-.64-.64-1.28-.78l-.39-.08c-.64-.36-.97-.97-.97-1.86 0-.72.64-3.03.94-3.84l2.58-6.95c.39-1.02 1.18-1.53 2.36-1.53h12.22c1.94 0 2 .17 2.53 1.67l.31.86 2.5 6.82c.44 1.36.72 2.5.72 3.17 0 .97-.36 1.56-1.08 1.78l-.53.08c-.83.11-1.64.22-1.64.81 0 .45.53.53 1.47.53l4.89-.19s6.05.11 6.33.11c.67 0 5.47-.11 5.47-.11l16.08.11c.61 0 .75-.22.83-.7l.47-2.11.28-.83c.39-1.08.64-1.86.64-2.2s-.28-.61-.67-.61m-37.92-12.38s-.47.17-1.06.17h-12.38c.08-.5 1.86-4.98 2.69-7.15l.81-2.09.33-.86c.83-2.17 1.86-4.87 2.83-6.84.11-.31.19-.39.22-.45.11.11.25.39.31.5l.06.11c.83 1.95 1.58 3.98 2.3 5.95l.67 1.81c1.08 2.84 3.17 8.35 3.22 8.85m63.53 12.38h-.14l-.22.22-.72.86c-.44.56-.89 1.14-1.36 1.47-.75.53-2.55.86-4.86.86s-4.58-.25-6.72-.72c-1.5-.33-1.67-1.67-1.72-3.39-.11-1.67-.19-3.25-.19-4.87V12.71c0-.95.08-2.14.72-3.03.47-.64.92-.78 1.75-.95l.06-.03.14-.06c.42-.14.86-.31.86-.7 0-.25-.08-.67-.72-.67l-5.08.25-5.08-.25h-.08c-.25 0-.61 0-.86.19l-.17.39c0 .36.36.61.94.67-.06 0 .28.06.28.06.61.14 1.28.31 1.61.75.72.95.97 2.64.97 3.95v27.65c0 2.84-.22 6.34-.89 7.65-.36.7-.83 1.03-1.69 1.22h-.17c-.25 0-.61 0-.86.22l-.17.45.17.39c.22.22.61.25 1 .22.06 0 5.55-.11 5.55-.11l16.08.11c.61 0 .75-.22.83-.7l.47-2.11.28-.83c.39-1.08.64-1.86.64-2.2s-.28-.61-.67-.61"/><path d="m305.02 8.93.06-.92c0-.78-.39-.92-.61-.92l-1.58.06-1.53.06-14.36.31-5.25-.31c-.47 0-.97.19-.97.67 0 .42.44.61.92.61 2.3 0 3.36 1.28 3.36 4.03v20.67c0 2.75-.14 13.44-.78 15.19-.28.64-1 1.08-1.58 1.25l-.64.08c-.94.08-1.83.14-1.83.75l.17.39c.28.25.81.28 1.25.25l6.8-.19 14.58.19c.83 0 1.42-.17 1.78-.53.64-.64 1.89-4.42 1.89-5.2 0-.33-.28-.61-.61-.61h-.31l-.06.11-.39.56-.25.39c-1 1.36-3.25 2.06-6.75 2.06-1.14 0-6.72 0-7.91-1.06-.61-.56-.75-1.17-.75-2.11V30.44c0-.72 0-.75.56-.75h7.89c.94 0 2.22 0 2.78.72.28.33.47.67.56.92v.19c.06.47.14 1.2.69 1.2.22 0 .61-.14.61-.97l-.11-4.34.19-2.75c0-.45 0-1.53-.67-1.53-.56 0-.69.78-.81 1.39v.17c-.14.33-.39.7-.72.97-.42.36-1.61.58-3.3.58h-6.97c-.44 0-.67-.29-.67-.86V11c0-.54.32-.81.97-.81h7.39c1.03 0 2.19.03 3.39.36l.36.11c1.14.31 1.28.33 1.92 1.5l.06.08c.14.19.33.53.75.53.28 0 .61-.11.61-.72l-.11-3.17v.06h-.02Zm-150.5 48.02-5 .11-5.64-.25c-1.25 0-1.39.67-1.39.97 0 .17.11.47.78.47-.06 0 .53.06.53.06l.53.06c.81.17 1.53.39 2.3.92.81.58 1.31 8.9 1.31 14.61v11.85c0 8.74-4.03 12.82-14.44 12.82-4.83 0-8.27-1.84-10.41-4.9-1.5-2.2-1.72-5.09-1.72-7.9V69.5c0-2.48-.06-10.01 2.47-11.1l.81-.22c.89-.22 1.31-.31 1.31-.7 0-.67-.64-.67-.86-.67l-3 .17-3.05.14-5.39-.25h-.11c-.28 0-.61 0-.83.22l-.22.56c0 .61 1.25.72 1.28.72h.03c.81.17 1.64.33 2.14.89.53.53.53 3.09.53 3.95v24.12c0 9.4 5.25 14.16 16.99 14.16 12.72 0 17.8-5.48 17.8-17.25V65.77c-.06-2.09-.11-5.26 1.28-6.68.5-.5 1.11-.75 1.92-.75h.14c.22.06.53.08.75-.11l.19-.45c0-.39-.17-.86-1.03-.86m41.74.05c-.22-.22-.58-.22-.94-.22-.06 0-2.33.17-2.33.17l-2.22.14c-.75 0-1.5-.11-2.22-.22s-1.5-.22-2.25-.22c-.22 0-.92 0-.92.67 0 .42.5.53.89.61h.17c.89.22 1.33.53 1.8 1.14.69.92.97 5.45.97 7.65l.36 24.04v.67c0 .5-.03.75-.06.89-.08-.08-.22-.19-.47-.47l-.08-.08-3.94-4.92-1.42-1.64-8.75-10.21-14.99-16.47-.36-.39c-.86-.95-1.64-1.75-2.22-1.75l-.42.19c-.36.39-.5 1.45-.44 3.64v32.47c0 2.59-.42 5.65-1.31 6.29-.33.22-.89.33-1.36.42-.67.11-1.25.22-1.25.72 0 .45.53.56 1.33.56l4.64-.19 4.83.31c1 0 1.53-.31 1.53-.92 0-.14 0-.56-1.33-.56-.5-.11-.86-.28-1.31-.61-1.28-.97-1.64-4.15-1.64-5.87v-25.4c0-.33 0-.5.03-.61.39.11 1 .58 1.42 1.06l2.44 2.7 1.58 1.78 8.44 9.43 8.33 9.57 6 7.15.56.58c1.53 1.7 2.42 2.56 3.03 2.56l.36-.17c.25-.25.36-.81.36-1.95v-33.3c0-3.42.39-7.46.97-7.79l1.08-.39c.92-.31 1.25-.42 1.25-.75l-.17-.39.03.11zm82.8 1.51.06-.92c0-.81-.42-.92-.61-.92l-1.58.06-1.53.06-14.36.31-5.22-.19c-.36-.03-1.11 0-1.39 0h-.08l-4.36.19-4.28-.11h-.11c-.22 0-.47 0-.69.17l-.19.5c0 .45.53.61.97.75l.39.14c.36.28.58.75.58 1.31 0 .92-.36 2.23-.69 3.09l-2.44 5.9-1.67 3.98-5.44 12.88-.89 2.14c-.58 1.42-1.17 2.87-1.86 4.23-.17.33-.28.47-.33.56-.03-.06-.14-.22-.14-.22l-.11-.22c-.5-.97-.94-2.06-1.39-3.14l-.5-1.2-.81-1.89-2.8-6.82-.83-2c-1.92-4.65-6.41-15.55-6.41-17.69 0-.5.19-.89.58-1.17l.31-.14c.47-.19.83-.33.83-.7 0-.28-.17-.61-.67-.61l-2.25.14-2.44.17-6.11-.42c-.94 0-3.08.11-4 .22s-1.83.22-2.75.22l-4.64-.25c-.44 0-1.39 0-1.39.61 0 .53.69.67 1.72.89.56.11 1.17.25 1.44.39 1 .53 1.36 2.59 1.36 4.2v29.77c0 1.59 0 4.56-1.08 5.81-.56.67-1.14.81-1.92.81-.06 0-1.17 0-1.17.67l.19.45c.25.25.67.22.92.22.06 0 6.11-.11 6.11-.11l5.69.25c.5 0 .86-.28.86-.67 0-.56-.64-.61-1.31-.7-.61-.06-1.36-.14-1.83-.47-1.89-1.34-1.86-4.17-1.8-6.45V63.18c0-1.08 0-3.67 1.31-4.45.66-.4 1.42-.62 2.19-.64 1.36 0 3.05.7 3.89 1.98.5.81.86 1.72 1.22 2.62l.33.81 3.97 9.4 2.94 7.01 3.94 9.1 4.25 9.71.19.5.78 1.78c.17.33.39.7.75.7.39 0 .56-.42.67-.61v-.06l15.99-36.8c.56-1.34 1.83-4.26 3.42-5.29.72-.45 1.22-.5 2.11-.56h.89c2.3 0 3.28 1.06 3.28 3.81v20.7c0 4.26-.19 13.6-.78 15.19-.28.64-1 1.08-1.58 1.25l-.64.08c-.94.08-1.83.14-1.83.75l.17.39c.28.25.81.28 1.28.28l6.8-.19 14.58.19c.83 0 1.42-.17 1.78-.53.64-.64 1.89-4.42 1.89-5.2 0-.33-.28-.61-.61-.61h-.31l-.08.11-.39.56-.25.39c-1 1.36-3.25 2.06-6.75 2.06-1.14 0-6.72 0-7.91-1.06-.61-.56-.72-1.17-.72-2.11V80.17c0-.72 0-.75.56-.75h7.89c.94 0 2.22 0 2.78.72.28.33.47.67.56.92v.22c.06.5.14 1.2.69 1.2.22 0 .61-.11.61-.97l-.11-4.34.19-2.75c0-.45 0-1.53-.67-1.53-.56 0-.69.75-.81 1.36v.19c-.14.33-.39.7-.72.97-.42.36-1.61.58-3.3.58h-6.97c-.46 0-.69-.29-.69-.86V60.72c0-.54.32-.81.97-.81h7.39c1 0 2.19.06 3.39.36l.36.11c1.14.31 1.28.33 1.92 1.5l.06.08c.11.19.33.53.75.53.28 0 .61-.14.61-.72l-.11-3.17-.03-.08zm68.69 40.92c-.61-.06-1.36-.14-1.83-.47-1.89-1.34-1.86-4.17-1.8-6.45V63.1c0-1.08 0-3.67 1.28-4.45.28-.17.83-.33 1.33-.47.89-.25 1.36-.39 1.36-.81l-.19-.45c-.28-.28-.81-.31-1.25-.28h-.08c-.94 0-1.89.11-2.83.22-.92.11-1.83.22-2.75.22l-4.64-.25c-.44 0-1.39 0-1.39.61 0 .53.69.67 1.72.89.56.11 1.17.25 1.44.39 1 .53 1.36 2.59 1.36 4.2v29.77c0 1.59 0 4.56-1.08 5.81-.56.67-1.14.78-1.92.78-.06 0-1.17 0-1.17.67l.19.45c.25.25.67.22.92.22.06 0 6.11-.11 6.11-.11l5.69.25c.5 0 .83-.28.83-.67 0-.56-.64-.61-1.31-.7m72.12-41.89c0-.58-.69-.86-2.08-.86-.86 0-1.69.11-2.5.22s-1.55.19-2.3.19l-1.22-.11-1.33-.14c-.25 0-.58.03-.75.25-.11.11-.14.28-.08.45l.06.19.19.06c.44.14.67.67.67 1.11 0 .56-1.25 2.92-7.19 10.99l-.42.58-4.58 6.4c-.17.25-.31.33-.39.33-.11 0-.22-.19-.28-.31 0-.03-4.55-6.62-4.55-6.62l-5.66-8.4c-.61-.95-1.22-2.34-1.22-3.23 0-.39.5-.58 1.11-.75.44-.14.86-.25.86-.64l-.17-.39c-.25-.22-.72-.25-1.36-.22h-.11c-.78 0-1.55.11-2.33.22-.28.03-.53.06-.81.11-.5.06-1.03.11-1.53.11h-24.85c-1.55 0-3.36-.03-5.08-.36l-.58-.17c-.39-.14-.81-.25-1.19-.25-.44 0-.53.53-.67 1.42l-.06.33-.39 1.22c-.31.86-.61 1.75-.61 2.23 0 .53.28.92.67.92s.5-.36.58-.58c.17-.5.42-1.31 2.5-1.31h10.88c.67 0 .86.28.86 1.22v27.51c0 6.29-.25 8.32-.47 8.9-.33 1-1.33 1.22-2.47 1.42-.03 0-.28.06-.28.06-.61.08-1.36.19-1.36.72l.14.36.53.14 6.47-.31 5.19.19c1.47 0 2-.19 2-.67 0-.39-.42-.67-.78-.67l-1.33.06c-.78 0-1.72-.67-2.14-1.31-.86-1.31-.86-6.34-.86-8.26V66.7c0-1.78 0-3.64.11-5.45v-.19c.03-.61.06-.61.47-.61h4.41c1.86 0 3.78 0 5.53.36.53.14 1.92.36 2.61 1.28l.67.86 11.63 16.64.19.28c.5.7.83 1.14.83 1.98v12.13c0 2.14-.42 4.84-2.42 5.65l-.36.03h-.11c-.31 0-.72 0-.94.22l-.17.39.14.36c.25.22.72.28 1.42.25h.08l4.94-.31 5.44.31h.14c.5.03 1 .03 1.28-.22l.19-.45c0-.17-.06-.53-.67-.53-1.19 0-2.44-.58-3.28-1.53-.69-.81-.78-1.98-.78-3.12V81.62c0-1.31.64-2.36 1.33-3.34 3.8-5.37 7.91-11.1 12.22-16.64.78-1.03 2.58-2.81 3.64-3.17.64-.22 1.33-.47 2-.47h.06l.81-.17-.14-.25v-.11zm-91.55 20.45-6.3-3.98c-2.8-1.72-6.14-4.67-6.14-8.85 0-4.56 3.97-6.65 7.64-6.65 2.3 0 5.58.75 7.16 2.17.78.7 1.33 1.59 1.53 2.39l.06.31c.14 1.03.25 1.61.72 1.61.22 0 .92 0 .92-3.28l-.11-2.87.14-.67.17-.86c0-.33-.22-.61-.56-.61l-.47.14s-.31.17-.86.17c-.61 0-1.25-.11-1.89-.22l-.81-.14c-1.64-.25-3.33-.5-5-.5-2.19 0-5.28.42-7.33 1.59-3.03 1.7-5.08 5.4-5.08 9.21 0 4.65 2.36 8.79 6.47 11.35l6.55 4.09c4.08 2.53 6 5.15 6 8.18 0 .33-.03.7-.11 1.06v.08c-.78 4.15-4.61 7.32-9.22 7.32-2.92 0-5.53-1.28-7.25-3.25-.56-.53-1.08-1.08-1.53-1.61-.25-.28-1.17-1.42-1.55-1.92-.14-.17-.25-.33-.39-.5l-8.27-11.13-.08-.11c-.08-.14-.28-.39-.28-.56 0-.06.06-.19.17-.39 3.72-2.73 6.33-7.62 6.33-11.93 0-8.12-6.97-11.02-13.49-11.02-1.33 0-2.67.11-3.94.22-1.28.11-2.58.22-3.89.22l-5.78-.25c-.39 0-.97 0-.97.72 0 .56.86.58 1.06.61.06 0 .5.11.5.11.78.17 1.47.31 2.05.95.53.58.94 2.25.94 3.06v32.02c0 1.61-.31 3.78-1.69 4.78-.19.14-.61.22-.97.31-.69.14-1.39.31-1.39.92l.14.33c.25.22.78.25 1.61.22l5.16-.19 5.28.25c.31 0 .86 0 1.14-.28l.19-.45c0-.36-.36-.56-.61-.56h.08l-.94-.14-1.03-.19c-.67-.28-1.08-.53-1.39-1.17-.69-1.31-.94-4.67-.94-7.43v-8.26c0-.31.08-.45.5-.45h6.14c1.8 0 2.97 1.89 3.97 3.56l.89 1.36 6.44 9.12c.86 1.17 1.58 1.92 2 2.31.42.36 1.58 1.28 2.69 1.78 2.75 1.25 5.89 1.61 8.33 1.5 2.8-.14 5.53-.72 8.19-2.48l.28-.19c3.55-2.7 5.5-6.48 5.5-10.57 0-5.15-2.67-7.87-6.64-10.38m-28.44.97c-.72.33-2.33.33-3.08.33h-2.64c-3.14 0-4.03-.42-4.11-.56V62.28c0-1.2.28-2.64 1.67-2.64h1.83c6.53 0 10.75 3.98 10.75 10.1 0 3.53-1.5 7.82-4.39 9.15M54.03 0C24.24 0 0 24.2 0 53.94s24.24 53.94 54.03 53.94 54.03-24.2 54.03-53.94S83.83 0 54.03 0m0 104.41c-27.88 0-50.54-22.62-50.54-50.44S26.18 3.51 54.03 3.51s50.54 22.62 50.54 50.44-22.66 50.44-50.54 50.44"/><path d="M54.03 7.65C28.46 7.65 7.66 28.4 7.66 53.94s20.8 46.29 46.37 46.29 46.37-20.78 46.37-46.29S79.61 7.65 54.03 7.65m0 86.88c-22.44 0-40.68-18.22-40.68-40.59S31.6 13.35 54.03 13.35s40.68 18.22 40.68 40.59-18.24 40.59-40.68 40.59"/><path d="m89.69 62.65-26.1-43.29-9.56 17.31-9.55-17.31-26.1 43.29 9.55 17.33 26.1-43.29 26.1 43.29z"/></svg>