<svg xmlns="http://www.w3.org/2000/svg" data-name="Layer 1" viewBox="0 0 420 106" fill="currentColor"><path d="M63.74 31.45 47.09 106h22.79l2.46-10.78h10.71V106h22.91V31.45zm12.27 44.61 6.95-26.6.07 26.6zM42.63 31.45H16.81L0 106h41.68l5.13-23H31.05zM149.91 31.45l-11.8 52.93V31.45H114.7V106h42.21l16.69-74.55zM403.37 31.45h-42.2V106h22.88V95.22h10.74l2.44 10.78H420zm-19.32 44.61.07-26.6 6.91 26.6zM340.09 83.88l5.53-52.43h-48.09l4.29 23.81h15.75L312.81 106h45.85l-4.61-22.12zM288.01 83.88l5.53-52.43h-48.11l4.22 23.81h15.86L260.7 106h45.86l-4.54-22.12zM230.67 0h-41.18l-24.1 106h29.56l3.45-18.07h23.18l3.55 18.07h29.47zm-28.42 64.59 7.7-40.64 7.97 40.64h-15.68Z"/></svg>