<svg fill="currentColor" xmlns="http://www.w3.org/2000/svg" data-name="uuid-83845cdb-c610-4377-b8cd-ed36ce38038a" viewBox="0 0 420 190"><path d="M248.63 55.83c2.17 11.09-10.96 15.45-18.27 14.36-17.78-2.08-14.52-14.26-12.05-17.72 7.21-10.1 28.05-7.52 30.32 3.37Zm162.78 71.88c-2.47 1.49-4.54 2.57-6.42 3.17-8.89 2.48-10.86-2.67-10.37-5.74l11.95-42.47c-8.59-.3-15.11-.89-26.57-.4l-2.17 6.44c-1.19-1.68-9.28-15.15-35.76-5.25-14.12 6.34-26.17 20.49-26.37 37.52-8.59 7.33-12.05 10.2-20.15 11.39-10.27.89-13.53-4.06-13.33-11.68s2.37-15.45 5.73-21.09c1.19-1.88 3.85-4.85 6.32-6.24 4.35-2.38 8.79-3.96 17.58 3.86 1.19-3.96 2.67-7.72 3.46-11.98-7.7-4.95-18.37-5.84-27.95-4.06-5.33.99-10.17 2.77-14.32 5.25-14.32 8.71-22.42 21.98-21.53 35.74-3.16 2.67-5.93 4.55-8.3 5.84-2.07 1.09-3.85 1.78-5.43 2.08-.59.1-1.38.3-1.98.3-5.93.5-7.51-4.06-7.01-6.93 3.75-13.96 7.7-27.82 11.46-41.78-9.88 0-20.05 0-29.53.4l-10.67 37.42c-20.54 14.55-59.95 20.89-56.1.4 21.63 2.18 35.46-3.27 43.06-12.28 6.82-10 4.44-28.02-26.87-28.42-35.36 1.68-48 24.16-48 39.8.2 9.01 6.32 16.63 13.33 21.39 24.2 12.97 51.36 2.28 72.3-8.81 6.82 26.63 43.76 12.57 56.1.89 12.45 21.88 45.04 17.03 63.81-.89 12.94 23.96 38.92 16.53 49.68 5.54 1.28 4.46 12.45 21.98 45.83-.4 0-3.27-.99-6.24-2.17-9.01h.4ZM160.33 88.7c.79-.2 2.77-.4 4.84 0 1.38.2 2.86.79 3.56 1.78 2.57 4.06.69 8.61.2 9.8-4.35 10.79-15.9 12.67-23.21 11.19 2.07-5.74 6.12-20.79 14.62-22.67v-.1Zm209.2 27.92c-4.54 15.54-13.04 18.71-18.57 16.24-5.63-2.48-5.23-14.95-.59-25.05 3.56-10.59 11.85-18.71 17.98-15.35 6.42 2.28 6.52 12.87 1.19 24.16h-.01Z"/><path d="M417.83 154.74c-24 5.05-46.62 9.9-71.91 11.88-48.99 3.76-98.08 4.36-146.97 1.09-40.5-2.77-78.62-11.19-115.76-22.77 11.85-17.52 16.69-39.31 23.11-60.1 21.73-2.87 40.1-16.34 50.97-35.05 22.42-43.27-13.44-57.03-37.44-46.33-18.67 8.91-32.5 18.51-44.74 72.57-8 0-15.61-2.18-22.72-3.86-1.38 2.57-2.57 5.35-2.96 8.22 7.51 2.57 15.11 5.15 23.61 5.54-.2.69-.2 1.19-.4 1.88-8.2 31.19-15.41 47.52-17.38 49.8-12.54-3.07-33.78-8.51-47.9.2-4.64 3.27-7.61 6.73-7.31 13.56.69 8.12 5.73 12.67 12.05 15.94 18.37 9.41 42.67 3.37 59.95-9.21 12.74 4.65 25.88 9.31 38.82 13.07 39.71 10.59 77.14 18.81 124.26 18.81 0 0 80.8 1.39 177.79-23.46l7.11-2.08-2.27-9.6.1-.1ZM146.01 13.75c5.43 3.86 7.41 13.07 2.37 25.35-6.62 17.23-22.22 29.5-39.41 33.96 3.06-11.39 13.53-70.39 37.04-59.31ZM24.42 159.19c-2.77-.1-10.77-1.58-10.77-7.43.59-6.14 8.59-7.03 11.16-7.03 8 0 18.27 3.47 22.92 5.25-3.46 4.36-14.72 9.6-23.21 9.21h-.1Z"/></svg>