<svg fill="currentColor" xmlns="http://www.w3.org/2000/svg" data-name="uuid-6d13f69f-00cb-49ce-beef-4d645cd12864" viewBox="0 0 420 52"><path d="M22.92 0H0v41.06L51.57 52V34.47l-28.65-6.08V0Z"/><path d="M108.87 17.39V0H28.65v23.76l80.22 17.01V23.24l-57.3-12.16V5.24l57.3 12.15ZM57.3 52l38.48-8.16-38.48-8.16V52ZM136.2 13.7h3.81v11.62h8.18v2.8H136.2V13.7Zm20.11 11.96h3.37v-9.49h-3.37V13.7h10.57v2.47h-3.39v9.49h3.39v2.46h-10.57v-2.46Zm19.96-11.96h13.25l2.11 2.11v3.13l-1.76 1.75 1.82 1.84V26l-2.12 2.11h-13.31V13.7Zm10.85 5.79.71-.71v-1.96l-.71-.71h-7.03v3.38h7.03Zm.06 6.17.71-.71v-2.23l-.77-.8h-7.03v3.74h7.09Zm14-11.96h13.06v2.58h-9.25v3.28h8.46v2.56h-8.46v3.44h9.29v2.56h-13.1V13.7Zm22.45 0h13.13l2.3 2.3v3.88l-2.22 2.24 2.6 6h-4l-2.24-5.36h-5.77v5.36h-3.81V13.71Zm10.71 6.55.92-.92v-2.32l-.86-.85h-6.96v4.09h6.9Zm18.45-3.77h-5.56V13.7h14.97v2.78h-5.57v11.64h-3.84V16.48Zm22.73 7.25-6.26-10.03h4.31l4.04 6.88 4.15-6.88h3.85l-6.3 10.03v4.39h-3.79v-4.39Zm31.77 2.24v-2.08h3.81v1.08l.63.62h6.46l.65-.64v-2.28l-.46-.46h-9.05l-1.99-1.98v-4.22l2.31-2.31h10.76l2.18 2.16v2.05h-3.82v-1.07l-.62-.62h-6.37l-.63.64v2.18l.47.45h9.05l1.98 1.99v4.35l-2.3 2.29h-10.91l-2.15-2.15Zm24.77-12.27h13.01l2.49 2.49v4.7l-2.49 2.47h-9.19v4.76h-3.81V13.71h-.01Zm10.81 7.13.88-.88v-2.84l-.88-.88h-6.99v4.59h6.99Zm13.11 4.73v-9.27l2.57-2.57h10.74l2.57 2.57v9.27l-2.57 2.57h-10.74l-2.57-2.57Zm10.98-.05 1.11-1.11v-6.98l-1.11-1.11h-6.03l-1.13 1.11v6.98l1.13 1.11h6.03Zm14.48-11.81h13.12l2.31 2.3v3.88l-2.22 2.24 2.59 6h-3.99l-2.24-5.36h-5.76v5.36h-3.81V13.71Zm10.69 6.55.92-.92v-2.32l-.85-.85h-6.95v4.09h6.88Zm18.47-3.77h-5.58V13.7H420v2.78h-5.58v11.64h-3.82V16.48Z"/></svg>