<svg fill="currentColor" xmlns="http://www.w3.org/2000/svg" data-name="uuid-7d2df6ff-dc28-4ab8-a0e2-f9c9026bee13" viewBox="0 0 300 88"><path d="m289.09 14.36 1.03-7.06a213.39 213.39 0 0 0-63.48.27c1.75 1.94 3 4.19 3.66 6.66 19.49-2.76 39.22-2.73 58.78.12Zm-58.39 6.11c-.41 2.88-1.68 5.43-3.69 7.56 20.65-2.41 41.56-1.45 61.9 2.86l1.48-6.97a198.15 198.15 0 0 0-59.7-3.44ZM74.49 48.06c1.71-.3 3.41-.58 5.12-.87 5.71-.97 11.41-1.92 17.12-2.81-.19-4.31-.37-8.63-.56-12.96-3.29.39-6.59.79-9.88 1.21-.43-10.26-.85-20.55-1.28-30.89-4.12.15-8.24.32-12.35.51.34 8.39.67 16.76 1.01 25.1.28 6.92.56 13.83.83 20.72h-.01Zm43.04-5.76c11.17-1.73 18.15-10.49 17.57-22.38C134.52 7.98 126.87 0 115.8 0S97.39 8.85 97.98 22.72c.58 13.69 8.28 21.32 19.55 19.58Zm-1.44-29.25c3.26-.15 5.54 2.97 5.76 7.82.22 4.8-1.76 8.15-4.97 8.49-3.26.35-5.48-2.55-5.7-7.6-.23-5.11 1.75-8.56 4.91-8.71Zm26.88-1.38c.43 8.73.87 17.42 1.3 26.07 4.12-.5 8.24-.97 12.36-1.43-.43-8.28-.87-16.59-1.3-24.95l5.06-.09c.59 0 1.18-.02 1.77-.03-.18-3.34-.36-6.69-.53-10.05l-1.75-.03c-8.13-.17-16.26-.28-24.4-.3l.54 11.02c2.32-.08 4.65-.16 6.97-.22h-.02Zm22.26-.46 5.21-.06c.43 7.92.87 15.8 1.3 23.63 4.12-.41 8.24-.8 12.36-1.17-.43-7.46-.87-14.97-1.3-22.51 2.27 0 4.55 0 6.82.02-.18-3.01-.36-6.03-.53-9.05-8.13-.35-16.25-.62-24.38-.82-.59 0-1.18-.04-1.77-.05l.54 10.02c.59 0 1.17-.01 1.76-.02Zm45.62 20.97c6.23-.52 11.15-2.53 14.19-5.62 1.64-1.66 2.72-3.63 3.17-5.85.21-1.05.29-2.16.21-3.31-.07-.96-.24-1.9-.5-2.8-.72-2.49-2.16-4.71-4.18-6.56-3.41-3.12-8.49-5.16-14.62-5.61-11.56-.83-18.41 5.11-17.82 15.12.58 9.88 8.28 15.56 19.55 14.62Zm4.33-14.79c.22 3.35-1.76 5.59-4.97 5.71-3.26.11-5.48-2.02-5.7-5.6-.23-3.63 1.75-5.95 4.91-5.88 3.26.08 5.54 2.38 5.76 5.77ZM95.35 52.3c-5.34.99-10.68 2.02-16.01 3.1-2.51 9.5-5.01 18.79-7.52 27.86 4.16-.51 8.33-.99 12.5-1.45.25-1.41.5-2.83.76-4.24 2.53-.31 5.06-.61 7.59-.89.42 1.37.84 2.75 1.26 4.13 3.87-.38 7.74-.74 11.62-1.08l1.02-.09c-.41-1.03-.81-2.04-1.22-3.06-3.33-8.36-6.66-16.47-9.99-24.28h-.01Zm-8.21 12.34.33-2.58c.09-.93.17-1.86.26-2.79l.57 2.6c.19.83.38 1.66.56 2.49.57 1.84 1.14 3.69 1.71 5.56-1.45.2-2.89.4-4.34.61.3-1.96.6-3.92.9-5.89h.01Zm43.78-18.27c-.99 5.23-1.98 10.42-2.97 15.56-1.65-4.86-3.3-9.65-4.95-14.36-5.44.85-10.87 1.75-16.31 2.69.54 8.5 1.08 17.05 1.61 25.64.07 1.19.15 2.38.22 3.57.34-.03.68-.05 1.02-.08 3.5-.29 6.99-.57 10.49-.82-.24-3.89-.47-7.77-.71-11.64-.11-1.82-.19-3.18-.3-4.12-.06-.18-.16-1.08-.41-2.64-.08-.45-.17-1.12-.27-1.97.21.64.41 1.28.62 1.93.27.86.54 1.73.8 2.6.43 1.34.86 2.68 1.29 4.03 1.37 3.77 2.74 7.6 4.12 11.47 2.52-.17 5.04-.33 7.57-.48.8-4.1 1.61-8.22 2.41-12.37.26-1.31.51-2.63.77-3.95.11-.68.25-1.65.43-2.92.12-.86.23-1.72.35-2.58-.02 3.17-.05 4.32-.02 5.66.02 1.24.05 2.63.14 4.16.23 3.9.45 7.8.68 11.72 3.89-.21 7.79-.4 11.68-.57-.61-11-1.23-21.94-1.84-32.83-5.48.72-10.96 1.49-16.43 2.3Zm34.5 20.46c-.06-1.19-.13-2.37-.19-3.56 3.32-.2 6.64-.38 9.96-.54-.15-2.91-.3-5.81-.46-8.71-3.32.24-6.64.49-9.96.76l-.18-3.29c3.63-.33 7.27-.63 10.9-.92l-.51-9.76c-7.66.79-15.33 1.68-22.99 2.65.61 11.03 1.23 22.11 1.84 33.25 7.76-.29 15.52-.5 23.28-.61l-.51-9.78c-3.73.14-7.47.31-11.2.5h.02Zm40.19-6.04c1.63-1.12 2.15-1.64 3.03-2.92 1.53-2.1 2.34-5.01 2.21-7.77-.19-3.92-2.36-7.78-5.43-9.56-2.86-1.63-5.37-2-10.77-1.55-5.14.43-10.27.9-15.41 1.41.61 11.84 1.23 23.73 1.84 35.67 4.05-.04 8.09-.06 12.14-.05-.19-3.86-.39-7.71-.58-11.55.68-.02 1.35-.03 2.03-.05 1.83 3.82 3.66 7.7 5.48 11.64 4.3.04 8.59.11 12.88.21.31 0 .62.01.94.02-.34-.65-.68-1.29-1.03-1.93-2.45-4.6-4.9-9.12-7.34-13.55v-.02ZM193.2 48.67c1.68-.1 2.18-.08 2.9.27.92.45 1.56 1.47 1.63 2.76.07 1.34-.56 2.65-1.54 3.09-.48.3-1.71.47-3.05.53-.31 0-.63.03-.94.04l-.33-6.6c.45-.03.89-.06 1.34-.08Zm21.02-11.13c.57 11.95 1.14 23.95 1.71 35.99.04.93.09 1.86.13 2.79.31 0 .62.02.93.03 3.83.1 7.67.22 11.5.37-.61-13.35-1.23-26.65-1.84-39.89-4.14.21-8.28.45-12.43.71Zm43.61 23.13c-2.03 3.32-4.23 4.74-7 4.64-3.76-.14-6.43-3.56-6.64-8.39-.22-4.89 2.21-8.13 6.11-8.14 2.57 0 4.84 1.14 7.17 3.72-.21-4.91-.42-9.81-.64-14.71-3.4-2.11-6.45-2.89-9.87-2.78-9.99.4-16.38 9.28-15.8 21.74.57 12.41 7.6 21.34 17.29 22 2.93.18 6.58-.62 8.83-1.85.1-.06.2-.11.3-.17.19-.18.53-.35.91-.64l-.21-4.8c-.15-3.54-.3-7.08-.46-10.62h.01Zm25.8-25.1c-5.34-.04-10.68-.03-16.02.02-2.1 12.12-4.2 24.08-6.31 35.9-.41 2.32-.82 4.63-1.24 6.94.09 0 .18.01.27.02 4.09.29 8.18.6 12.26.94.25-2.19.5-4.39.76-6.58 2.53.18 5.06.37 7.59.57.42 2.28.84 4.57 1.26 6.86 4.2.39 8.4.81 12.6 1.26-3.72-15.66-7.45-30.96-11.18-45.92Zm-7.04 13.09c.19 1.37.38 2.75.56 4.13.57 3.09 1.14 6.2 1.71 9.31-1.45-.08-2.89-.15-4.34-.23l.9-9.14c.11-1.34.22-2.68.32-4.02.09-1.45.17-2.91.26-4.36l.57 4.32h.02ZM296.52 79.64c0-.09-.04-.16-.09-.21a.264.264 0 0 0-.19-.07c-.08 0-.14.02-.19.07s-.07.11-.07.19.02.14.07.19c.05.04.14.09.29.14.26.09.44.19.55.31.11.12.16.28.16.48.02.43-.32.79-.75.81h-.07c-.23 0-.42-.07-.57-.21a.767.767 0 0 1-.25-.56h.49c.01.11.05.19.11.25s.14.09.24.09.19-.03.25-.09.1-.13.1-.23-.03-.18-.09-.24-.18-.12-.37-.18c-.22-.08-.38-.17-.48-.28s-.14-.26-.14-.44c0-.21.07-.39.21-.52s.32-.2.53-.2.37.07.51.21.22.31.23.51h-.48v-.02Zm1.31 1.85h-.47v-2.52h.65l.67 1.91.67-1.91h.65v2.52h-.47v-1.91l-.67 1.91h-.37l-.67-1.91v1.91h.01Z"/><path d="M236.09 17.93c.02.21.03.42.05.62l-2.26.21c-.02-.2-.04-.41-.05-.61l.59-.06-.27-.6c-.4.04-.8.09-1.2.14-.06.22-.13.43-.19.65.21-.02.41-.05.62-.07l.06.61c-.68.07-1.35.15-2.03.23l-.06-.6c.19-.02.38-.05.57-.07.22-.82.45-1.65.67-2.48-.21.03-.41.05-.62.08l-.06-.6c1.02-.14 2.03-.28 3.05-.4.02.21.03.41.05.62-.21.02-.42.05-.63.07.39.77.78 1.54 1.17 2.32.18-.02.37-.04.55-.05h-.01Zm-2.18-.95c-.16-.35-.32-.7-.48-1.04-.11.38-.21.76-.32 1.14l.8-.09Zm2.4 1.56c-.02-.21-.03-.42-.05-.62l.66-.06c-.06-.82-.12-1.64-.17-2.46-.22.02-.44.05-.67.07-.02-.21-.03-.42-.05-.63.86-.1 1.71-.19 2.57-.28 0 .21.02.43.04.64-.23.02-.45.04-.68.07.05.83.1 1.66.16 2.48.45-.04.91-.07 1.36-.1-.02-.39-.04-.78-.07-1.17.3-.02.6-.05.9-.07l.09 1.82c-1.37.09-2.74.19-4.1.31h.01Zm4.37-.32-.03-.65c.22-.01.44-.03.66-.04l-.12-2.55-.67.06-.03-.65c.86-.08 1.71-.15 2.57-.21 0 .22.02.44.02.66-.23.02-.45.03-.68.05.03.86.07 1.71.1 2.57.45-.02.91-.05 1.36-.07 0-.4-.03-.81-.04-1.21.3-.02.6-.03.9-.05.02.63.03 1.26.05 1.89-1.37.05-2.74.12-4.1.2Zm6.19-.27c0-.45-.02-.91-.02-1.36.26 0 .52-.02.78-.02 0 .25.09.43.23.55.14.12.3.17.49.17.14 0 .26-.05.36-.14s.14-.19.14-.31a.41.41 0 0 0-.14-.31c-.1-.08-.27-.17-.52-.28-.54-.21-.91-.39-1.1-.56-.19-.16-.29-.39-.3-.68 0-.35.12-.63.37-.83.25-.21.54-.32.87-.33.37-.02.66.1.87.34v-.34l.79-.03v1.24c-.26 0-.52.01-.79.02-.03-.19-.1-.34-.23-.44a.63.63 0 0 0-.44-.14c-.13 0-.24.04-.33.1s-.13.14-.13.24c0 .08.04.16.11.23s.29.17.65.3c.34.12.61.24.79.34s.33.24.44.41c.11.17.16.37.16.6 0 .4-.13.71-.4.92-.26.21-.58.31-.94.32-.4 0-.71-.12-.94-.38v.34c-.26 0-.52.01-.78.02h.01Zm4.26-.05v-.7h.69c0-.91.02-1.83.03-2.75-.23 0-.47 0-.7.01v.96c-.27 0-.53 0-.8.01v-1.65c1.42-.04 2.83-.07 4.25-.08 0 .57-.03 1.13-.04 1.7h-.79c0-.33 0-.65.02-.98h-.72c-.02.92-.03 1.85-.05 2.77h.69v.71c-.86-.01-1.71-.02-2.57-.02v.02Zm8.12-.53-.03.74c-.75-.04-1.5-.07-2.25-.1 0-.24.02-.48.03-.72.2 0 .39.01.59.02-.06-.25-.13-.5-.19-.75l-1.2-.03c-.09.24-.18.49-.27.73.2 0 .41.01.61.02 0 .24-.02.48-.02.72-.68-.02-1.35-.04-2.03-.05 0-.24 0-.48.02-.71.19 0 .38 0 .57.01.32-.93.65-1.86.98-2.8h-.62c0-.24 0-.48.02-.72 1.02 0 2.04 0 3.06.02l-.03.73c-.21 0-.42 0-.63-.01.29.96.57 1.92.85 2.89.18 0 .37.02.55.02h-.01Zm-2.02-1.45c-.11-.43-.23-.87-.34-1.3-.16.43-.31.86-.46 1.28.27 0 .53.01.8.02Zm6.94 1.74c-.02.25-.04.51-.05.76-.46-.04-.93-.07-1.39-.1-.3-.67-.61-1.34-.91-2-.18 0-.35-.02-.53-.03-.02.4-.05.79-.07 1.19l.57.03c-.01.25-.03.5-.04.75-.8-.05-1.59-.1-2.39-.14.01-.25.02-.49.04-.74.21 0 .42.02.63.03l.15-2.9c-.21 0-.43-.01-.64-.02.01-.25.02-.49.04-.74.94.02 1.88.05 2.82.09.53.02.9.16 1.12.43s.31.56.29.89c-.04.51-.33.86-.88 1.07.22.46.44.93.66 1.39.2.01.39.03.59.04Zm-2.84-2.08c.14 0 .28.01.41.02.51.02.78-.14.8-.49.01-.17-.04-.3-.15-.39s-.27-.14-.48-.15c-.18 0-.35-.01-.53-.02l-.06 1.03h.01Zm4.67 3 .06-.77c.19.02.37.03.56.05.08-1 .17-2.01.26-3.02-.19-.01-.38-.03-.57-.04l.06-.77c.71.04 1.42.09 2.13.14.47.03.82.09 1.04.16s.41.22.56.45c.15.22.2.48.17.76-.05.45-.3.75-.75.9.53.26.77.66.71 1.19-.03.31-.14.56-.33.76-.19.2-.42.32-.7.37-.27.05-.65.05-1.13 0-.69-.07-1.38-.14-2.08-.2v.02Zm1.81-.61.33.03c.3.03.52 0 .65-.07.13-.08.2-.23.23-.45.02-.23-.03-.41-.15-.51-.12-.11-.33-.17-.61-.2l-.34-.03c-.04.41-.07.82-.11 1.23Zm.18-2c.11 0 .23.02.34.03.23.02.41 0 .53-.07s.19-.21.21-.41c.02-.18-.02-.32-.12-.4s-.29-.14-.55-.16c-.1 0-.2-.02-.3-.02l-.09 1.04h-.02Zm5.88-1.38c.8.08 1.4.39 1.8.93.4.53.55 1.15.46 1.83-.09.69-.39 1.24-.9 1.65-.51.41-1.15.56-1.93.45-.81-.11-1.4-.43-1.79-.96-.38-.53-.54-1.11-.48-1.76.07-.67.36-1.21.87-1.63s1.17-.6 1.97-.51Zm-.1.87c-.35-.04-.67.06-.95.31-.28.24-.45.63-.5 1.15-.05.46.03.84.24 1.15s.49.48.84.53c.35.05.66-.05.94-.29.28-.24.45-.62.52-1.14.06-.46-.01-.85-.21-1.17-.2-.32-.49-.49-.87-.54Zm2.55 4.37c.04-.27.07-.54.11-.81l.61.09c.14-1.06.29-2.13.44-3.2-.21-.03-.41-.05-.62-.08.04-.27.07-.54.11-.81.65.08 1.3.16 1.94.25.42 1.09.83 2.19 1.24 3.3.11-.74.22-1.49.34-2.23l-.6-.09.12-.83c.69.1 1.38.2 2.07.31-.04.28-.09.56-.13.83-.21-.03-.43-.07-.64-.1-.21 1.38-.43 2.75-.64 4.12l-1-.18c-.47-1.32-.94-2.63-1.44-3.92l-.39 2.74.57.09-.12.82c-.66-.11-1.31-.21-1.97-.31Zm5.84-3.23c.04-.28.09-.56.13-.84.73.11 1.47.23 2.2.36-.05.28-.1.56-.14.84-.15-.03-.3-.05-.45-.08-.13.75-.25 1.5-.38 2.25-.05.3-.08.52-.07.66 0 .14.04.26.12.36s.2.17.35.2.29.01.4-.05c.12-.06.2-.15.25-.27s.11-.36.17-.74c.13-.73.26-1.47.38-2.2-.15-.03-.3-.05-.44-.08.05-.28.1-.56.15-.85.61.1 1.22.21 1.83.32l-.15.85c-.19-.03-.37-.07-.56-.1l-.45 2.52c-.06.34-.12.59-.18.74s-.16.29-.3.42c-.14.13-.33.22-.57.27-.24.05-.5.05-.78-.01-.33-.07-.6-.17-.82-.32s-.37-.32-.45-.51c-.09-.19-.13-.38-.14-.55 0-.17.02-.46.09-.87l.36-2.24-.54-.09Zm3.99 5.03c.1-.57.21-1.15.31-1.72.25.05.51.1.76.16-.05.32-.02.57.09.74.11.18.25.29.43.33.14.03.26 0 .38-.09s.19-.21.22-.35c.03-.16 0-.3-.06-.42-.07-.13-.22-.28-.44-.47-.47-.39-.78-.71-.92-.97-.15-.25-.19-.56-.12-.93.08-.44.27-.76.56-.96.3-.2.6-.26.92-.2.36.07.62.28.75.64.03-.14.05-.28.08-.42.26.05.52.1.77.15-.1.52-.2 1.04-.31 1.56-.26-.05-.51-.11-.77-.16.02-.24-.02-.45-.11-.6a.552.552 0 0 0-.73-.23c-.1.06-.16.15-.19.27-.02.1 0 .21.05.32s.24.28.55.53c.3.24.53.44.68.62.15.17.26.38.32.62s.06.5 0 .79c-.1.51-.3.86-.61 1.05-.31.2-.63.25-.98.17-.39-.09-.66-.32-.81-.7-.03.14-.05.29-.08.43-.25-.06-.5-.11-.76-.16h.02ZM78.74 52.47c.22-.04.45-.09.67-.13.09-.9.16-1.8.19-2.72-1.57.27-3.14.54-4.7.81-.14.02-.28.04-.41.04-.55 0-1.08-.19-1.51-.53a2.36 2.36 0 0 1-.89-1.77c-.03-.79-.06-1.58-.1-2.37-2.61 7.34-8.99 13.39-17.32 16.64l5.09 15.64-18-13.05c-.42.01-.84.03-1.26.03-.85 0-1.7-.04-2.54-.09L19.87 78.08l5.26-16.14C15.47 57.76 8.69 49.76 7.81 40.42l-.26-.19h.25c-.05-.62-.09-1.25-.09-1.88 0-14.75 14.68-26.7 32.79-26.7 14.17 0 26.24 7.32 30.82 17.57-.07-1.83-.15-3.66-.22-5.49C63.81 14.5 52.51 8.57 39.82 8.57 17.83 8.55 0 26.34 0 48.28S17.83 88 39.82 88c13.12 0 24.74-6.34 31.99-16.1 1.54-5.68 3.09-11.45 4.62-17.26a3.007 3.007 0 0 1 2.31-2.18ZM289.62 21.81s0-.05-.01-.07c0-.02-.03-.03-.05-.03h-.06s-.03.03-.04.05 0 .04 0 .06c.01.02.04.04.08.06.07.05.12.09.14.13.02.04.03.1.01.15-.02.07-.05.12-.11.16s-.12.04-.19.02-.12-.05-.15-.1a.283.283 0 0 1-.04-.18l.15.04s0 .06.01.08.03.04.06.04h.08s.04-.03.05-.06c0-.03 0-.06-.01-.08-.03-.03-.06-.06-.1-.08-.06-.04-.1-.08-.12-.12s-.02-.09 0-.14c.02-.06.05-.11.1-.14s.11-.04.17-.02c.06.01.11.05.14.1s.04.11.03.17l-.14-.03Zm.26.64-.07-.02-.07-.02.18-.75.1.02.1.02.06.62.34-.52.1.02.1.02-.18.75-.07-.02-.07-.02.14-.57-.34.52h-.06l-.06-.03-.06-.61-.14.57v.02Z"/><path d="M37.96 64.95c.84.05 1.68.09 2.54.09.42 0 .84-.01 1.26-.03l-1.94-1.41-1.86 1.35Zm33.81-24.51L52.14 54.67l2.52 7.75c8.33-3.26 14.71-9.3 17.32-16.64l-.21-5.34ZM25.13 61.93l2.36-7.25L7.81 40.42c.88 9.34 7.66 17.34 17.32 21.52Zm46.19-32.72C66.74 18.96 54.67 11.64 40.5 11.64c-18.11 0-32.79 11.95-32.79 26.7 0 .63.04 1.26.09 1.88h24.41l7.62-23.39 7.62 23.39h24.33c-.15-3.67-.3-7.33-.44-11.01h-.02Zm-13-5.28c-5.72-4.55-12.88-5.61-12.95-5.62l.66-4.75c.34.05 8.51 1.23 15.28 6.62l-3 3.75h.01Z"/><path d="M45.37 18.31c.07.01 7.23 1.07 12.95 5.62l3-3.75c-6.78-5.4-14.94-6.57-15.29-6.62l-.66 4.75Z"/></svg>