<svg fill="currentColor" xmlns="http://www.w3.org/2000/svg" data-name="uuid-4ed832d8-19d8-41ec-a13f-1a8ea327c953" viewBox="0 0 400 116"><path d="M185.1 28.34V6.12h-.11l-8.86 22.23h-2.31l-8.9-22.23h-.07v22.23H161V2.03h6.05l7.9 20.16 7.94-20.16h6.05v26.32h-3.85.01Zm28.68-8.5c0 1.49-.24 2.79-.71 3.89a8.79 8.79 0 0 1-1.96 2.86c-.84.69-1.78 1.25-2.8 1.64-1.07.41-2.21.62-3.36.61-1.21 0-2.33-.2-3.36-.61a9.859 9.859 0 0 1-2.8-1.64 8.51 8.51 0 0 1-1.95-2.86c-.48-1.11-.71-2.4-.71-3.89V2.03h3.85v17.71c0 1.21.19 2.18.57 2.92.38.73.84 1.3 1.37 1.69.54.39 1.09.65 1.65.78.57.13 1.03.19 1.39.19s.81-.06 1.37-.19 1.1-.39 1.64-.78c.53-.39 1-.95 1.39-1.69.39-.73.59-1.71.59-2.92V2.03h3.85v17.82h-.02Zm9.22.71c0 .21.04.59.13 1.12.08.53.27 1.06.55 1.6.28.53.71 1.01 1.28 1.42.57.41 1.34.62 2.32.62 1.21 0 2.22-.39 3.03-1.18.81-.78 1.21-1.87 1.21-3.27 0-.73-.14-1.34-.41-1.81-.26-.46-.61-.86-1.03-1.18-.42-.31-.88-.56-1.37-.75-.48-.18-.95-.37-1.42-.57-.73-.27-1.46-.56-2.19-.85-.5-.2-1-.43-1.48-.68-.36-.19-.71-.41-1.03-.66-.31-.24-.6-.5-.89-.76-.63-.62-1.1-1.38-1.35-2.22-.28-.88-.43-1.8-.43-2.72 0-.76.15-1.56.44-2.4.3-.85.77-1.64 1.37-2.31.65-.72 1.43-1.31 2.3-1.74.91-.46 2-.69 3.26-.69 1.09 0 2.1.17 3.03.52.92.34 1.72.84 2.39 1.48.66.64 1.19 1.41 1.57 2.31s.57 1.91.57 3.02h-3.84c0-.73-.12-1.35-.36-1.83-.21-.45-.52-.85-.91-1.17-.36-.29-.77-.5-1.21-.62-.4-.11-.81-.17-1.23-.18-1.01-.02-1.98.43-2.62 1.21-.29.35-.52.74-.68 1.17-.15.39-.22.8-.23 1.21 0 .64.13 1.17.39 1.58.26.42.58.76.95 1.02s.75.48 1.16.64c.4.16.75.29 1.03.39.83.31 1.72.63 2.67.98.94.34 1.82.82 2.62 1.42.82.64 1.5 1.44 1.99 2.36.54.97.8 2.26.8 3.84 0 1.14-.2 2.19-.59 3.16-.37.94-.93 1.8-1.64 2.53a7.24 7.24 0 0 1-2.55 1.67c-1 .4-2.1.6-3.31.6-.95 0-1.89-.16-2.8-.46-.96-.31-1.85-.81-2.62-1.48-.82-.72-1.48-1.6-1.94-2.58-.51-1.04-.76-2.3-.76-3.77h3.84-.01Zm18.08 7.79V2.03h14.2v3.52h-10.36v7.75h10.36v3.52h-10.36v8h10.36v3.52h-14.2Zm38-8.5c0 1.49-.24 2.79-.71 3.89a8.79 8.79 0 0 1-1.96 2.86c-.84.69-1.78 1.25-2.8 1.64-1.07.41-2.21.62-3.36.61a8.97 8.97 0 0 1-3.36-.61 9.859 9.859 0 0 1-2.8-1.64 8.79 8.79 0 0 1-1.96-2.86c-.48-1.11-.71-2.4-.71-3.89V2.03h3.84v17.71c0 1.21.19 2.18.57 2.92s.84 1.3 1.37 1.69c.49.37 1.06.64 1.65.78.57.13 1.03.19 1.39.19s.81-.06 1.37-.19c.59-.15 1.15-.41 1.64-.78.53-.39 1-.95 1.39-1.69s.59-1.71.59-2.92V2.03h3.85v17.82Zm31.31 8.5V6.12h-.11l-8.86 22.23h-2.31l-8.9-22.23h-.07v22.23h-3.85V2.03h6.05l7.9 20.16 7.94-20.16h6.05v26.32h-3.84Zm28.97-19.06a8.57 8.57 0 0 0-2.68-1.81 8.293 8.293 0 0 0-3.33-.67c-1.23 0-2.38.23-3.4.69-2 .88-3.58 2.51-4.39 4.54-.41 1-.62 2.07-.62 3.15s.21 2.18.63 3.18c.41.99 1.01 1.9 1.76 2.67a8.5 8.5 0 0 0 2.67 1.84c1.06.46 2.2.7 3.36.69 1.19 0 2.31-.23 3.33-.69 1-.44 1.9-1.06 2.67-1.83.75-.76 1.36-1.66 1.77-2.65.42-1 .63-2.06.63-3.17s-.21-2.25-.63-3.27c-.41-1-1.01-1.92-1.77-2.69v.02Zm-6.01 11.91c-1 0-1.87-.19-2.6-.58-.7-.36-1.32-.85-1.82-1.46-.47-.58-.84-1.24-1.07-1.95-.22-.65-.34-1.33-.35-2.01 0-.61.12-1.27.35-1.98.23-.71.6-1.37 1.07-1.95.47-.59 1.08-1.09 1.81-1.48.72-.39 1.6-.59 2.61-.59s1.82.19 2.55.56c.73.37 1.34.85 1.82 1.44a6.57 6.57 0 0 1 1.47 4.07c0 .62-.12 1.28-.35 1.97-.24.7-.6 1.35-1.06 1.93-.5.61-1.11 1.1-1.81 1.46-.72.38-1.6.58-2.6.58h-.02Zm11.95 2.08h2.58v-6.88h5.72v-2.38h-5.72V9.49h5.72V7.11h-8.31v16.16h.01Zm17.24-13.78h3.05v13.78h2.58V9.49h3.06V7.11h-8.69v2.38ZM383 13.97h-6.31V7.11h-2.58v16.16h2.58v-6.92H383v6.92h2.58V7.1H383v6.86Zm15.78-4.48V7.11h-8.84v16.16h8.84v-2.38h-6.26v-4.58h6.26v-2.38h-6.26V9.5h6.26ZM178.16 70.9l-2.92-7.75h-9.47l-2.92 7.75h-4.06l10-26.32h3.45l10 26.32h-4.09Zm-4.24-11.27-3.35-10.07h-.07l-3.38 10.07h6.8ZM212.8 70.9V48.67h-.11l-8.86 22.23h-2.31l-8.9-22.23h-.07V70.9h-3.85V44.58h6.05l7.9 20.16 7.94-20.16h6.05V70.9h-3.85.01Zm12.71 0V44.58h14.2v3.52h-10.36v7.75h10.36v3.52h-10.36v8h10.36v3.52h-14.2Zm34.9 0-8.69-12.2h-.07v12.2h-3.85V44.58h8.15c1.85 0 3.31.2 4.38.6 1.07.4 1.95.94 2.63 1.6.83.8 1.46 1.79 1.83 2.88.39 1.11.59 2.23.59 3.34 0 1.76-.31 3.16-.94 4.21s-1.36 1.87-2.19 2.44c-.83.57-1.67.95-2.51 1.14s-1.48.29-1.9.29l7.37 9.81h-4.81.01Zm-8.75-12.73h2.63c.26 0 .62 0 1.08-.04.46-.02.96-.08 1.5-.18.53-.09 1.08-.25 1.64-.46a5.23 5.23 0 0 0 1.51-.89c.45-.38.82-.86 1.1-1.45.28-.58.43-1.3.43-2.15 0-.55-.1-1.11-.3-1.69a4.25 4.25 0 0 0-1-1.58c-.51-.51-1.13-.91-1.8-1.17-.74-.31-1.65-.46-2.74-.46h-4.06v10.06Zm21.42 12.73V44.58h3.85V70.9h-3.85Zm32.55-19.6c-.29-.32-.59-.63-.89-.94-.46-.46-.97-.88-1.51-1.25a9.59 9.59 0 0 0-2.15-1.07c-.83-.3-1.78-.44-2.85-.44-1.38 0-2.66.27-3.85.8a9.922 9.922 0 0 0-3.1 2.15c-.89.92-1.6 2.01-2.08 3.2-.51 1.24-.77 2.57-.77 3.92 0 1.42.27 2.75.8 3.98.51 1.2 1.24 2.29 2.14 3.24.88.92 1.93 1.66 3.1 2.19 1.18.53 2.4.8 3.68.8 1.4 0 2.73-.31 3.97-.94 1.24-.62 2.33-1.49 3.22-2.54h4.74c-.68 1.21-1.53 2.31-2.53 3.27-1.74 1.67-3.9 2.83-6.25 3.36-1.05.24-2.11.37-3.19.37-1.81.01-3.61-.36-5.27-1.1a13.76 13.76 0 0 1-4.29-2.99 14.295 14.295 0 0 1-2.9-4.38c-.71-1.67-1.08-3.48-1.07-5.3 0-1.92.36-3.71 1.08-5.35.7-1.61 1.69-3.07 2.94-4.3 2.54-2.51 5.97-3.91 9.54-3.89 2.02 0 4.03.43 5.87 1.27.74.33 1.46.76 2.17 1.28 1.19.85 2.08 1.69 2.67 2.52.59.83 1.05 1.54 1.39 2.13h-4.63.02Zm28.35 19.6-2.92-7.75h-9.47l-2.92 7.75h-4.06l10-26.32h3.45l10 26.32h-4.09.01Zm-4.24-11.27-3.35-10.07h-.07l-3.38 10.07h6.8Zm31.73 11.27-13.03-20.34h-.07V70.9h-3.85V44.58h4.2l12.82 20.02h.07V44.58h3.85V70.9h-3.99Zm-188.23 42.67-8.69-12.2h-.07v12.2h-3.84V87.25h8.15c1.85 0 3.31.2 4.38.61 1.07.4 1.95.94 2.63 1.6.83.8 1.46 1.79 1.83 2.88.39 1.11.59 2.23.59 3.34 0 1.76-.31 3.16-.94 4.21-.63 1.05-1.36 1.87-2.19 2.44s-1.67.95-2.51 1.14-1.48.29-1.9.29l7.37 9.81h-4.81Zm-8.76-12.73h2.63c.26 0 .62 0 1.09-.04.46-.02.96-.08 1.5-.18.53-.1 1.08-.25 1.64-.46a5.23 5.23 0 0 0 1.51-.89c.46-.4.84-.89 1.1-1.44.28-.58.43-1.3.43-2.15 0-.55-.1-1.11-.3-1.69a4.25 4.25 0 0 0-1-1.58c-.51-.51-1.13-.91-1.8-1.17-.74-.31-1.65-.46-2.74-.46h-4.06v10.06Zm21.19 12.73V87.25h14.2v3.52h-10.36v7.75h10.36v3.52h-10.36v8h10.36v3.52h-14.2Zm30.93 0-10.61-26.32h4.13l7.65 19.74 7.65-19.74h4.06l-10.57 26.32h-2.32.01Zm44.12-13.09c0 1.77-.35 3.52-1.04 5.15-.67 1.61-1.65 3.08-2.88 4.32a14.234 14.234 0 0 1-4.36 2.99c-1.67.75-3.48 1.12-5.43 1.12s-3.79-.37-5.46-1.12c-1.63-.72-3.1-1.74-4.34-3.01a13.94 13.94 0 0 1-2.87-4.36c-.69-1.64-1.04-3.4-1.03-5.17 0-1.78.34-3.49 1.01-5.14.66-1.62 1.62-3.11 2.83-4.38 1.23-1.28 2.7-2.31 4.33-3.02 1.67-.75 3.52-1.12 5.53-1.12s3.76.36 5.43 1.08c1.63.69 3.11 1.7 4.36 2.95 1.24 1.25 2.22 2.74 2.88 4.38.69 1.69 1.05 3.49 1.04 5.32Zm-3.85.03c0-1.16-.21-2.35-.62-3.55-.41-1.21-1.04-2.33-1.85-3.31a9.491 9.491 0 0 0-3.08-2.44c-1.23-.63-2.67-.94-4.31-.94s-3.18.33-4.41 1a9.764 9.764 0 0 0-3.06 2.51c-.79.98-1.4 2.1-1.8 3.29-.39 1.18-.59 2.3-.59 3.34s.2 2.2.59 3.4c.39 1.2 1 2.31 1.8 3.29.81 1 1.83 1.82 3.08 2.47s2.71.98 4.4.98 3.18-.33 4.41-.98a9.779 9.779 0 0 0 3.06-2.47c.79-.97 1.4-2.07 1.8-3.25.39-1.17.59-2.28.59-3.33Zm11.6 13.05V87.24h3.84v22.8h9.15v3.52h-13 .01Zm36.34-8.5c0 1.5-.24 2.79-.71 3.89a8.79 8.79 0 0 1-1.96 2.86c-.84.69-1.78 1.24-2.8 1.64-1.03.4-2.15.6-3.36.6-1.15.01-2.29-.19-3.36-.6a9.859 9.859 0 0 1-2.8-1.64 8.79 8.79 0 0 1-1.96-2.86c-.48-1.1-.71-2.4-.71-3.89V87.24H291v17.71c0 1.21.19 2.18.57 2.92s.84 1.3 1.37 1.69 1.08.65 1.65.78 1.03.19 1.39.19.81-.06 1.37-.19c.59-.15 1.15-.41 1.64-.78.54-.39 1-.95 1.39-1.69.39-.73.59-1.71.59-2.92V87.24h3.85v17.82h-.01Zm11.38 8.5v-22.8h-5.05v-3.52h13.96v3.52h-5.05v22.8h-3.86Zm15.28 0V87.24h3.85v26.32h-3.85Zm38.92-13.09c0 1.77-.35 3.52-1.03 5.15-.67 1.61-1.65 3.08-2.88 4.32a14.355 14.355 0 0 1-4.36 2.99c-1.67.75-3.48 1.12-5.43 1.12s-3.79-.37-5.46-1.12c-1.63-.72-3.1-1.74-4.35-3.01a13.91 13.91 0 0 1-2.86-4.36c-.69-1.64-1.04-3.4-1.03-5.17 0-1.78.34-3.49 1.01-5.14.66-1.62 1.62-3.11 2.83-4.38 1.23-1.28 2.7-2.31 4.33-3.02 1.67-.75 3.52-1.12 5.53-1.12s3.76.36 5.43 1.08c1.63.69 3.11 1.7 4.36 2.95a13.34 13.34 0 0 1 2.88 4.38c.69 1.69 1.04 3.49 1.03 5.32Zm-3.85.03c0-1.16-.2-2.35-.62-3.55-.41-1.21-1.04-2.33-1.85-3.31a9.598 9.598 0 0 0-3.08-2.44c-1.24-.63-2.67-.94-4.31-.94s-3.18.33-4.41 1a9.764 9.764 0 0 0-3.06 2.51c-.79.98-1.4 2.1-1.8 3.29-.39 1.18-.59 2.3-.59 3.34s.2 2.2.59 3.4c.39 1.2 1 2.32 1.8 3.29.8 1 1.83 1.82 3.08 2.47s2.71.98 4.4.98 3.18-.33 4.41-.98a9.779 9.779 0 0 0 3.06-2.47c.81-1 1.41-2.08 1.8-3.25.39-1.17.59-2.28.59-3.33Zm28.48 13.05-13.03-20.34h-.07v20.34h-3.85V87.23h4.2l12.82 20.03h.07V87.23h3.85v26.32h-3.99ZM21.27 17.78s-1.76-1-3.17-2.04c-1.01-.74-2.36-1.64-2.72-2.5-.13-.31-.12-.67.02-.98.39-.84 1.72-1.75 2.73-2.48 1.42-1.02 3.19-2.01 3.19-2.01.46-.26 1.19-.78.87-1.35s-1.15-.21-1.6.06c0 0-1.75 1.02-3.36 1.72-1.15.51-2.6 1.18-3.52 1.1-.23-.02-.64-.23-.86-.51-.56-.74-.66-2.36-.79-3.6-.18-1.74-.17-3.76-.17-3.76 0-.54-.09-1.42-.74-1.42s-.74.89-.74 1.42c0 0 .02 2.03-.17 3.76-.13 1.25-.24 2.87-.8 3.6-.22.26-.53.43-.87.49-.92.11-2.38-.6-3.52-1.11-1.14-.53-2.26-1.1-3.35-1.73-.46-.26-1.28-.63-1.6-.06-.32.56.4 1.08.86 1.35 0 0 1.77 1 3.19 2.03 1.01.73 2.37 1.63 2.73 2.48.13.32.13.68 0 1-.39.84-1.7 1.77-2.71 2.51-1.02.73-2.08 1.41-3.17 2.04-.46.27-1.18.79-.85 1.35H.12c.33.56 1.14.2 1.6-.08 0 0 1.75-1.03 3.34-1.75 1.14-.52 2.59-1.23 3.51-1.13.31.03.63.2.83.49.52.76.66 2.36.79 3.6.18 1.74.17 3.77.17 3.77 0 .53.09 1.42.74 1.42s.75-.89.75-1.42c0 0-.02-2.03.16-3.77.13-1.24.24-2.86.8-3.6.21-.26.52-.43.85-.48.92-.12 2.38.61 3.52 1.12 1.6.72 3.34 1.75 3.34 1.75.46.27 1.28.63 1.6.07.33-.56-.4-1.09-.86-1.35h.01Zm60.04 0s-1.76-1-3.17-2.04c-1.01-.74-2.36-1.65-2.72-2.5-.12-.32-.12-.67.02-.98.39-.83 1.72-1.74 2.73-2.48 1.42-1.02 3.19-2.01 3.19-2.01.46-.27 1.19-.78.86-1.35-.32-.57-1.14-.2-1.6.06 0 0-1.75 1.02-3.35 1.72-1.15.51-2.61 1.18-3.53 1.1-.23-.02-.65-.23-.86-.51-.56-.73-.66-2.36-.79-3.6-.18-1.74-.17-3.77-.17-3.77-.01-.53-.1-1.42-.75-1.42s-.75.89-.75 1.42c0 0 .02 2.03-.17 3.77-.13 1.25-.24 2.87-.79 3.6-.22.26-.53.43-.87.49-.92.11-2.38-.6-3.53-1.11-1.6-.71-3.35-1.73-3.35-1.73-.46-.26-1.28-.63-1.6-.06-.32.56.4 1.08.86 1.35 0 0 1.76 1 3.18 2.03 1.01.72 2.38 1.63 2.73 2.48.13.32.13.68-.01 1-.39.84-1.7 1.77-2.71 2.51-1.41 1.03-3.17 2.04-3.17 2.04-.46.27-1.18.79-.85 1.35s1.14.19 1.6-.08c0 0 1.75-1.03 3.34-1.75 1.15-.52 2.6-1.23 3.52-1.13.33.04.63.22.83.49.53.76.67 2.36.8 3.6.18 1.74.17 3.77.17 3.77 0 .53.09 1.42.74 1.42s.74-.89.74-1.42c0 0-.02-2.03.16-3.77.13-1.24.25-2.86.8-3.6.21-.26.52-.43.85-.48.92-.12 2.38.61 3.52 1.12 1.14.53 2.26 1.11 3.34 1.75.46.27 1.27.63 1.6.07.32-.56-.4-1.09-.86-1.35h.02Zm60.04 0s-1.76-1.01-3.17-2.04c-1.01-.74-2.36-1.64-2.72-2.5-.13-.32-.12-.67 0-.98.4-.83 1.72-1.74 2.73-2.48 1.42-1.02 3.19-2.01 3.19-2.01.46-.27 1.19-.78.86-1.35-.32-.56-1.14-.2-1.6.06 0 0-1.75 1.02-3.36 1.72-1.14.51-2.6 1.18-3.52 1.1-.34-.06-.65-.24-.87-.51-.56-.73-.67-2.36-.8-3.6-.18-1.74-.17-3.77-.17-3.77.01-.53-.09-1.42-.73-1.42s-.75.89-.75 1.42c0 0 .02 2.03-.17 3.77-.13 1.25-.24 2.87-.8 3.6-.22.26-.53.43-.87.48-.92.11-2.38-.6-3.52-1.1-1.14-.53-2.26-1.1-3.35-1.73-.46-.26-1.28-.63-1.6-.06-.32.56.4 1.08.86 1.35 0 0 1.77 1 3.18 2.03 1.02.72 2.37 1.63 2.73 2.48.14.32.13.68 0 1-.39.84-1.7 1.77-2.71 2.51-1.41 1.03-3.17 2.04-3.17 2.04-.46.27-1.18.79-.86 1.35.33.56 1.14.2 1.61-.08 0 0 1.74-1.03 3.34-1.75 1.14-.52 2.6-1.23 3.51-1.13.33.04.64.22.83.49.53.76.67 2.36.79 3.6.18 1.74.17 3.77.17 3.77 0 .53.09 1.42.74 1.42s.74-.89.74-1.42c0 0 0-2.03.17-3.77.13-1.24.25-2.86.8-3.6.21-.26.51-.43.85-.48.92-.12 2.38.61 3.52 1.12 1.14.53 2.26 1.11 3.35 1.75.46.27 1.27.63 1.6.07.32-.56-.4-1.09-.86-1.35h.03ZM21.27 63.05s-1.76-1.01-3.17-2.04c-1.01-.74-2.36-1.65-2.72-2.49-.13-.31-.12-.67.02-.98.39-.83 1.72-1.75 2.73-2.48 1.42-1.02 3.19-2.02 3.19-2.02.46-.26 1.19-.78.87-1.34-.32-.57-1.15-.21-1.6.05 0 0-1.75 1.02-3.36 1.73-1.15.51-2.6 1.18-3.52 1.1-.23-.02-.64-.23-.86-.51-.56-.73-.66-2.36-.79-3.61-.18-1.74-.17-3.76-.17-3.76 0-.53-.09-1.42-.74-1.42s-.74.89-.74 1.42c0 0 .02 2.03-.17 3.76-.13 1.25-.24 2.87-.8 3.61-.22.26-.53.43-.87.49-.92.11-2.38-.61-3.52-1.11-1.6-.71-3.35-1.73-3.35-1.73-.46-.26-1.28-.63-1.6-.07H.08c-.32.56.4 1.08.86 1.35 0 0 1.77 1 3.19 2.02 1.01.74 2.37 1.63 2.73 2.49.13.32.13.68 0 1-.39.83-1.7 1.76-2.71 2.5C2.74 62.04.98 63.06.98 63.06c-.46.27-1.18.8-.85 1.35.33.57 1.14.2 1.6-.07 0 0 1.75-1.03 3.34-1.75 1.14-.52 2.59-1.23 3.51-1.13.31.04.63.2.83.48.52.76.66 2.36.79 3.61.18 1.74.17 3.77.17 3.77 0 .54.09 1.42.74 1.42s.75-.88.75-1.42c0 0-.02-2.03.16-3.77.13-1.25.24-2.86.8-3.6.21-.26.52-.43.85-.48.92-.12 2.38.61 3.52 1.12 1.6.71 3.34 1.74 3.34 1.74.46.27 1.28.63 1.6.07.33-.56-.4-1.09-.86-1.36h.01Zm60.04 0s-1.76-1.01-3.17-2.04c-1.01-.74-2.36-1.65-2.72-2.49-.12-.32-.12-.67.02-.98.39-.83 1.72-1.75 2.73-2.48 1.42-1.02 3.19-2.01 3.19-2.01.46-.26 1.19-.78.86-1.35-.32-.57-1.14-.2-1.6.06 0 0-1.75 1.02-3.35 1.73-1.15.51-2.61 1.18-3.53 1.1-.23-.02-.65-.23-.86-.51-.56-.73-.66-2.36-.79-3.61-.18-1.74-.17-3.76-.17-3.76 0-.53-.09-1.42-.74-1.42s-.74.89-.74 1.42c0 0 .02 2.03-.17 3.76-.13 1.25-.24 2.87-.79 3.61-.22.26-.53.43-.87.49-.92.11-2.38-.61-3.53-1.11-1.6-.71-3.35-1.73-3.35-1.73-.46-.26-1.28-.62-1.6-.06-.32.57.4 1.09.86 1.35 0 0 1.77 1 3.19 2.02 1.01.73 2.37 1.63 2.73 2.49.13.32.13.68-.01 1-.39.83-1.7 1.76-2.71 2.5-1.41 1.03-3.17 2.05-3.17 2.05-.46.27-1.18.8-.85 1.35.33.57 1.14.2 1.6-.07 0 0 1.75-1.03 3.34-1.75 1.15-.52 2.6-1.23 3.52-1.13.33.04.63.21.83.48.53.76.67 2.36.8 3.61.18 1.74.17 3.77.17 3.77 0 .54.09 1.42.74 1.42s.74-.88.74-1.42c0 0-.02-2.03.16-3.77.13-1.25.25-2.86.8-3.6.22-.26.52-.43.85-.48.92-.12 2.37.61 3.52 1.13 1.6.71 3.34 1.74 3.34 1.74.46.27 1.27.64 1.6.08.32-.56-.4-1.09-.86-1.36v-.03Zm60.04 0s-1.76-1.01-3.17-2.04c-1.01-.74-2.36-1.65-2.72-2.49-.13-.32-.12-.67 0-.98.4-.83 1.72-1.75 2.73-2.48 1.03-.72 2.1-1.39 3.19-2.01.46-.26 1.19-.78.86-1.35-.32-.57-1.14-.2-1.6.06 0 0-1.75 1.02-3.36 1.73-1.14.51-2.6 1.18-3.52 1.1-.23-.02-.65-.23-.87-.51-.56-.73-.67-2.36-.8-3.61-.18-1.74-.17-3.76-.17-3.76 0-.53-.1-1.42-.74-1.42s-.75.89-.75 1.42c0 0 .02 2.03-.17 3.76-.13 1.25-.24 2.87-.8 3.61-.22.26-.53.43-.87.48-.92.11-2.38-.6-3.52-1.11-1.15-.52-2.27-1.1-3.35-1.73-.46-.26-1.28-.62-1.6-.06-.32.56.4 1.09.86 1.35 0 0 1.77 1 3.18 2.02 1.02.73 2.37 1.63 2.73 2.49.14.32.13.68 0 1-.39.83-1.7 1.76-2.71 2.5-1.02.73-2.08 1.41-3.17 2.05-.46.27-1.18.8-.86 1.35.33.57 1.14.2 1.61-.08 0 0 1.74-1.03 3.34-1.75 1.14-.52 2.6-1.23 3.51-1.13.33.04.64.21.83.48.53.76.67 2.36.79 3.61.18 1.74.17 3.77.17 3.77 0 .54.09 1.42.74 1.42s.74-.88.74-1.42c0 0 0-2.03.17-3.77.13-1.25.25-2.86.8-3.6.21-.26.52-.43.85-.48.92-.12 2.38.61 3.52 1.13 1.14.53 2.26 1.11 3.35 1.74.46.27 1.27.63 1.6.07.32-.56-.4-1.09-.86-1.36h.03ZM51.3 40.41s-1.76-1.01-3.18-2.04c-1.01-.74-2.36-1.64-2.72-2.5-.13-.31-.12-.67.02-.98.4-.83 1.72-1.75 2.74-2.48 1.42-1.02 3.19-2.02 3.19-2.02.47-.26 1.19-.78.87-1.35-.32-.56-1.14-.2-1.6.06 0 0-1.75 1.02-3.35 1.73-1.15.51-2.61 1.17-3.53 1.1-.23-.02-.64-.22-.86-.51-.56-.73-.67-2.36-.8-3.61-.18-1.74-.17-3.76-.17-3.76 0-.53-.09-1.42-.74-1.42s-.74.89-.74 1.42c0 0 .02 2.03-.17 3.76-.13 1.25-.24 2.87-.79 3.61-.22.26-.53.43-.87.48-.92.11-2.38-.6-3.52-1.1-1.15-.53-2.27-1.1-3.36-1.73-.46-.26-1.27-.63-1.59-.06-.33.56.4 1.09.86 1.35 0 0 1.77 1 3.19 2.02 1.02.73 2.38 1.63 2.74 2.49.13.32.13.68 0 1-.4.84-1.71 1.76-2.72 2.5-1.41 1.03-3.17 2.04-3.17 2.04-.46.27-1.18.8-.85 1.36.33.57 1.14.19 1.6-.08 0 0 1.75-1.03 3.34-1.75 1.14-.52 2.6-1.23 3.51-1.13.34.03.64.21.84.49.52.76.66 2.36.79 3.6.18 1.74.16 3.77.16 3.77 0 .54.1 1.42.74 1.42s.75-.88.75-1.42c0 0-.02-2.03.17-3.77.13-1.24.24-2.85.8-3.6.21-.26.51-.43.84-.48.92-.12 2.38.61 3.52 1.12 1.14.53 2.26 1.11 3.34 1.75.46.27 1.27.63 1.6.07.32-.56-.4-1.09-.86-1.36h-.02Zm60.04 0s-1.76-1.01-3.18-2.04c-1.01-.74-2.36-1.64-2.72-2.5-.12-.31-.12-.66.01-.98.4-.84 1.72-1.75 2.74-2.48 1.03-.72 2.09-1.4 3.19-2.02.46-.26 1.19-.78.87-1.35-.32-.56-1.14-.2-1.6.06 0 0-1.75 1.02-3.35 1.73-1.15.5-2.6 1.17-3.53 1.09-.23-.02-.64-.23-.86-.51-.56-.73-.66-2.36-.8-3.6-.18-1.74-.16-3.76-.16-3.76 0-.53-.09-1.42-.74-1.42s-.74.89-.74 1.42c0 0 .01 2.03-.17 3.76-.13 1.25-.24 2.87-.79 3.6-.22.26-.53.43-.87.48-.92.11-2.38-.6-3.52-1.1-1.6-.71-3.35-1.73-3.35-1.73-.46-.27-1.28-.63-1.6-.06-.32.56.4 1.08.86 1.35 0 0 1.76 1 3.18 2.02 1.01.73 2.37 1.63 2.73 2.49.14.32.13.68 0 1-.39.84-1.7 1.77-2.71 2.51-1.02.73-2.08 1.41-3.17 2.04-.46.27-1.18.8-.85 1.36.33.57 1.14.19 1.6-.07 0 0 1.75-1.03 3.34-1.75 1.15-.52 2.6-1.23 3.51-1.13.33.04.64.21.83.49.53.76.67 2.36.8 3.6.18 1.74.17 3.77.17 3.77 0 .54.09 1.42.74 1.42s.74-.88.74-1.42c0 0-.01-2.03.16-3.77.14-1.24.25-2.85.8-3.6.22-.26.52-.43.85-.48.92-.12 2.37.61 3.52 1.12 1.14.53 2.26 1.11 3.35 1.75.46.27 1.27.63 1.6.07.32-.56-.4-1.09-.85-1.35h-.03Zm-90.07 67.91s-1.76-1-3.17-2.03c-1.01-.74-2.36-1.65-2.72-2.5-.13-.31-.12-.67.02-.98.39-.83 1.72-1.75 2.73-2.48a38.89 38.89 0 0 1 3.19-2.01c.46-.27 1.19-.79.87-1.35s-1.15-.21-1.6.06c0 0-1.75 1.02-3.36 1.73-1.15.51-2.6 1.17-3.52 1.1-.23-.02-.64-.23-.86-.52-.56-.73-.66-2.36-.79-3.6-.18-1.74-.17-3.76-.17-3.76 0-.53-.09-1.42-.74-1.42s-.74.89-.74 1.42c0 0 .02 2.03-.17 3.76-.13 1.24-.24 2.87-.8 3.6-.22.26-.53.43-.87.49-.92.11-2.38-.6-3.52-1.1-1.14-.52-2.26-1.1-3.35-1.73-.46-.27-1.28-.63-1.6-.06-.32.56.4 1.08.86 1.34 0 0 1.77 1 3.19 2.03 1.01.73 2.37 1.63 2.73 2.49.13.32.13.68 0 1-.39.84-1.7 1.77-2.71 2.51-1.02.73-2.08 1.41-3.17 2.04-.46.27-1.18.8-.85 1.36.33.56 1.14.2 1.6-.07 0 0 1.75-1.03 3.34-1.75 1.14-.52 2.59-1.23 3.51-1.14.31.04.63.21.83.49.52.76.66 2.35.79 3.6.18 1.74.17 3.77.17 3.77 0 .53.09 1.42.74 1.42s.75-.88.75-1.42c0 0-.02-2.03.16-3.76.13-1.25.24-2.87.8-3.6.21-.26.52-.43.85-.48.92-.12 2.38.61 3.52 1.12 1.6.72 3.34 1.75 3.34 1.75.46.27 1.28.63 1.6.07.33-.57-.4-1.09-.86-1.36l-.02-.03Zm60.04 0s-1.76-1-3.17-2.03c-1.01-.73-2.36-1.64-2.72-2.5-.12-.32-.12-.67.02-.98.39-.83 1.72-1.75 2.73-2.48 1.42-1.02 3.19-2.01 3.19-2.01.46-.27 1.19-.79.86-1.35-.32-.57-1.14-.21-1.6.06 0 0-1.75 1.02-3.35 1.73-1.15.5-2.61 1.17-3.53 1.1-.23-.02-.65-.23-.86-.52-.56-.73-.66-2.35-.79-3.6-.18-1.73-.17-3.76-.17-3.76 0-.53-.09-1.42-.74-1.42s-.74.89-.74 1.42c0 0 .02 2.03-.17 3.76-.13 1.25-.24 2.87-.79 3.6-.22.26-.53.44-.87.49-.92.11-2.38-.6-3.53-1.11-1.15-.52-2.27-1.1-3.35-1.73-.46-.27-1.28-.63-1.6-.06-.32.56.4 1.08.86 1.34 0 0 1.77 1 3.19 2.03 1.01.73 2.37 1.63 2.73 2.48.13.32.13.68-.01 1-.39.84-1.7 1.77-2.71 2.51-1.41 1.03-3.17 2.05-3.17 2.05-.46.27-1.18.79-.85 1.35s1.14.2 1.6-.07c0 0 1.75-1.03 3.34-1.76 1.15-.52 2.6-1.23 3.52-1.13.31.03.63.2.83.49.53.75.67 2.35.8 3.6.18 1.74.17 3.77.17 3.77 0 .53.09 1.42.74 1.42s.74-.89.74-1.42c0 0-.02-2.03.16-3.77.13-1.24.25-2.86.8-3.6.21-.26.52-.43.85-.48.92-.12 2.37.61 3.52 1.12 1.14.53 2.25 1.11 3.34 1.75.46.27 1.27.63 1.6.07.32-.56-.4-1.09-.86-1.36h-.01Zm60.04 0s-1.76-1-3.17-2.03c-1.01-.73-2.36-1.64-2.72-2.5-.13-.31-.12-.67 0-.98.4-.83 1.72-1.75 2.73-2.48 1.42-1.02 3.19-2.01 3.19-2.01.46-.27 1.19-.79.86-1.35-.32-.57-1.14-.21-1.6.06 0 0-1.75 1.02-3.36 1.73-1.14.5-2.6 1.17-3.52 1.1-.34-.07-.65-.25-.87-.52-.56-.73-.67-2.35-.8-3.6-.18-1.74-.17-3.76-.17-3.76 0-.53-.1-1.42-.74-1.42s-.75.89-.75 1.42c0 0 .02 2.03-.17 3.76-.13 1.24-.24 2.87-.8 3.6-.22.26-.53.44-.87.49-.92.11-2.38-.6-3.52-1.11-1.6-.7-3.35-1.73-3.35-1.73-.46-.27-1.28-.63-1.6-.06-.32.56.4 1.08.86 1.34 0 0 1.77 1 3.18 2.03 1.02.73 2.37 1.63 2.73 2.49.14.32.13.68 0 1-.39.84-1.7 1.77-2.71 2.51-1.02.73-2.08 1.41-3.17 2.04-.46.27-1.18.8-.86 1.36.33.56 1.14.2 1.61-.07 0 0 1.74-1.04 3.34-1.76 1.14-.52 2.6-1.23 3.51-1.13.34.04.64.22.83.49.53.75.67 2.35.79 3.6.18 1.74.17 3.77.17 3.77 0 .53.09 1.42.74 1.42s.74-.88.74-1.42c0 0 0-2.03.17-3.77.13-1.24.25-2.86.8-3.6.21-.26.51-.43.85-.48.92-.12 2.38.61 3.52 1.12 1.14.53 2.26 1.12 3.35 1.75.46.27 1.27.63 1.6.07.32-.56-.4-1.09-.86-1.36h.03ZM51.3 85.69s-1.76-1-3.18-2.04c-1.01-.74-2.36-1.65-2.72-2.49-.13-.32-.12-.67.02-.98.4-.83 1.72-1.74 2.74-2.48a38.89 38.89 0 0 1 3.19-2.01c.47-.27 1.19-.78.87-1.35-.32-.56-1.14-.2-1.6.06 0 0-1.75 1.02-3.35 1.73-1.15.51-2.61 1.17-3.53 1.1-.23-.02-.64-.23-.86-.52-.56-.73-.67-2.36-.8-3.6-.18-1.74-.17-3.77-.17-3.77 0-.53-.09-1.42-.74-1.42s-.74.89-.74 1.42c0 0 .02 2.03-.17 3.77-.13 1.24-.24 2.87-.79 3.6-.22.26-.53.43-.87.49-.92.1-2.38-.6-3.52-1.11-1.6-.71-3.36-1.73-3.36-1.73-.46-.26-1.27-.63-1.59-.06-.33.56.4 1.08.86 1.35 0 0 1.77 1 3.19 2.02 1.02.73 2.38 1.63 2.74 2.49.13.32.13.68 0 .99-.4.84-1.71 1.77-2.72 2.5-1.41 1.04-3.17 2.05-3.17 2.05-.46.27-1.18.8-.85 1.36s1.14.19 1.6-.07c0 0 1.75-1.04 3.34-1.76 1.14-.52 2.6-1.23 3.51-1.13.34.03.64.21.84.48.52.76.66 2.36.79 3.61.18 1.74.16 3.77.16 3.77 0 .54.1 1.42.74 1.42s.75-.88.75-1.42c0 0-.02-2.03.17-3.77.13-1.24.24-2.87.8-3.6.21-.26.51-.43.84-.48.92-.12 2.38.62 3.52 1.13 1.14.53 2.26 1.11 3.34 1.74.46.28 1.27.64 1.6.08.32-.56-.4-1.09-.86-1.36h-.02Zm60.04 0s-1.76-1-3.18-2.04c-1.01-.74-2.36-1.65-2.72-2.49-.12-.32-.12-.67.01-.98.4-.83 1.72-1.75 2.74-2.48 1.03-.72 2.09-1.4 3.19-2.02.46-.26 1.19-.78.87-1.34s-1.14-.2-1.6.06c0 0-1.75 1.02-3.35 1.72-1.15.51-2.6 1.18-3.53 1.1-.23-.01-.64-.22-.86-.51-.56-.73-.66-2.36-.8-3.6-.18-1.74-.16-3.77-.16-3.77 0-.54-.09-1.42-.74-1.42s-.74.88-.74 1.42c0 0 .01 2.03-.17 3.77-.13 1.24-.24 2.87-.79 3.6-.22.26-.53.43-.87.49-.92.11-2.38-.6-3.52-1.1-1.15-.52-2.26-1.1-3.35-1.74-.46-.26-1.28-.62-1.6-.06-.32.56.4 1.08.86 1.35 0 0 1.76 1 3.18 2.02 1.01.73 2.37 1.63 2.73 2.49.11.27.15.65 0 .99-.39.84-1.7 1.76-2.71 2.5-1.02.73-2.08 1.42-3.17 2.05-.46.27-1.18.79-.85 1.35s1.14.2 1.6-.08c0 0 1.75-1.03 3.34-1.75 1.15-.52 2.6-1.23 3.51-1.13.33.03.64.21.83.48.53.76.67 2.36.8 3.6.18 1.74.17 3.77.17 3.77 0 .53.09 1.42.74 1.42s.74-.88.74-1.42c0 0-.01-2.03.16-3.77.14-1.24.25-2.86.8-3.6.22-.26.52-.43.85-.48.92-.12 2.37.62 3.52 1.13 1.14.53 2.26 1.11 3.35 1.74.46.27 1.27.64 1.6.08.32-.56-.4-1.09-.86-1.36h-.02Z"/></svg>