<svg xmlns="http://www.w3.org/2000/svg" data-name="Layer 1" viewBox="0 0 420 59" fill="currentColor"><path d="M0 6.91C0 3.41 2.76.61 6.28.61H7.6c2.99 0 4.79 1.46 6.52 3.67l24.15 31.79V6.64c0-3.44 2.76-6.2 6.19-6.2s6.19 2.76 6.19 6.2v45.39c0 3.5-2.76 6.3-6.28 6.3h-.41c-3.02 0-4.79-1.49-6.52-3.67L12.37 21.73V52.3c0 3.44-2.76 6.17-6.19 6.17S0 55.7 0 52.3zM64.26 51.75V7.27c0-3.5 2.76-6.3 6.28-6.3h31.56c3.09 0 5.61 2.53 5.61 5.62s-2.52 5.53-5.61 5.53H76.73v11.59h21.71c3.09 0 5.61 2.53 5.61 5.62s-2.52 5.53-5.61 5.53H76.73v11.96h25.78c3.09 0 5.61 2.53 5.61 5.62s-2.52 5.53-5.61 5.53H70.54c-3.49 0-6.28-2.76-6.28-6.26M118.77 6.91c0-3.5 2.76-6.3 6.25-6.3h1.39c2.71 0 4.56 1.4 5.7 3.27l15.15 24.7 15.22-24.77c1.32-2.12 3.09-3.17 5.61-3.17h1.39c3.49 0 6.28 2.76 6.28 6.3v45.29c0 3.5-2.76 6.26-6.28 6.26s-6.19-2.86-6.19-6.26V23.78l-11 16.94c-1.32 1.95-2.93 3.17-5.2 3.17s-3.93-1.22-5.2-3.17l-10.84-16.7v28.35c0 3.44-2.76 6.11-6.19 6.11s-6.11-2.68-6.11-6.11V6.88v.03ZM217.21 0c-17.57 0-30.34 13.3-30.34 29.52v.14c0 16.25 12.59 29.34 30.17 29.34s30.34-13.27 30.34-29.48v-.17c0-16.22-12.59-29.34-30.17-29.34Zm17.11 29.66-.02.03c0 9.78-7 17.76-17.09 17.76s-17.24-8.15-17.24-17.93v-.17c0-9.78 6.99-17.76 17.09-17.76s17.26 8.15 17.26 17.93zM257.65 33.58V6.77c0-3.5 2.76-6.3 6.25-6.3s6.25 2.76 6.25 6.3v26.49c0 9.29 4.65 14.1 12.3 14.1s12.3-4.66 12.3-13.69V6.77c0-3.5 2.76-6.3 6.28-6.3s6.28 2.76 6.28 6.3v26.41c0 17.29-9.68 25.76-24.97 25.76s-24.65-8.56-24.65-25.36M367.56 19.95v-.17c0-5.39-1.72-9.88-4.89-13.05-3.76-3.75-9.37-5.79-16.6-5.79H326.3c-3.49 0-6.24 2.79-6.25 6.28h.03l.03-.03v44.98c0 3.5 2.76 6.26 6.25 6.26s6.25-2.76 6.25-6.26V39.7h9.99l12.2 15.5c1.47 1.9 3.18 3.27 6.19 3.27s5.94-2.26 5.94-5.76c0-1.95-.81-3.27-2.04-4.8l-8.72-10.6c6.91-2.86 11.39-8.38 11.39-17.35Zm-12.69.65c0 4.8-3.48 8.07-9.59 8.07h-12.73V12.28h12.47c6.11 0 9.85 2.76 9.85 8.15zM320.06 7.24v-.02zM377.73 51.98c-1.39-.99-2.35-2.76-2.35-4.71 0-3.27 2.58-5.79 5.84-5.79 1.63 0 2.76.58 3.57 1.13 4.31 3.17 9.04 5.12 14.57 5.12 5.12 0 8.22-2.04 8.22-5.39v-.17c0-3.17-1.94-4.8-11.48-7.25-11.48-2.94-18.86-6.11-18.86-17.44v-.17C377.24 6.98 385.56.1 397.18.1c6.92 0 12.94 1.81 18.04 5.07 1.39.82 2.76 2.53 2.76 4.98 0 3.27-2.62 5.79-5.87 5.79-1.22 0-2.21-.31-3.16-.89-4.15-2.45-8.05-3.85-11.95-3.85-4.79 0-7.33 2.21-7.33 4.98v.17c0 3.75 2.44 4.98 12.3 7.49 11.54 3.03 18.04 7.16 18.04 17.11v.14c0 11.32-8.63 17.69-20.89 17.69-7.47 0-15.05-2.28-21.4-6.85"/></svg>