<svg fill="currentColor" xmlns="http://www.w3.org/2000/svg" data-name="uuid-9c6a6007-5b51-4ec9-9200-67521b5a7cbe" viewBox="0 0 400 76"><path d="M69.23 1.77h19.09v35.7h24.01v10.38h-43.1V1.77ZM311.24 49.7c-14.88 0-27.4-4.45-27.4-16.72V1.77h18.48v29.79c0 5.76 4.24 8.4 8.92 8.4s8.91-2.63 8.91-8.4V1.77h18.48v31.21c0 12.27-12.51 16.72-27.4 16.72Zm66.12-35.68h19.53C395.87 3.44 381.05.28 369.57.28s-26.43 3.77-26.43 15.32c0 8.44 8.21 11.13 13.97 12.31 4.09.83 10.9 2 14.31 2.75 4.74 1.04 7.19 2.01 7.19 4.82 0 3-2.76 4.54-8.41 4.54s-8.57-1.67-9.46-5.48h-19.9c1.17 12.55 17.16 15.3 29.79 15.3s27.89-3.04 27.89-15.48c0-6.75-4.32-11.25-14.98-13.4-5.58-1.12-13.3-2.58-16.27-3.09-3.94-.69-5.34-2.12-5.34-4.06s1.91-4.11 7.43-4.11c4.67 0 7.18 1.37 8.02 4.32h-.02ZM263.11 30.88c13.75 0 17.25-8.8 17.25-14.41 0-5.17-2.96-14.7-17.24-14.7h-36.97v46.09h18.15V30.89h18.81Zm-18.8-10.06v-8.99h12.12c3.02 0 5.6 1.42 5.6 4.34 0 2.58-1.48 4.65-5.62 4.65h-12.1Zm-109-17.93.52-1.12h19.16l-19.93 30.57v15.52h-18.13V32.34L97.05 1.77h19.09l.53 1.12 8.64 15.26c.57.98.74.98 1.37 0l8.62-15.26Zm57.94 44.96.34-.92 9.74-22.77c.25-.6.84-.44.84.09v23.6h15.63V1.77h-18.89l-.35.99-11.65 26.44c-.43 1-.83 1-1.26 0L176.01 2.76l-.35-.99h-18.9v46.09h15.64v-23.6c0-.52.59-.69.85-.09l9.73 22.77.34.92h9.93ZM64.91 24.81c0 15.48-13.35 24.8-31.98 24.8S.96 40.29.96 24.81 14.31 0 32.94 0s31.98 9.32 31.98 24.81Zm-19.22 0c0-9.32-4.8-15.08-12.75-15.08s-12.75 5.75-12.75 15.08 4.79 15.07 12.75 15.07 12.75-5.75 12.75-15.07ZM0 70.82 200 76l200-5.18v-2.37l-200-5.19L0 68.45v2.37Z"/></svg>