<svg fill="currentColor" xmlns="http://www.w3.org/2000/svg" data-name="uuid-4def8868-b2cf-4ac3-9998-384ef79a1764" viewBox="0 0 400 122"><path d="M95.99.65C66.21-.68 32.68.11 14.4 2.29 7.16 3.15.93 7.98.48 19.1-.69 47.72.17 72.19 4.39 97.24c2.45 14.56 8.87 24.73 32.45 24.73 21.17 0 42.19.58 63-3.36 13.05-2.47 18.1-12.49 18.86-26.65 1.17-21.64 0-45.23-2.25-68.63C115.17 10.03 108.56 1.22 96 .66h-.01ZM40.83 19.1c-.1-2.6 1.93-4.79 4.52-4.88 2.6-.09 4.78 1.93 4.87 4.53.03.85.78 20.86.69 29.03-.03 2.58-2.13 4.66-4.7 4.66h-.05a4.718 4.718 0 0 1-4.66-4.76c.08-7.95-.68-28.38-.68-28.58h.01Zm7.37 38.3c3.75 1.82 5.83 4.25 7.21 6.56 2.54-.83 5.72-1.28 9.82-.04 4.57 1.39 8.25 4.55 10.38 8.9 2.14 4.37 2.39 9.43.69 13.87-4.06 10.63-22.22 17.66-32.69 20.91-.69.21-1.41.32-2.13.32-2.54 0-5.02-1.33-6.36-3.58-5.63-9.42-14.46-26.8-10.4-37.43 1.72-4.51 5.34-8.14 9.92-9.96 4.48-1.78 9.3-1.63 13.56.43v.02Zm29.75-35.67c-.71 1.58-4.31 11.67-6.95 19.05-2.6 7.27-4.22 11.8-4.75 13.09a4.703 4.703 0 1 1-8.71-3.56c.48-1.17 2.57-7.03 4.6-12.7 3.84-10.76 6.42-17.94 7.22-19.71a4.702 4.702 0 0 1 6.2-2.39h.01c2.37 1.06 3.43 3.85 2.37 6.22Zm15.1 13.65a4.683 4.683 0 0 1 6.62-.33s.01 0 .02.01a4.72 4.72 0 0 1 .32 6.65C98.2 43.7 82.28 61.24 79.44 63.63c-.84.71-1.91 1.1-3.02 1.1-1.39 0-2.71-.61-3.6-1.68a4.72 4.72 0 0 1 .58-6.64c1.67-1.4 12.71-13.39 19.66-21.04h-.01ZM31.6 54.66c-.58.24-1.18.35-1.77.35-1.85 0-3.61-1.11-4.36-2.93l-6.41-15.75c-.98-2.41.17-5.16 2.58-6.14 2.4-.98 5.15.17 6.13 2.57s6.41 15.76 6.41 15.76c.98 2.41-.17 5.16-2.58 6.14Zm73.79 32.26a4.71 4.71 0 0 1-5.22 4.13c-.03 0-6.54-.62-13.82 3.28a4.7 4.7 0 0 1-6.36-1.91s0-.01-.01-.02c-1.23-2.29-.36-5.15 1.93-6.38 9.99-5.36 18.98-4.37 19.36-4.33 2.58.31 4.42 2.65 4.12 5.23ZM148.34 14.23l13.82-.24c2.35-.04 4.37.27 6.05.92 1.68.65 3.07 1.53 4.17 2.63s1.92 2.39 2.46 3.86c.54 1.47.82 3.01.85 4.6.04 2.05-.28 3.85-.96 5.4-.68 1.55-1.6 2.85-2.78 3.9s-2.54 1.85-4.08 2.41c-1.55.56-3.17.85-4.88.88l-5.86.1.23 13.4-8.36.15-.66-38.02Zm13.68 17.43c1.59-.03 2.85-.53 3.76-1.52.91-.99 1.35-2.25 1.33-3.81-.03-1.6-.53-2.89-1.49-3.88-.97-.99-2.25-1.47-3.84-1.44l-4.95.09.18 10.66 5.01-.09Zm17.16-17.42 8.14-.14.24 13.85c.85-1.04 2-1.85 3.43-2.43s2.89-.88 4.37-.9c3.07-.05 5.54.82 7.41 2.61s2.84 4.47 2.9 8.05l.29 16.53-8.14.14-.27-15.27c-.03-1.56-.45-2.77-1.26-3.63s-1.88-1.28-3.21-1.26c-.87.02-1.65.19-2.32.53-.68.33-1.24.77-1.69 1.31a5.19 5.19 0 0 0-.99 1.87c-.22.71-.32 1.46-.3 2.26l.25 14.36-8.19.14-.66-38.02Zm30.23 24.64c-.03-1.97.28-3.83.96-5.58s1.62-3.27 2.85-4.58 2.72-2.36 4.47-3.13c1.75-.77 3.69-1.18 5.81-1.21 2.13-.04 4.07.3 5.82 1.01 1.76.71 3.27 1.7 4.55 2.97 1.27 1.27 2.28 2.76 3.01 4.48.73 1.72 1.12 3.56 1.15 5.54s-.28 3.84-.96 5.58c-.67 1.74-1.62 3.27-2.85 4.58s-2.71 2.37-4.44 3.16-3.66 1.2-5.78 1.24c-2.13.04-4.07-.31-5.85-1.04s-3.3-1.73-4.58-3a14.024 14.024 0 0 1-3.01-4.48c-.73-1.72-1.12-3.56-1.15-5.54m14.46 6.93c1.02-.02 1.93-.23 2.72-.65.79-.41 1.45-.97 1.99-1.66s.93-1.47 1.18-2.33.37-1.75.35-2.66c0-.91-.16-1.79-.44-2.64s-.7-1.6-1.26-2.26a6.047 6.047 0 0 0-2.05-1.56c-.8-.38-1.72-.57-2.74-.55s-1.94.23-2.75.65c-.81.41-1.47.96-1.99 1.63-.52.68-.91 1.44-1.18 2.3-.27.86-.4 1.75-.38 2.66.02.91.17 1.79.47 2.64s.72 1.61 1.26 2.29 1.23 1.2 2.05 1.59 1.75.57 2.77.55m44.11 3.08c-.3.2-.75.52-1.35.96-.6.45-1.38.89-2.34 1.32-.96.44-2.1.82-3.42 1.17s-2.84.54-4.54.56c-2.28.04-4.33-.28-6.16-.95-1.83-.67-3.4-1.62-4.69-2.85-1.29-1.23-2.29-2.72-2.98-4.48-.7-1.76-1.06-3.7-1.1-5.82-.03-1.86.25-3.66.85-5.4.59-1.74 1.47-3.26 2.62-4.58 1.15-1.31 2.58-2.37 4.27-3.18s3.62-1.23 5.78-1.27 4.07.31 5.71 1.04c1.65.73 3.04 1.76 4.18 3.09 1.14 1.33 2.02 2.93 2.62 4.8s.92 3.93.96 6.17l.02 1.37-19 .33c.06 1.44.72 2.7 1.97 3.76 1.25 1.06 2.96 1.57 5.12 1.54 2.12-.04 3.84-.38 5.16-1.03 1.32-.65 2.27-1.21 2.87-1.67l3.45 5.13Zm-7.4-13.16c0-.57-.13-1.15-.37-1.73-.24-.59-.59-1.12-1.05-1.61-.46-.49-1.04-.89-1.73-1.2-.69-.31-1.51-.46-2.46-.44-.95.02-1.78.19-2.49.53-.72.34-1.31.75-1.77 1.26-.46.5-.82 1.05-1.05 1.64-.24.59-.35 1.18-.34 1.75l11.27-.2Zm12.62-10.21 7.85-.14.28 2.9c.85-1.08 1.99-1.95 3.4-2.63 1.41-.67 2.89-1.02 4.45-1.05 3.07-.05 5.53.82 7.36 2.61s2.78 4.47 2.84 8.05l.29 16.53-8.19.14-.27-15.39c-.02-1.48-.42-2.65-1.17-3.52-.75-.86-1.8-1.28-3.12-1.26-.91.02-1.7.19-2.38.53s-1.24.77-1.69 1.31c-.44.54-.78 1.16-.99 1.87s-.32 1.46-.3 2.26l.25 14.36-8.14.14-.47-26.73v.02Zm33.47-11.47 4.88-.09c1.07-.02 1.96.84 1.97 1.91l.06 3.47c.02 1.07-.83 1.96-1.91 1.98l-4.88.09c-1.07.02-1.95-.84-1.97-1.91l-.06-3.47c-.02-1.07.83-1.96 1.91-1.98m-1.46 11.31 8.19-.14.47 26.73-8.19.14-.46-26.73h-.01Zm21.87 13.36-9.96-13.17 9.79-.17 4.9 7.04 4.71-7.21 8.93-.16-9.16 12.94 10.48 13.78-9.78.17-5.43-7.6-5.21 7.79-8.93.15 9.66-13.56ZM182.53 99.96c-.78 1.12-1.73 2.17-2.85 3.16-1.12.99-2.37 1.86-3.74 2.6-1.37.75-2.86 1.34-4.46 1.79-1.6.45-3.28.68-5.03.71-2.88.05-5.53-.4-7.93-1.34-2.41-.95-4.49-2.29-6.24-4.03-1.76-1.74-3.13-3.8-4.12-6.2-.99-2.4-1.51-5.04-1.56-7.93-.05-2.81.38-5.45 1.29-7.92.9-2.47 2.2-4.62 3.9-6.45 1.69-1.83 3.74-3.3 6.13-4.38 2.39-1.09 5.05-1.66 7.97-1.71 3.53-.06 6.62.53 9.28 1.78s4.88 3.07 6.67 5.47l-5.76 5.75c-1.17-1.58-2.54-2.84-4.11-3.78s-3.44-1.39-5.6-1.36c-1.71.03-3.24.37-4.59 1.02-1.35.65-2.5 1.53-3.43 2.65s-1.64 2.42-2.12 3.89c-.49 1.47-.72 3.03-.69 4.66.03 1.67.31 3.23.85 4.66.54 1.43 1.29 2.68 2.26 3.72.97 1.05 2.12 1.86 3.46 2.45 1.34.59 2.84.86 4.51.83 1.37-.02 2.55-.19 3.55-.49s1.89-.7 2.65-1.19 1.45-1.05 2.05-1.69 1.17-1.28 1.73-1.94l5.95 5.25-.02.02Zm4.18-30.45 8.14-.14.24 13.85c.85-1.04 2-1.85 3.43-2.43s2.89-.88 4.37-.9c3.07-.05 5.54.82 7.41 2.61s2.84 4.47 2.9 8.05l.29 16.53-8.14.14-.27-15.27c-.03-1.56-.45-2.77-1.26-3.63s-1.88-1.28-3.21-1.26c-.87.02-1.65.19-2.32.53-.68.33-1.24.77-1.69 1.31a5.19 5.19 0 0 0-.99 1.87c-.22.71-.32 1.46-.3 2.26l.25 14.36-8.19.14-.66-38.02Zm33.53-.18 5.37-.09c.94-.02 1.71.73 1.73 1.67l.07 3.95c.02.94-.73 1.71-1.67 1.73l-5.37.09c-.94.02-1.71-.73-1.73-1.67l-.07-3.95c-.02-.94.73-1.71 1.67-1.73m-1.22 11.31 8.19-.14.47 26.73-8.19.14-.46-26.73Zm14-11.28 8.19-.14.66 38.01-8.19.14-.66-38.01Zm32.72 35.17c-.82 1-1.87 1.85-3.17 2.53-1.3.69-2.78 1.05-4.45 1.08-1.63.03-3.16-.27-4.6-.89a10.81 10.81 0 0 1-3.75-2.7c-1.06-1.18-1.91-2.61-2.55-4.29s-.97-3.58-1.01-5.71c-.04-2.39.35-4.5 1.17-6.32.82-1.82 1.9-3.33 3.22-4.53 1.33-1.2 2.81-2.11 4.45-2.73 1.64-.62 3.26-.94 4.85-.97 1.29-.02 2.3.05 3.02.21.72.16 1.47.36 2.23.62l-.2-11.63 8.14-.14.66 38.02-7.62.13-.39-2.67Zm-.46-16.7c-.57-.33-1.2-.57-1.86-.71-.67-.14-1.49-.2-2.48-.18-2.09.04-3.7.77-4.83 2.19-1.13 1.43-1.68 3.24-1.64 5.44.03 1.94.54 3.52 1.51 4.73.97 1.22 2.4 1.81 4.3 1.78.91-.02 1.69-.19 2.35-.53.66-.33 1.2-.77 1.63-1.31s.73-1.17.91-1.9.26-1.47.25-2.23l-.13-7.3v.02Zm14.2-7.12 7.85-.14.34 3.36c.67-.92 1.59-1.81 2.77-2.67s2.72-1.3 4.62-1.34c.72-.01 1.34.02 1.85.08.51.07 1.02.19 1.51.37l-1.18 7.26c-.84-.25-1.83-.37-2.97-.35-1.93.03-3.49.64-4.66 1.82s-1.74 2.83-1.71 4.96l.23 13.22-8.19.14-.47-26.73v.02Zm47 23.45c-.3.2-.75.52-1.35.96-.6.45-1.38.89-2.34 1.32-.96.44-2.1.82-3.42 1.17s-2.84.54-4.54.56c-2.28.04-4.33-.28-6.16-.95-1.83-.67-3.4-1.62-4.69-2.85-1.29-1.23-2.29-2.72-2.98-4.48-.7-1.76-1.06-3.7-1.1-5.82-.03-1.86.25-3.66.85-5.4.59-1.74 1.47-3.26 2.62-4.58 1.15-1.31 2.58-2.37 4.27-3.18s3.62-1.23 5.78-1.27c2.16-.04 4.07.31 5.71 1.04 1.65.73 3.04 1.76 4.18 3.09 1.14 1.33 2.02 2.93 2.62 4.8s.92 3.93.96 6.17l.02 1.37-19 .33c.06 1.44.72 2.7 1.97 3.76 1.25 1.06 2.96 1.57 5.12 1.54 2.12-.04 3.84-.38 5.16-1.03s2.27-1.21 2.87-1.67l3.45 5.13ZM319.08 91c0-.57-.13-1.15-.37-1.73-.24-.59-.59-1.12-1.05-1.61-.46-.48-1.04-.88-1.73-1.2-.69-.31-1.51-.46-2.46-.44-.95.02-1.78.19-2.49.53-.72.34-1.31.75-1.77 1.26-.46.5-.82 1.05-1.05 1.64-.24.59-.35 1.18-.34 1.75l11.27-.2h-.01Zm12.62-10.21 7.85-.14.28 2.9c.85-1.08 1.99-1.95 3.4-2.63 1.41-.67 2.89-1.02 4.45-1.05 3.07-.05 5.53.82 7.36 2.61s2.78 4.47 2.84 8.05l.29 16.53-8.19.14-.27-15.39c-.02-1.48-.42-2.65-1.17-3.52-.75-.86-1.8-1.28-3.12-1.26-.91.02-1.7.19-2.38.53-.68.33-1.24.77-1.69 1.31-.44.54-.78 1.16-.99 1.87s-.32 1.46-.3 2.26l.25 14.36-8.14.14-.47-26.73v.02Zm30.52-11.43 4.47-.08c1.07-.02 1.96.84 1.97 1.91 0 .2-.02.4-.08.59L365.82 81a1.93 1.93 0 0 1-1.83 1.38l-2.52.05c-1.15.02-2.07-.96-1.97-2.11l.8-9.18c.09-.99.91-1.76 1.9-1.78m10.42 29.81c.89.78 2.04 1.43 3.48 1.94s2.81.75 4.14.73c1.21-.02 2.22-.19 3.01-.51s1.18-.91 1.16-1.79c0-.34-.1-.65-.27-.94-.18-.28-.49-.54-.95-.78-.46-.24-1.1-.48-1.92-.74-.82-.25-1.86-.54-3.12-.86-1.03-.25-2.05-.58-3.06-1s-1.91-.94-2.7-1.58c-.79-.63-1.43-1.4-1.92-2.3-.49-.9-.75-1.96-.77-3.18-.02-1.25.24-2.39.79-3.41s1.32-1.9 2.32-2.66c.99-.76 2.18-1.35 3.55-1.77 1.38-.42 2.86-.65 4.46-.68 2.28-.04 4.27.18 5.99.66s3.3 1.21 4.76 2.17l-3.38 5.47c-.96-.59-1.96-1.09-3.01-1.49-1.13-.44-2.39-.64-3.8-.62-1.25.02-2.16.22-2.72.59s-.84.86-.83 1.47c.02.87.61 1.51 1.8 1.91 1.18.4 2.78.84 4.8 1.34 2.74.71 4.74 1.72 6 3.03s1.9 3.06 1.94 5.27c.03 1.48-.29 2.76-.93 3.84a8.375 8.375 0 0 1-2.63 2.7c-1.11.72-2.37 1.27-3.78 1.63-1.42.37-2.87.56-4.34.59-2.39.04-4.65-.24-6.79-.85-2.13-.61-3.88-1.57-5.23-2.87l3.95-5.31Z"/><path d="M42.51 97.75c13.18-4.32 23.01-10.07 24.71-14.53.74-1.93.61-4.16-.34-6.11-.93-1.9-2.52-3.27-4.48-3.87-2.53-.77-3.82-.18-6.17.87-.42.19-.85.38-1.28.56a4.859 4.859 0 0 1-6.29-2.41c-.15-.32-.3-.65-.45-.97-1.12-2.45-1.79-3.93-4.26-5.13-.95-.46-1.97-.69-3.01-.69-.92 0-1.84.18-2.75.54-2.03.81-3.68 2.45-4.42 4.39-1.7 4.46 1.78 15.32 8.72 27.34h.02Z"/><path fill="#3d3935" d="M396.46 76.25c-.67 0-1.28-.15-1.82-.44-.54-.3-.96-.71-1.27-1.23-.3-.52-.46-1.13-.46-1.83s.15-1.32.46-1.84.73-.93 1.27-1.23 1.14-.44 1.82-.44 1.29.15 1.82.44c.53.3.95.71 1.26 1.23.3.52.46 1.14.46 1.84s-.15 1.3-.46 1.83c-.31.52-.73.93-1.26 1.23s-1.14.44-1.82.44Zm0-.86c.51 0 .96-.11 1.34-.34.39-.22.69-.53.92-.93.22-.4.33-.86.33-1.38 0-.8-.24-1.44-.72-1.93s-1.11-.73-1.87-.73c-.5 0-.94.11-1.34.33-.39.22-.7.53-.92.93s-.33.86-.33 1.39.11.98.33 1.38c.22.4.53.71.92.93s.84.34 1.34.34Zm-1.23-1.07v-3.41h1.41c.34 0 .62.1.84.29s.33.45.33.77c0 .26-.06.47-.18.65-.12.17-.27.3-.46.38l.84 1.32h-.87l-.75-1.23h-.42v1.23h-.75.01Zm.75-1.81h.43c.2 0 .35-.04.47-.12.11-.08.17-.22.17-.41 0-.17-.05-.29-.14-.36a.57.57 0 0 0-.36-.11h-.57v1Z"/></svg>