<svg fill="currentColor" xmlns="http://www.w3.org/2000/svg" data-name="uuid-d7cdc35b-518b-4e3f-9abe-903db71907d8" viewBox="0 0 142.52 22.52"><path fill-rule="evenodd" d="M.44 21.73v-4.29c2.44.77 4.6 1.15 6.48 1.15 2.59 0 3.89-.68 3.89-2.05 0-.51-.19-.94-.57-1.29-.39-.37-1.38-.88-2.97-1.53-2.86-1.18-4.72-2.18-5.59-3C.56 9.63 0 8.25 0 6.58c0-2.15.82-3.79 2.45-4.91C4.07.56 6.17 0 8.77 0c1.43 0 3.5.26 6.21.79v4.12C12.97 4.1 11.09 3.7 9.36 3.7c-2.43 0-3.65.67-3.65 2.01 0 .5.25.91.74 1.23.41.25 1.53.8 3.37 1.62 2.65 1.18 4.41 2.2 5.29 3.07 1.04 1.03 1.56 2.37 1.56 4 0 2.35-1.02 4.15-3.07 5.38-1.66 1-3.8 1.5-6.44 1.5-2.23 0-4.47-.26-6.73-.79ZM20.1.38h6.06v21.7H20.1V.38Zm11.62 21.71V.38h15.55v3.93h-9.71v4.9h8.45v3.58h-8.45v5.15h9.96v4.15h-15.8Zm19.76 0V.38h7.86l5.46 13.87L70.4.38h7.47v21.71h-5.75V6.71L65.75 22.3h-3.76L55.75 6.71v15.37h-4.27Zm31.95 0V.38h15.55v3.93h-9.71v4.9h8.45v3.58h-8.45v5.15h9.96v4.15h-15.8Zm19.79 0V.38h7.03l7.45 14.53V.38h4.27v21.71h-6.83l-7.65-14.73v14.73h-4.27Zm23.06-.35v-4.29c2.42.77 4.58 1.15 6.48 1.15 2.59 0 3.89-.68 3.89-2.05 0-.51-.18-.94-.55-1.29-.39-.37-1.38-.88-2.98-1.53-2.85-1.16-4.71-2.17-5.59-3-1.12-1.08-1.68-2.47-1.68-4.15 0-2.14.82-3.77 2.45-4.89 1.62-1.11 3.72-1.67 6.32-1.67 1.46 0 3.35.23 5.67.7l.54.09v4.12c-2.01-.81-3.89-1.21-5.63-1.21-2.42 0-3.63.67-3.63 2.01 0 .5.25.91.74 1.23.39.24 1.52.79 3.39 1.62 2.63 1.18 4.38 2.2 5.27 3.07 1.04 1.03 1.56 2.37 1.56 4 0 2.35-1.02 4.15-3.05 5.38-1.67 1-3.82 1.5-6.46 1.5-2.23 0-4.47-.26-6.73-.79"/></svg>