<svg xmlns="http://www.w3.org/2000/svg" data-name="Layer 1" viewBox="0 0 400 248" fill="currentColor"><path d="M115.29 37.77 64.4 0l-2.75 29.78-27.7 11.13L84.7 78.58l6.2-1.68 10.53 7.9 6.81-2.98-16.01-11.99-6.2 1.68L47.08 42.6l20.64-8.29 2.06-22.26 38.89 28.86-.36 7.1 28.76 21.45 6.86-2.94-28.99-21.65zM355.62 248l-36.76-70.28-8.9 12.04-19.13-14.15-6.87 2.92 27.34 20.29 6.61-8.95 25.79 49.3-54.65-10.29 6.13-8.28-40.07-29.71-6.86 2.94 37.89 28.11-8.43 11.39z"/><path d="m374.83 118.31 2.64-5.86c2.48-5.51 2.18-11.35-.83-16.03-3.31-5.14-9.44-8.2-16.39-8.2h-55.76L197.88 43.39l-53.97 23.14-6.85 2.94-28.83 12.36-6.82 2.98-7.83 3.42H60.32c-6.07 0-14.08 3.44-17.33 10.98 0 0-4.23 9.81-5.85 13.55L0 128.78l25.28 11.51c-1.14 2.65-2.18 5.09-2.19 5.1-2.83 6.68-2.49 13.24.98 18.49 3.3 4.99 9.03 7.98 15.33 7.98h58.41l99.92 43.56 50.51-21.61 6.87-2.93 28.84-12.34 6.88-2.94 8.77-3.75h38.86c6.16 0 14.07-3.73 17.28-10.86 0 0 5-11.09 7.34-16.26l36.91-15.86-25.17-10.58Zm-16.25 20.8-8.51 18.86c-1.87 4.15-6.83 6.53-10.59 6.53h-40.37l-100.33 42.91-82.71-36.07 70.03-5.82.42-1.03H40.42c-7.36 0-13.66-6.56-9.55-16.23l5.01-11.69-16.73-7.62 24.6-10.62 7-16.23c1.84-4.27 6.83-6.54 10.59-6.54h34.77l102.82-44.2 89.13 37.49-73.74 5.66-.41 1.04 147.35.02c8.16 0 14 6.14 10.52 13.85l-5.75 12.75 16.16 6.79-23.62 10.15Z"/><path d="m166.65 132.14 4.78 25.47h16.29l22.73-54.73h-29l11.26 2.67-9.65 23.28-4.4-25.95H161.6l-22.81 54.73h17.24zm138.64-29.29h-26.6c-4.38 0-9.23 1.34-11.18 6.02l-17.2 41.4c-1.66 3.99.17 7.35 4.67 7.35h28.11c3.71 0 8.01-2.1 9.34-5.29l5.97-14.37h-16.94l-3.44 8.26h-9.06l13.06-31.34h9.04l-2.33 5.59h16.93l4.28-10.29c1.69-3.97-.19-7.33-4.67-7.33zm-77.83 0c-4.38 0-9.23 1.34-11.18 6.02l-17.2 41.4c-1.66 3.99.17 7.36 4.67 7.36h28.11c3.71 0 8.01-2.1 9.34-5.3l17.52-42.14c1.69-3.97-.19-7.33-4.67-7.33h-26.59Zm-.67 43.37h-9.05l13.06-31.34h9.04zm103.2-43.37c-4.38 0-9.23 1.34-11.18 6.02l-17.2 41.4c-1.66 3.99.17 7.35 4.67 7.35h28.11c3.71 0 8.01-2.1 9.34-5.29l17.52-42.14c1.69-3.97-.19-7.33-4.67-7.33h-26.6.01Zm-.67 43.37h-9.06l13.06-31.34h9.04l-13.05 31.34ZM67.35 123.58l3.67-8.7h9.12l-2.33 5.59h16.96l4.31-10.28c1.68-4.38-.31-7.33-4.54-7.33H67.66c-5.91 0-9.4 2.1-11.18 6.02l-6.81 16.38c-1.23 3.16-.2 6.19 2.81 7.16l17.75 5.75-3.22 8.07h-9.06l2.6-6.24H43.53l-4.25 10.29c-1.98 5.19 1.28 7.36 4.67 7.36h27.74c4.06 0 8.48-2.34 9.61-5.05l6.78-16.18c1.32-3.12 0-6.21-2.97-7.2l-17.77-5.62v-.02zm27.92 34.05c-4.67 0-6.27-3.54-4.67-7.36 1.32-3.15 19.76-47.39 19.76-47.39h17.02l-18.06 43.31h8.99l18.06-43.31h16.99s-19.83 47.27-20.64 49.45c-1.01 2.72-5.34 5.3-9.63 5.3H95.26Zm208.09 21.04c0-2.19 1.65-3.85 3.77-3.85s3.74 1.65 3.74 3.85-1.65 3.87-3.74 3.87-3.77-1.64-3.77-3.87m3.77 4.64c2.52 0 4.67-1.96 4.67-4.64s-2.15-4.62-4.67-4.62-4.7 1.96-4.7 4.62 2.15 4.64 4.7 4.64m-.98-4.28h.93l1.41 2.32h.91l-1.52-2.35c.78-.1 1.38-.51 1.38-1.47 0-1.05-.62-1.52-1.88-1.52h-2.03v5.34h.81v-2.32zm0-.68v-1.65h1.1c.56 0 1.16.12 1.16.78 0 .82-.61.87-1.3.87h-.97Z"/></svg>