<svg xmlns="http://www.w3.org/2000/svg" id="uuid-21625cb3-ee1f-48e5-95c5-150850980ef9" data-name="Primary Logo" viewBox="0 0 523 156.1" fill="currentColor"><path d="M0 3.3v46.6h10V12.5h95.5v37.4h9.5V3.3H0z"/><path d="M25.7 107.6v9.5H52V24.2H21.2v25.7h9.7v-16h11.4v73.7H25.7zM63.6 24.1V117H90v-9.5H73.3V33.8h11.4v16.1h9.8V24.1H63.6zM25.7 137.5H90v-9.4H25.7v9.4zM174.3 53.6l9.2 2.9v2.3h-29.1v-2.3l9.2-2.9V7.4h-10.4l-4 11.6h-3.4V3.3h46.5v15.8h-3.5l-4.3-11.6h-10.1v46.2l-.1-.1ZM200.6 37.7v.7c0 9.8 6.5 15.9 15 15.9s5.7-.3 9.7-1.2l.6 3.1c-6.6 2.2-12.5 3.5-16.5 3.5-11.8 0-19.3-7.9-19.3-20.1s8.3-21.8 19.9-21.8 16.6 5.6 16.6 18.4v1.5h-26Zm15.1-4.3v-.8c0-8.4-3-11.4-7-11.4s-8 4.7-8 12.1v1.6l15-1.5ZM247.2 53.6l5.8 2.9v2.3h-23.3v-2.3l7-2.9V24.7l-7-2.2v-2.1l17.5-3v4.7c7.8-3.3 10.2-4.3 13.6-4.3s6 1.1 8.6 4.7c8.7-3.7 11.7-4.7 15.5-4.7 5.7 0 11.3 3.9 11.3 12v23.8l7 2.9v2.3H280v-2.3l5.8-2.9V33.3c0-6.5-2.9-9.7-8.5-9.7s-4.3.3-6.6 1.1c.9 1.7 1.1 3.3 1.1 6.6v22.3l5.8 2.9v2.3h-22v-2.3l5.8-2.9V33.4c0-6.3-2.8-9.4-8.3-9.4s-4.1.2-5.7.7v28.9h-.2Z"/><path d="m318.8 72.5 8.7 2.7v2.4h-26.1v-2.4l7-2.7V24.8l-6.7-2.1v-2.2l17.1-3v5.1c5.6-2.9 10.5-4.7 13.7-4.7 8.5 0 15 8.1 15 18.9s-9.7 23-22.8 23-3.8-.2-5.8-.9v13.7l-.1-.1Zm0-17.3c1.3.2 2 .3 3.4.3 9.2 0 14.5-6.1 14.5-17.2s-3.6-14.6-11.4-14.6-2.9 0-6.4.7v30.7l-.1.1ZM354.9 7.6l-7.4-2V3.3L365.3 0v53.6l7 2.9v2.3h-24.5v-2.3l7.1-2.9v-46ZM383 37.7v.7c0 9.8 6.5 15.9 15 15.9s5.7-.3 9.7-1.2l.6 3.1c-6.6 2.2-12.5 3.5-16.5 3.5-11.8 0-19.3-7.9-19.3-20.1s8.3-21.8 19.9-21.8S409 23.4 409 36.2v1.5h-26Zm15-4.3v-.8c0-8.4-3-11.4-7-11.4s-8 4.7-8 12.1v1.6l15-1.5ZM162.7 120.8c0 9.2 3.9 13.3 12.4 13.3s13.7-4.1 13.7-13.9V87.1l-7.1-2.9v-2.3h20.4v2.3l-7 2.9v32c0 13.1-9.1 19.6-22.3 19.6s-20.9-5.7-20.9-17.1V87.1l-7-2.9v-2.3h24.9v2.3l-7 2.9v33.7h-.1ZM218.1 132.2l6.2 2.9v2.3h-23.7v-2.3l7.1-2.9v-28.9l-7.1-2v-2.2l17.5-3.1v4.7c9.7-3.9 10.9-4.2 14.6-4.2 6.9 0 10.6 4.6 10.6 12.1v23.6l7.1 2.9v2.3h-22.8v-2.3l5.4-2.9v-21.4c0-5.5-2.7-8.2-8-8.2s-4.3 0-6.9.7v28.9ZM259.9 103.3l-7.1-2.1V99l17.5-3.1v36.4l7 2.9v2.3h-24.5v-2.3l7.1-2.9v-29ZM271 84.4c0 3.4-1.7 4.9-6.3 4.9s-6.1-1.6-6.1-4.9 1.5-4.9 6.1-4.9 6.3 1.6 6.3 4.9ZM278.9 101.4l-5.2-2.2v-2.4h22v2.4l-5.9 2.2 6.4 17.6c1 2.6 1.7 5.2 2 6.7l9.2-23.7-5.5-2.8v-2.4h16.2v2.4l-4.8 2.8-15.7 36.3H293l-14.1-36.9ZM326.4 116.3v.7c0 9.8 6.5 15.9 15 15.9s5.7-.3 9.7-1.2l.6 3.1c-6.6 2.2-12.5 3.5-16.5 3.5-11.8 0-19.3-7.9-19.3-20.1s8.3-21.8 19.9-21.8 16.6 5.6 16.6 18.4v1.5h-26Zm15-4.4v-.8c0-8.4-3-11.4-7-11.4s-8 4.7-8 12.1v1.6l15-1.5ZM372.9 132.2l8.7 2.9v2.3h-26.2v-2.3l7-2.9v-28.9l-7-2.1V99l17.5-3v5.2l4.3-2.5c2.5-1.6 5.9-2.5 8.1-2.5s3 .3 4.9 1.3v10.2h-8.4l-2.2-5.2c-.6 0-1.1-.2-1.8-.2-1.3 0-2.6.2-4.9 1.1v28.9-.1ZM394.1 126.2h5.6l3.9 7.9h1.8c5.2 0 7.7-2 7.7-5.8s-.7-3.4-4.8-6l-7-4.2c-5.3-3.2-7.2-5.8-7.2-10.3 0-6.7 5.6-11.5 13.4-11.5s6.1.3 13.1 1.9v8.9h-5.5l-3.7-7h-1c-4.6 0-7.3 1.6-7.3 5.2s.9 3.4 4.6 5.6l7.4 4.1c4.5 2.5 6.8 6.1 6.8 10.8 0 7.4-6.1 12.6-14.6 12.6s-6.2-.6-13.2-2.3v-9.9ZM432.3 103.3l-7.1-2.1V99l17.5-3.1v36.4l7 2.9v2.3h-24.5v-2.3l7.1-2.9v-29Zm11.2-18.9c0 3.4-1.7 4.9-6.3 4.9s-6.1-1.6-6.1-4.9 1.5-4.9 6.1-4.9 6.3 1.6 6.3 4.9ZM447.8 101v-2.9c4.6-1.4 6.6-2.4 8.3-3.9 1.6-1.6 2.9-3.5 5-7.7h3.2v10.3h12.2v4.2h-12.2v25.9c0 5.2 3.3 6.1 7.4 6.1s4-.2 5.5-.5l.8 3.3c-9.2 2.2-10.7 2.5-13.5 2.5-6.1 0-10.5-2-10.5-9.1V101h-6.2ZM483.4 101.3l-4.8-2.1v-2.4h21.6v2.4l-5.8 2.1 6.5 17.5c1.2 2.9 2 5.7 2.3 7.3l8.8-24.2-5.6-2.7v-2.4H523v2.4l-5.2 2.9-18.1 44.7c-2.7 6.8-6.8 9.3-14 9.3s-4.6-.2-6.4-.7v-7.9h6.7l1.6 5c3.5-.6 5.9-2.9 8.1-8.5l2.4-6.1-14.8-36.5.1-.1Z"/></svg>