<svg fill="currentColor" xmlns="http://www.w3.org/2000/svg" data-name="uuid-2c36b640-309a-4722-8b0f-c0108fddcd37" viewBox="0 0 400 188"><path d="M20.54 82.57h-6.37c-.09 8.33-.17 16.57-.17 30.51 0 7.39.51 11.55 2.97 14.61 2.38 2.98 6.7 4.25 12.81 4.25s10.53-1.44 13.24-5.01c2.46-3.23 2.54-8.32 2.63-16.4l.17-27.95h-7.38v-5.36h20.54v5.36h-6.53l-.17 32.2c0 6.8-.76 11.72-4.67 16.48-3.4 4.16-9.68 6.45-18.08 6.45-10.35 0-16.04-2.63-19.52-7.39-2.8-3.82-3.31-7.98-3.31-17.92s.08-20.73.17-29.82H0v-5.36h20.54v5.36ZM64.63 121.65h6.96v8.07c2.72 1.61 7.89 2.21 11.63 2.21 8.48 0 14.08-3.91 14.08-11.04 0-15.88-32.59-6.45-32.59-27.78 0-7.23 4.24-16.92 21.98-16.92 4.33 0 12.22 1.1 15.95 2.81v11.98h-6.62v-7.39c-2.21-.94-7.13-1.61-9.93-1.61-6.37 0-13.58 2.47-13.58 10.28 0 15.12 32.59 5.7 32.59 27.61 0 13.08-11.2 17.84-22.66 17.84-9.76 0-14.51-2.29-17.82-2.97v-13.08h.01Zm82.47 13.94c-3.39 1.02-7.81 2.12-12.64 2.12-17.39 0-22.9-11.47-22.9-22.93 0-16.74 12.14-22.94 21.97-22.94 4.84 0 9.67.59 14.17 2.21v11.47h-6.28v-6.88c-1.86-.68-5.34-1.02-7.29-1.02-12.72 0-15.27 10.02-15.27 17.16 0 2.38.34 17.16 16.71 17.16 4.33 0 7.8-1.19 11.87-2.47l-.34 6.12Zm18.41-37.38h-7.97v-5.36h14.93l-.34 38.48h6.96v5.35h-20.87v-5.35h6.95l.34-33.12ZM177.53 69.89c-.22 5.39-4.75 9.58-10.13 9.37s-9.56-4.76-9.35-10.15c.21-5.38 4.75-9.57 10.12-9.35 5.39.21 9.57 4.75 9.35 10.13h.01Zm-17.15-31.03c-.2 4.97-4.39 8.84-9.35 8.64-4.97-.2-8.83-4.39-8.63-9.36s4.38-8.84 9.35-8.64c4.96.2 8.82 4.39 8.63 9.36Zm-29-18.48c-.15 3.58-3.25 6.38-6.84 6.23-3.58-.14-6.37-3.17-6.23-6.76a6.496 6.496 0 0 1 6.75-6.24c3.59.14 6.46 3.17 6.32 6.76Zm-30.93.11c-.1 2.51-2.21 4.46-4.7 4.36-2.5-.1-4.45-2.21-4.35-4.71.1-2.51 2.21-4.46 4.71-4.35 2.5.1 4.45 2.2 4.35 4.7h-.01ZM35.33 32.36c-.4.91 0 1.97.93 2.36.9.4 1.96-.02 2.35-.92.4-.91-.02-1.97-.92-2.37-.91-.38-1.96.02-2.36.93Zm-6.17-4.4c-.29.67.02 1.45.68 1.75.67.29 1.45-.02 1.74-.69a1.32 1.32 0 0 0-.68-1.74c-.67-.3-1.45.01-1.75.68h.01Zm16.39 6.59a2.39 2.39 0 0 0 1.23 3.15c1.21.53 2.62-.02 3.14-1.24a2.39 2.39 0 0 0-1.23-3.15c-1.21-.53-2.62.02-3.14 1.24Zm13.07-.8c-.66 1.52.03 3.29 1.55 3.96 1.52.66 3.29-.03 3.96-1.55.66-1.52-.03-3.29-1.55-3.96-1.53-.67-3.29.03-3.96 1.55Zm81.12 32.67c3.23-2.23 4.06-6.65 1.84-9.89-2.22-3.24-6.64-4.05-9.87-1.84-3.25 2.17-4.14 6.56-1.97 9.81.02.03.03.05.05.08 2.29 3.24 6.71 4.06 9.95 1.84Zm-26.34 1.46c2.33-1.6 2.93-4.8 1.33-7.13a5.12 5.12 0 0 0-7.1-1.35s-.02.01-.02.02a5.126 5.126 0 0 0-1.33 7.13c1.6 2.33 4.79 2.93 7.12 1.33Zm-19.59-7.54c1.94-1.34 2.44-4 1.1-5.94a4.26 4.26 0 0 0-5.92-1.11c-1.94 1.34-2.44 4-1.1 5.94a4.26 4.26 0 0 0 5.92 1.11h.01-.01ZM82.64 47.05a3.282 3.282 0 0 0 .85-4.54c-1.02-1.48-3.05-1.87-4.53-.84a3.251 3.251 0 0 0-.84 4.53 3.258 3.258 0 0 0 4.52.85h.01-.01ZM77.46 32.93c1.41-.97 1.77-2.89.8-4.31a3.076 3.076 0 0 0-4.28-.82s-.02.01-.03.02c-1.41.96-1.76 2.89-.79 4.3a3.086 3.086 0 0 0 4.29.81ZM49.89 3.93c.56-.39.71-1.16.32-1.73-.38-.56-1.16-.71-1.72-.31-.57.39-.71 1.15-.33 1.72.39.56 1.16.71 1.73.32Zm13-1.56c.66-.74 1.79-.8 2.53-.14.74.66.8 1.8.14 2.53-.67.74-1.79.8-2.53.14-.74-.67-.8-1.79-.14-2.54ZM54.41.6c.66-.74 1.79-.8 2.53-.14.74.66.8 1.8.14 2.54-.66.73-1.79.8-2.53.14-.74-.66-.8-1.8-.14-2.53Zm14.31 7.6c.8-.88 2.16-.96 3.04-.17s.95 2.15.16 3.04c-.79.88-2.15.96-3.03.16a2.16 2.16 0 0 1-.17-3.04Zm3.23 8.64c.96-1.08 2.6-1.17 3.67-.2 1.07.96 1.16 2.6.2 3.68-.96 1.06-2.61 1.16-3.67.2a2.608 2.608 0 0 1-.2-3.68ZM190.53 115.31c.25 8.98 4.15 16.52 16.59 16.52 4.74 0 9.48-1.45 13.12-3.31l-.26 6.01c-3.21 1.61-9.99 3.05-14.38 3.05-13.8 0-22.35-7.54-22.35-22.79 0-12.87 6.94-22.96 20.23-22.96 17.27 0 18.88 15.68 18.88 23.47h-31.83Zm24.55-5.34c0-6.86-4.32-12.79-11.59-12.79s-12.53 5.59-12.95 12.79h24.55-.01Zm42.73 21.27h5.58c0-6.78.34-13.9.34-20.93 0-4.23-.17-12.7-9.91-12.7-6.18 0-12.95 3.73-12.95 15.59l-.17 18.05h6.35v5.34h-18.96v-5.34h5.59l.33-33.05h-7.02v-5.34h13.97c0 1.7-.09 4.07-.25 5.25l-.67 4.41h.17c1.86-6.61 8.89-10.67 15.49-10.67 12.02 0 14.98 8.13 14.98 16.44 0 7.46-.34 16.19-.34 22.96h6.43v5.34h-18.96v-5.34Zm56.78 4.23c-3.39 1.02-7.78 2.12-12.62 2.12-17.26 0-22.76-11.43-22.76-22.88 0-16.68 12.1-22.87 21.84-22.87 4.82 0 9.65.59 14.14 2.2v11.44h-6.26v-6.86c-1.86-.68-5.34-1.01-7.28-1.01-12.61 0-15.15 10-15.15 17.11 0 2.37.34 17.12 16.59 17.12 4.32 0 7.79-1.19 11.85-2.46l-.34 6.1h-.01Zm13.34-20.16c.25 8.98 4.15 16.52 16.59 16.52 4.74 0 9.48-1.45 13.12-3.31l-.26 6.01c-3.22 1.61-9.99 3.05-14.39 3.05-13.8 0-22.35-7.54-22.35-22.79 0-12.87 6.94-22.96 20.23-22.96 17.26 0 18.88 15.68 18.88 23.47h-31.83.01Zm24.55-5.34c0-6.86-4.32-12.79-11.59-12.79s-12.53 5.59-12.95 12.79h24.55Zm45.48-5h-6.26l-.34-6.18c-1.6-1.35-5.67-1.6-7.7-1.6-4.41 0-10.08 1.44-10.08 6.69 0 4.75 4.22 6.19 10.66 7.29 11.09 1.87 15.74 5.26 15.74 12.46 0 7.79-5.25 13.98-17.86 13.98-4.74 0-12.28-1.19-14.98-2.63l-.34-11.18h6.27l.34 6.52c2.62 1.28 7.03 1.95 9.9 1.95 4.57 0 10.07-1.95 10.07-7.29 0-4.32-4.48-5.85-9.22-6.86-11.68-2.54-17.52-4.57-17.52-13.13 0-7.03 4.66-13.13 17.18-13.13 3.64 0 10.41 1.19 13.8 2.63l.34 10.5v-.02ZM26.36 173.01c0 2.51.03 5.12-1.87 7-1.84 1.84-4.55 2.41-7.05 2.41s-5.18-.37-7.02-1.98c-2.27-1.97-2.37-4.62-2.37-7.43v-13.89h5.82v13.89c0 1.07-.03 2.61.5 3.54.7 1.21 2.14 1.54 3.44 1.54 1.07 0 2.64-.33 3.31-1.24.74-1.04.64-2.64.64-3.85v-13.89h4.61V173Zm3.86-7.93h4.65v2.88h.07c1-2.18 2.41-3.21 4.88-3.21 1.61 0 3.18.5 4.18 1.87.94 1.27.94 3.41.94 4.95v10.51h-4.91v-9.14c0-1.74.24-4.28-2.24-4.28-.87 0-1.67.5-2.07 1.27-.5.97-.57 1.94-.57 3.01v9.14h-4.92v-17Zm22.97-1.54h-4.92v-4.75h4.92v4.75Zm0 18.54h-4.92v-17h4.92v17Zm11.93 0h-3.91l-5.82-17h5.21l3.28 10.77 3.31-10.77h3.71l-5.78 17Zm11.63-7.67-.03.84c0 2.01 1.14 3.65 3.28 3.65 1.51 0 3.01-1.11 3.01-2.68l4.55.33c0 .84-1.97 5.86-7.72 5.86-5.08 0-8.39-3.55-8.39-8.6s2.97-9.07 8.26-9.07c2.37 0 4.81 1.07 6.22 3.01 1.4 1.94 1.77 4.35 1.74 6.66H76.75Zm5.99-2.91c-.1-1.84-.7-3.55-2.84-3.55s-3.01 1.61-3.18 3.55h6.02Zm12.41-6.42v3.18h.07c.5-1.81 1.5-3.68 3.64-3.51l.84.06v4.92c-3.74-.2-4.21 2.85-4.21 5.86v6.49h-4.91v-17h4.58-.01Zm16.5 5.08c-.44-1.6-1.71-2.28-3.31-2.28-1 0-2.54.27-2.54 1.51 0 3.18 10.2-.44 10.2 7.23 0 1.78-.84 3.35-2.27 4.39-1.54 1.07-3.41 1.41-5.28 1.41-3.54 0-6.86-1.2-7.76-5.02l4.25-.6c.33 1.74 2.17 2.27 3.75 2.27.94 0 2.98-.33 2.98-1.61 0-1.14-1-1.34-1.91-1.44-1.17-.13-3.98-.63-5.05-1-2.01-.7-3.35-2.44-3.35-4.58 0-4.19 3.65-5.69 7.26-5.69 3.34 0 5.52 1.27 6.69 4.45l-3.64.97h-.02Zm12.11-6.62h-4.91v-4.75h4.91v4.75Zm0 18.54h-4.91v-17h4.91v17Zm13.51-13.12h-3.64v6.76c0 2.24.17 2.75 2.27 2.75.43 0 1.07-.07 1.64-.14v3.71c-.97.23-2.17.37-3.08.37-1.4 0-3.28-.2-4.38-1.1-1.37-1.14-1.37-3.18-1.37-4.85v-7.5h-2.77v-3.91h2.98l.44-4.99 4.28-.33v5.32h3.64v3.91h-.01ZM149.26 181c-1.27 3.85-1.94 7-6.75 7-.8 0-1.61-.07-2.41-.2v-3.85c.87.13 1.64.23 2.47.23 1.64 0 2.27-.5 2.71-2.11l-6.18-17h5.32l3.24 10.11 3.11-10.11h3.68L149.27 181h-.01Zm32.99-7.29c0 4.85-3.18 8.7-8.19 8.7s-8.06-3.95-8.06-8.87 2.88-8.8 8.06-8.8 8.19 3.95 8.19 8.97Zm-10.97-.67c0 1.94-.03 6.09 2.77 6.09s2.91-3.35 2.91-5.39c0-1.34-.07-2.94-.54-4.22-.4-1.1-1.2-1.54-2.34-1.54-2.64 0-2.81 3.11-2.81 5.05Zm19.18 9.04h-4.91v-12.75h-1.97v-3.82h1.97c0-1.47-.07-3.25.77-4.52 1.04-1.54 2.98-2.24 4.78-2.24.4 0 1.77.03 2.81.23v3.78c-.74-.1-1.1-.1-1.87-.1-1.57 0-1.57 1.04-1.57 2.48v.37h3.01v3.82h-3.01v12.75Zm24.67-13.12h-3.64v6.76c0 2.24.16 2.75 2.27 2.75.43 0 1.07-.07 1.64-.14v3.71c-.97.23-2.17.37-3.07.37-1.4 0-3.28-.2-4.38-1.1-1.37-1.14-1.37-3.18-1.37-4.85v-7.5h-2.78v-3.91h2.97l.44-4.99 4.28-.33v5.32h3.64v3.91Zm17.63 13.12h-4.91v-9.17c0-1.47.17-4.25-1.97-4.25-.9 0-1.94.43-2.34 1.27-.43.9-.43 1.97-.43 2.98v9.17h-4.92v-22.96h4.92v8.3h.07c.64-1.71 2.57-2.68 4.41-2.68 1.57 0 3.24.53 4.25 1.84 1.04 1.34.93 3.04.93 4.69v10.81h-.01Zm7.95-7.67-.03.84c0 2.01 1.14 3.65 3.28 3.65 1.5 0 3.01-1.11 3.01-2.68l4.55.33c0 .84-1.98 5.86-7.73 5.86-5.08 0-8.39-3.55-8.39-8.6s2.97-9.07 8.26-9.07c2.38 0 4.81 1.07 6.22 3.01 1.4 1.94 1.77 4.35 1.74 6.66h-10.91Zm5.99-2.91c-.1-1.84-.7-3.55-2.84-3.55s-3.01 1.61-3.18 3.55h6.02Zm29.94-5.82c-.67-1.94-1.9-2.71-3.94-2.71-1.44 0-3.18.37-3.18 2.14 0 1.67 2.01 2.08 3.31 2.31 1.87.4 4.38.87 5.99 1.94 1.87 1.24 3.01 3.15 3.01 5.42s-1.07 4.39-2.84 5.76c-1.84 1.44-4.35 1.87-6.66 1.87-4.31 0-8.22-1.87-9.26-6.36l4.95-1.14c.67 2.41 2.41 3.24 4.78 3.24 1.54 0 3.58-.57 3.58-2.48s-2.61-2.28-4.01-2.58c-4.08-.84-8.09-2.04-8.09-7.06 0-2.14.84-4.02 2.48-5.39 1.67-1.41 3.64-1.87 5.75-1.87 4.01 0 7.29 1.41 8.69 5.39l-4.55 1.5v.02Zm18.68 5.85c0-1.54-.8-3.05-2.57-3.05-2.71 0-3.04 2.68-3.04 4.85s.03 5.02 2.84 5.02c1.74 0 2.61-1.37 2.77-2.94l4.68.27c-.4 4.22-3.58 6.73-7.73 6.73-5.15 0-8.19-3.65-8.19-8.67s3.15-9 8.5-9c3.94 0 7.08 2.54 7.42 6.52l-4.68.27Zm12.57-7.99h-4.92v-4.75h4.92v4.75Zm0 18.54h-4.92v-17h4.92v17Zm8.12-7.67-.03.84c0 2.01 1.14 3.65 3.28 3.65 1.51 0 3.01-1.11 3.01-2.68l4.55.33c0 .84-1.97 5.86-7.73 5.86-5.08 0-8.39-3.55-8.39-8.6s2.98-9.07 8.26-9.07c2.37 0 4.81 1.07 6.22 3.01 1.4 1.94 1.77 4.35 1.74 6.66h-10.91Zm5.99-2.91c-.1-1.84-.7-3.55-2.84-3.55s-3.01 1.61-3.18 3.55H322Zm7.68-6.42h4.65v2.88h.07c1-2.18 2.41-3.21 4.88-3.21 1.61 0 3.18.5 4.18 1.87.94 1.27.94 3.41.94 4.95v10.51h-4.91v-9.14c0-1.74.23-4.28-2.24-4.28-.87 0-1.67.5-2.07 1.27-.5.97-.57 1.94-.57 3.01v9.14h-4.92v-17Zm28.66 6.45c0-1.54-.8-3.05-2.57-3.05-2.71 0-3.04 2.68-3.04 4.85s.03 5.02 2.84 5.02c1.74 0 2.61-1.37 2.77-2.94l4.68.27c-.41 4.22-3.58 6.73-7.73 6.73-5.15 0-8.19-3.65-8.19-8.67s3.15-9 8.5-9c3.94 0 7.09 2.54 7.42 6.52l-4.68.27Zm12.02 2.88-.03.84c0 2.01 1.14 3.65 3.28 3.65 1.5 0 3.01-1.11 3.01-2.68l4.55.33c0 .84-1.97 5.86-7.73 5.86-5.08 0-8.39-3.55-8.39-8.6s2.98-9.07 8.26-9.07c2.37 0 4.81 1.07 6.22 3.01 1.4 1.94 1.77 4.35 1.74 6.66h-10.91Zm5.99-2.91c-.1-1.84-.7-3.55-2.84-3.55s-3.01 1.61-3.18 3.55h6.02Zm17.51-1.34c-.43-1.6-1.71-2.28-3.31-2.28-1 0-2.54.27-2.54 1.51 0 3.18 10.2-.44 10.2 7.23 0 1.78-.83 3.35-2.27 4.39-1.54 1.07-3.41 1.41-5.28 1.41-3.54 0-6.85-1.2-7.75-5.02l4.25-.6c.33 1.74 2.17 2.27 3.75 2.27.94 0 2.97-.33 2.97-1.61 0-1.14-1-1.34-1.9-1.44-1.17-.13-3.98-.63-5.05-1-2-.7-3.34-2.44-3.34-4.58 0-4.19 3.65-5.69 7.26-5.69 3.34 0 5.51 1.27 6.68 4.45l-3.64.97h-.03Z"/></svg>