<svg fill="currentColor" xmlns="http://www.w3.org/2000/svg" data-name="uuid-1cc870f4-7e63-4d20-a8a2-42c7febc3af2" viewBox="0 0 420 89"><path fill-rule="evenodd" d="M158.32 65.06v.55h-20.41v-7.94l.15-.02h-.15V36.79c-.04-1.22.4-6.65-5.78-6.59 0 .02-6.35.11-6.2 7.75s-.02 20.65-.02 20.65c.18 6.35 3.98 6.48 3.99 6.48v.53H97.52c-.45.05-14.8.52-15.38-12.84v-7.22s-5.68 1.26-7.46 2.63c0 0-4.55 2.88-1.55 7.83 0 0 2.23 3.91 9.44 2.47l-3.52 7.15H72.1s-16.22.33-18.12-11.58c0-.08-1.46-9.35 9.62-13.1 0 0 3.79-1.33 11-2.61.08 0 6.16-.87 6.73-4.16.14-.67.07-1.36-.2-1.99.1.26-2.76-7.25-20.26.34.07.08 3.6-10.98 3.6-10.98s16.48-4.84 27.98 2.21c-.08.08 6.01 3.31 5.93 13.45l.18 14.02c-.02.2-.01 7.18 6.86 7.57 0 .07 2.44.05 3.84.04V28.23c0-.17.37-6.54-3.88-6.83v-.59l20.57-.8v5.2c1.11-1.1 5.65-5.14 12.36-5.27 0 0 16.01-.56 15.98 15.12l.03 22.56c-.13 7.32 4.02 7.43 4.02 7.43h-.02ZM0 .78V.11h22.32l16.02 46.75L50.19 9.35s2.42-6.31-4.06-8.81V0h17.88L41.42 66.11l-9.4-3.62s-7.61-2.25-11.67-13.66L5.64 8.25S3.79 1.7 0 .78Zm397.79 56.86c-.11 7.84 4.07 7.43 4.07 7.43v.55h-21V36.83c0 .27 0-7.2-6.56-7.28-.08.08-7.69-.73-7.69 13.48-.08.08-.08 16.62 12.78 14.5 0 .07-4.51 8.06-4.51 8.06s-10.43 3.59-19.07-5.64c0 0-6.58-5.72-6.58-16.92.08.08-.22-10.55 6.58-17.28-.07.22 10.49-11.71 25.03-2.51V8.33c0-.16.37-6.54-3.89-6.83V.92l20.81-.81v57.53h.03ZM335.3 25.93c4.56-8.58 13.31-5.92 13.31-5.92v11.22c-13.88-2.3-13.3 8.15-13.31 8.08v18.31c-.1 7.76 3.89 7.46 4.08 7.45v.54h-32.77c-.43.05-14.79.52-15.35-12.84v-7.22s-5.7 1.26-7.48 2.63c0 0-4.54 2.88-1.54 7.83 0 0 2.22 3.91 9.44 2.47l-3.52 7.16h-6.96s-16.21.32-18.11-11.59c0-.08-1.46-9.35 9.62-13.09 0 0 3.79-1.34 10.99-2.61.08 0 6.16-.87 6.73-4.16.15-.67.08-1.36-.2-1.99.09.27-2.76-7.25-20.27.34.1.08 3.61-10.98 3.61-10.98s16.49-4.84 27.99 2.21c-.09.09 5.99 3.32 5.92 13.44l.18 14.03c-.03.21-.02 7.18 6.86 7.57 0 .07 2.75.05 4.09.05V28.25c0-.17.37-6.55-3.88-6.84v-.57l20.57-.81v5.91Z"/><path fill-rule="evenodd" d="M182.08 44.8c6.29 0 5.56-8.74 5.56-8.87-.13-7.51-5.55-7.28-5.55-7.28-5.97 0-5.73 7.49-5.8 7.42-.65 8.31 5.34 8.84 5.78 8.74h.01Zm46.98-24.84v29.22s-.15 6.33 5.63 6.28c-.03-.1 6.11.92 6.33-7.79 0 0 0 .02.02.02V28.24c0-.17.37-6.54-3.89-6.83v-.59l20.57-.8v37.61c0 .16-.38 7.23 4.08 7.44v.53h-20.79v-5.34c-.84.87-5.48 5.26-12.47 5.4 0 0-16.3.57-16.26-15.12-.06-.12-.03-16.71 0-22.38h-12.54c.47.39 1.09 1.22 1.09 1.22 7.04 9.01.2 16.5.14 16.57-4.51 6.32-19.08 8.09-19.08 8.09l-.91.1c-4.93.17-3.37 2.68-3.35 2.69.71 1.67 4.27 1.41 4.27 1.41h8.34c16.89-.06 18.69 11.01 18.76 11.01 2.78 15.52-12.85 20.15-28.45 19.74-15.48.1-21.22-6.64-21.16-6.58-3.93-4.55-1.85-10.91 5.11-12.83 5.15-1.42 11.23 0 11.23 0-4.62.65-3.8 5.35-3.79 5.38 1.55 5.56 9.46 5.62 9.94 5.62 10.1-.52 10.39-5.44 10.39-7.84 0-3.17-2.64-5.08-2.64-5.08-3.66-2.69-10.59-1.84-15.41-2.05-6.76-.38-8.51-6.73-8.83-8.68-.32-1.96.05-2.75 1.18-3.47 2.04-1.2 6.68-1.73 6.15-1.72l.1-.02c-.09-.02-.14-.02-.15-.02-5.81-1.85-9.27-6.74-9.33-6.74-7.39-10.56 1.23-18.89 1.23-18.89 4.94-4.77 11.23-5.83 16.84-6.11h47.66ZM404.52 8.4c0 3.91 3.21 7.1 7.17 7.1s7.15-3.19 7.15-7.1-3.2-7.1-7.15-7.1-7.16 3.19-7.16 7.1h-.01Zm-1.14 0c0-4.54 3.72-8.24 8.31-8.24S420 3.86 420 8.4s-3.73 8.24-8.31 8.24a8.275 8.275 0 0 1-8.31-8.24Z"/><path fill-rule="evenodd" d="M409.89 8.92v4.38h-1.37V3.59h3.5c1.65 0 3.34.51 3.34 2.43.04 1.12-.73 2.11-1.83 2.34v.03c1.17.28 1.33.9 1.48 1.99.15.97.26 2 .62 2.92h-1.46c-.12-.57-.28-1.21-.35-1.79-.11-.87-.11-1.66-.55-2.15-.39-.44-.94-.4-1.48-.44h-1.9Zm-.03-1.16h2.24c1.51-.07 1.84-.75 1.84-1.51s-.34-1.45-1.84-1.51h-2.25v3.02h.01Z"/></svg>